<?xml version="1.0" encoding="UTF-8"?>
<!-- Generator: Adobe Illustrator 25.4.1, SVG Export Plug-In . SVG Version: 6.00 Build 0) -->
<svg xmlns="http://www.w3.org/2000/svg" xmlns:xlink="http://www.w3.org/1999/xlink" version="1.1" id="Layer_1" x="0px" y="0px" viewBox="0 0 535.1 74.1" style="enable-background:new 0 0 535.1 74.1;" xml:space="preserve"> <style type="text/css"> .st0{clip-path:url(#SVGID_00000171680355611775540980000000241388996237692827_);} .st1{clip-path:url(#SVGID_00000042698004735103035700000002745133262193444776_);} .st2{clip-path:url(#SVGID_00000095322248693022542660000013161666224290566016_);} .st3{clip-path:url(#SVGID_00000099655223663635838490000009889879503355289509_);} .st4{clip-path:url(#SVGID_00000047060670466544870780000013267152824808903835_);} .st5{clip-path:url(#SVGID_00000105423834005940923960000005961913269352918432_);} .st6{clip-path:url(#SVGID_00000083803748991788773200000010373321400742722711_);} .st7{clip-path:url(#SVGID_00000151528908632056815490000007390577945585097396_);} .st8{clip-path:url(#SVGID_00000120544358262979480500000016774756227526004352_);} </style> <g> <g> <defs> <rect id="SVGID_1_" x="0.1" width="535" height="73.9"/> </defs> <clipPath id="SVGID_00000183968488807421792120000010066210112222139780_"> <use xlink:href="#SVGID_1_" style="overflow:visible;"/> </clipPath> <path style="clip-path:url(#SVGID_00000183968488807421792120000010066210112222139780_);" d="M357.2,26.1l6.3-7.8l-9.7-2.8 c0.5-1.7,1-3,1.5-4.6l9.4,3.6c-0.1-3-0.4-6.9-0.6-10.1h5l-0.5,10.1l9.5-3.6l1.4,4.6l-9.7,2.6c1.8,2.3,4.4,5.5,6.3,8 c-1.4,1-2.6,1.9-3.9,2.8l-5.5-8.4c-1.7,2.5-4.1,5.8-5.8,8.4L357.2,26.1z"/> </g> <g> <defs> <rect id="SVGID_00000050631671391847930170000008862031679936887212_" x="0.1" width="535" height="73.9"/> </defs> <clipPath id="SVGID_00000011741955034127709870000005925317737419792810_"> <use xlink:href="#SVGID_00000050631671391847930170000008862031679936887212_" style="overflow:visible;"/> </clipPath> <path style="clip-path:url(#SVGID_00000011741955034127709870000005925317737419792810_);" d="M24.8,33.7 c-8.5,0-15.4,6.1-15.4,15.5c0,9.3,6.9,15.8,15.4,15.8c8.4,0,15.7-5.8,15.7-15.8C40.5,39,32.4,33.7,24.8,33.7 M40.6,65.6 c-3.1,5.4-10,8.3-16.6,8.3c-12.9,0-24-9.7-24-24.7c0-15.1,11-24.6,24-24.6c6.6,0,13.4,2.7,16.6,8.1v-7.1h9.1v47.2h-9.1V65.6z"/> </g> </g> <rect x="65.1" width="9.2" height="72.9"/> <rect x="89.6" width="9.2" height="72.9"/> <g> <g> <defs> <rect id="SVGID_00000100348279903560802540000016344868364309213588_" x="0.1" width="535" height="73.9"/> </defs> <clipPath id="SVGID_00000124873793116331654720000017716866478058799034_"> <use xlink:href="#SVGID_00000100348279903560802540000016344868364309213588_" style="overflow:visible;"/> </clipPath> <path style="clip-path:url(#SVGID_00000124873793116331654720000017716866478058799034_);" d="M123.3,25.7h-9.1v47.2h9.1V25.7z M118.8,2.3c3.5,0,6.4,2.5,6.4,6c0,3.4-2.8,6-6.4,6c-3.4,0-6.4-2.5-6.4-6C112.4,4.8,115.3,2.3,118.8,2.3"/> </g> <g> <defs> <rect id="SVGID_00000075155810340467883850000016042100728195002772_" x="0.1" width="535" height="73.9"/> </defs> <clipPath id="SVGID_00000094619219752819970110000011411996670255983802_"> <use xlink:href="#SVGID_00000075155810340467883850000016042100728195002772_" style="overflow:visible;"/> </clipPath> <path style="clip-path:url(#SVGID_00000094619219752819970110000011411996670255983802_);" d="M160.3,33.7 c-8.5,0-15.4,6.1-15.4,15.5c0,9.3,6.9,15.8,15.4,15.8c8.4,0,15.7-5.8,15.7-15.8C176,39,167.9,33.7,160.3,33.7 M176.1,65.6 c-3.1,5.4-10,8.3-16.6,8.3c-12.9,0-24-9.7-24-24.7c0-15.1,11-24.6,24-24.6c6.6,0,13.4,2.7,16.6,8.1v-7.1h9.1v47.2h-9.1V65.6z"/> </g> <g> <defs> <rect id="SVGID_00000155848860494995174100000017439549643555990658_" x="0.1" width="535" height="73.9"/> </defs> <clipPath id="SVGID_00000155840330414876788950000004124285801158472125_"> <use xlink:href="#SVGID_00000155848860494995174100000017439549643555990658_" style="overflow:visible;"/> </clipPath> <path style="clip-path:url(#SVGID_00000155840330414876788950000004124285801158472125_);" d="M209.7,72.9h-9.2V25.7h9.2v7.1 c2.8-5.7,9.6-8.1,14.8-8.1c11.7,0,18.2,7.7,18.2,20.9v27.3h-9.2V46.2c0-7.9-3.9-12.5-10.4-12.5c-6.7,0-13.3,3.7-13.3,13.8v25.4 H209.7z"/> </g> <g> <defs> <rect id="SVGID_00000020372670409426122550000008165823961886269582_" x="0.1" width="535" height="73.9"/> </defs> <clipPath id="SVGID_00000092416618358364083380000016112119731827268228_"> <use xlink:href="#SVGID_00000020372670409426122550000008165823961886269582_" style="overflow:visible;"/> </clipPath> <path style="clip-path:url(#SVGID_00000092416618358364083380000016112119731827268228_);" d="M279.3,24.7 c7.2,0,13.8,2.7,18.2,7.6l-7,5.9c-2.8-2.8-6.9-4.4-11.2-4.4c-8.5,0-15.9,6-15.9,15.5s7.4,15.9,15.9,15.9c4.3,0,8.4-1.7,11.2-4.7 l7.1,5.9c-4.4,4.9-11,7.7-18.3,7.7c-13.4,0-25-9.8-25-24.8C254.3,34.2,265.9,24.7,279.3,24.7"/> </g> <g> <defs> <rect id="SVGID_00000101064585487923034360000017550352511551708573_" x="0.1" width="535" height="73.9"/> </defs> <clipPath id="SVGID_00000086663282359967074220000001449549636914422432_"> <use xlink:href="#SVGID_00000101064585487923034360000017550352511551708573_" style="overflow:visible;"/> </clipPath> <path style="clip-path:url(#SVGID_00000086663282359967074220000001449549636914422432_);" d="M343.4,45.6 C342.3,37.7,336.6,33,329,33c-7.8,0-13.9,4.8-15,12.6H343.4z M352.4,52.8h-38.3c1.1,7.9,7.3,12.8,15.3,12.8 c5.7,0,10.9-2.6,13.5-7.3c2.4,1,5.4,2,7.9,3c-4,8.3-12.6,12.5-21.7,12.5c-13.4,0-24.2-9.8-24.2-24.8s10.7-24.5,24.2-24.5 c13.4,0,23.5,9.5,23.5,24.5C352.5,50.2,352.5,51.7,352.4,52.8"/> </g> <g> <defs> <rect id="SVGID_00000172421132968698656830000002873660052947020222_" x="0.1" width="535" height="73.9"/> </defs> <clipPath id="SVGID_00000079469353330220666770000010581307126317342609_"> <use xlink:href="#SVGID_00000172421132968698656830000002873660052947020222_" style="overflow:visible;"/> </clipPath> <path style="clip-path:url(#SVGID_00000079469353330220666770000010581307126317342609_);" d="M395.7,69c6.7,0,11.8-5.4,11.8-12.2 c0-6.7-5.1-12.2-11.8-12.2c-6.7,0-11.8,5.5-11.8,12.2C383.9,63.6,389,69,395.7,69 M395.7,40.5c9.1,0,16.2,7.3,16.2,16.4 c0,9-7.1,16.3-16.2,16.3c-9.1,0-16.1-7.3-16.1-16.3C379.6,47.8,386.6,40.5,395.7,40.5"/> </g> <g> <defs> <rect id="SVGID_00000066495435879439475510000002727914597686398377_" x="0.1" width="535" height="73.9"/> </defs> <clipPath id="SVGID_00000097485432465485353290000013090427841468317119_"> <use xlink:href="#SVGID_00000066495435879439475510000002727914597686398377_" style="overflow:visible;"/> </clipPath> <path style="clip-path:url(#SVGID_00000097485432465485353290000013090427841468317119_);" d="M422.8,44.9v11.9h8.1 c3.9,0,5.5-3,5.5-5.9s-1.5-6-5.2-6H422.8z M431.2,40.9c6.7,0,9.5,5,9.5,10s-2.7,9.9-9.5,9.9h-8.4v11.9h-4.3V40.9H431.2z"/> </g> </g> <polygon points="467.1,40.9 467.1,44.9 457.4,44.9 457.4,72.7 453.1,72.7 453.1,44.9 443.4,44.9 443.4,40.9 "/> <rect x="472.7" y="40.9" width="4.3" height="31.8"/> <polygon points="508.4,72.7 502.6,72.7 490,59.1 490,72.7 485.7,72.7 485.7,40.9 490,40.9 490,54.6 500.5,40.9 505.8,40.9 493.6,56.8 "/> <polygon points="527.2,40.9 516.7,54.6 516.7,40.9 512.4,40.9 512.4,72.7 516.7,72.7 516.7,59.1 529.3,72.7 535.1,72.7 520.3,56.8 532.6,40.9 "/> </svg>