<?xml version="1.0" encoding="UTF-8"?>
<!-- Generator: Adobe Illustrator 25.4.1, SVG Export Plug-In . SVG Version: 6.00 Build 0) -->
<svg xmlns="http://www.w3.org/2000/svg" xmlns:xlink="http://www.w3.org/1999/xlink" version="1.1" id="Layer_1" x="0px" y="0px" viewBox="0 0 687.3 83.9" style="enable-background:new 0 0 687.3 83.9;" xml:space="preserve"> <g> <g> <path d="M28.4,1.1H0v81.2h26.3c28.8,0,43.8-10.6,43.9-41.1C70.1,10.8,53.9,1.2,28.4,1.1z M27.6,63.1h-4.9V20.4h5.6 c14,0,18.8,6.3,18.8,21.2C47,57.8,41.6,63.1,27.6,63.1z"/> <polygon points="101.8,49.6 125.8,49.6 125.8,30.9 101.8,30.9 101.8,20.1 141.7,20.1 141.7,1.2 79.5,1.2 79.5,82.4 142.5,82.4 142.5,63.5 101.8,63.5 "/> <polygon points="175.1,63.5 175.1,49.6 199.1,49.6 199.1,30.9 175.1,30.9 175.1,20.1 215,20.1 215,1.2 152.8,1.2 152.8,82.4 215.8,82.4 215.8,63.5 "/> <path d="M261.1,1.2h-34.9v81.2h22.2V56.1h11.3c19.5,0,33.2-7.3,33.2-28C292.8,8.6,280.1,1.2,261.1,1.2z M260.2,37.8h-11.8V19.6 h12.2c7.2,0,9.8,3.6,9.9,8.9C270.4,34.7,267.5,37.8,260.2,37.8z"/> <polygon points="480.6,49.7 504.6,49.7 504.6,31 480.6,31 480.6,20.2 520.5,20.2 520.5,1.3 458.3,1.3 458.3,82.5 521.3,82.5 521.3,63.6 480.6,63.6 "/> <path d="M665.7,1.4v22.2c0,6.6,0.1,17.4,0.7,21c-1.7-3.3-8.9-14.1-12.6-19.1l-17.9-24h-19.8v81.2h21.6V57.8c0-6.6-0.1-17.4-0.7-21 c2.1,3.6,9,14,12.7,19L669,82.6h18.3V1.4L665.7,1.4z"/> <path d="M428.6,30.8h21.8c-1.2-16.7-12.2-24.9-15.5-27c-4.7-2.5-10.6-3.7-18.2-3.7c-21.8,0-37.1,15.8-37.2,41.9 c0,24,12.9,41.9,37,41.9c9.4,0,16.3-2.4,21.6-6.2c3.4-2.9,8-8,10.5-15.7l0.1-0.3c0.9-2.8,1.4-5.6,1.6-8.5h-21.6 c-0.9,4.9-2.9,7.6-4.9,9.1c-1.5,1-3.1,1.6-5.1,1.8h-0.2c-0.6,0.1-1.1,0.1-1.7,0.1c-9.8,0-13.7-9.9-13.7-22.3 c0-12.9,4.1-22.3,13.5-22.3c5,0,7.9,2.1,10.1,5.8C428.3,28.5,428.5,30.8,428.6,30.8L428.6,30.8z"/> <path d="M556.3,1.3l-29.5,81.2h24.1l4.4-14.3h24.4l4.4,14.3h24.4L579,1.3H556.3z M574.2,50.4h-13.5l1.5-5.3 c2.6-10.9,4.2-17.9,5.2-23.4c1,5.1,2.6,11.8,4.7,21.5c0.1,0.6,0.3,1.2,0.5,1.8L574.2,50.4L574.2,50.4L574.2,50.4z"/> </g> </g> <path d="M310.4,75.6"/> <path d="M335.7,0C313.6,0,298,14.9,298,42c0,1,0,2,0.1,2.9c0.2,1.9,1.3,11.8,7,18.5c2.3,2.5,6,5.1,11.5,5.6 c10.8,0.9,17.2-5.8,18.2-7c-2.4,0-7.6-0.4-10.4-5c-2-3.7-3-8.8-3-15.3c0-14.6,5.1-22.2,14.2-22.2c8.8,0,14.1,7.5,14.4,21.5 c0.8,14.3-5.1,23-13.5,29.3c-0.3,0.2-0.5,0.4-0.8,0.6c-11.8,7.8-22.3,4.8-25.4,3.7c0.9,0.8,2.8,2.5,4.6,3.7c0.6,0.4,1.2,0.7,1.8,1 c5.4,3,11.8,4.5,18.9,4.5c22.1,0,37.7-15,37.7-42C373.2,14.7,357.8,0,335.7,0z"/> </svg>