<?xml version="1.0" encoding="UTF-8"?>
<!-- Generator: Adobe Illustrator 25.4.1, SVG Export Plug-In . SVG Version: 6.00 Build 0) -->
<svg xmlns="http://www.w3.org/2000/svg" xmlns:xlink="http://www.w3.org/1999/xlink" version="1.1" id="Top" x="0px" y="0px" viewBox="0 0 584.2 216.6" style="enable-background:new 0 0 584.2 216.6;" xml:space="preserve"> <style type="text/css"> .st0{fill:#130C0E;} </style> <path class="st0" d="M47.2,212.3C19.8,212.3,0,190.9,0,161.5s19.8-50.7,47.2-50.7c21,0,37.3,9.9,37.3,18.4c0,5-2.9,8.3-7.1,8.3 c-3.5,0-5.9-1.6-8.9-3.7c-4.5-3-10-6.8-21.3-6.8c-19.6,0-28.4,17.3-28.4,34.5c0,21,11.2,34.5,28.4,34.5C60,196,73,188.5,73,171.8 v-1.7H56.8c-4.4,0.2-8-3.2-8.2-7.5c0-0.2,0-0.5,0-0.7c0-5.5,4.3-8,8.2-8H81c7.7,0,10.8,3.5,10.8,12 C91.7,193.6,73.8,212.3,47.2,212.3z"/> <path class="st0" d="M179.4,211.4c-4.6,0-7.3-2-8.8-6.2l-4.6-14.6h-42l-4.6,14.4c-1.4,4.4-4.1,6.4-8.6,6.4c-4.9,0-8.8-3.6-8.8-8.3 c0-1.4,0.3-2.7,0.8-4l28.6-77.6c1.9-5.2,6.5-10.7,13.6-10.7c6.2,0,11.2,3.9,13.6,10.7l27.8,77.5c0.6,1.5,0.9,3.1,1,4.7 c0,4.3-3.5,7.7-7.8,7.7C179.5,211.4,179.4,211.4,179.4,211.4z M129,174.4h31.7l-14.8-46.2h-1.8L129,174.4z"/> <path class="st0" d="M232.2,212.3c-12.2,0-32.8-3-32.8-14.3c0-5,3.2-8.4,7.8-8.4c2.8,0,6,1.1,9.5,2.3c4.3,1.5,9.1,3.2,14.4,3.2 c9.8,0,16.2-5.5,16.2-14c0-8.3-9.2-10.9-19-13.7c-13.3-3.8-28.4-8-28.4-26.1c0-20.1,16.9-30.6,33.5-30.6c8.2,0,26.1,3.2,26.1,12.5 c0,4.3-2.7,8.8-7.8,8.8c-2.4-0.2-4.8-0.7-7-1.7c-3.8-1.6-7.8-2.5-11.9-2.5c-7.7,0-13.3,4.6-13.3,11c0,7,7.9,9.3,17,11.9 c13.5,4,30.4,8.9,30.4,30.1C266.8,201.5,249.4,212.3,232.2,212.3z"/> <path class="st0" d="M357.8,211.4c-2,0-5.9-1.8-7.6-4L304,146.3l-2.1-0.2V202c0,5.8-3.4,9.4-9,9.4s-9-3.6-9-9.4v-81 c0-5.8,3.4-9.4,8.9-9.4c2.9,0.3,5.6,1.8,7.6,4l46.3,62l2-0.2V121c0-5.8,3.4-9.4,9-9.4c5.6,0,8.9,3.6,8.9,9.4v81 C366.8,207.8,363.4,211.4,357.8,211.4z"/> <path class="st0" d="M575.2,211.4c-2.6,0-5.2-1.1-6.9-3.1l-32.6-39.7l-2.3-0.1V202c0,5.8-3.4,9.4-9,9.4s-8.9-3.6-8.9-9.4v-80.1 c0-6.1,3.3-9.4,9.2-9.4h25c22.3,0,33.7,10.3,33.7,30.5c0,13.4-9.3,22.8-24.8,25.2l-3.2,0.5l26.3,28.3c1.4,1.3,2.3,3.2,2.4,5.1 C584.2,206.6,580.6,211.4,575.2,211.4z M533.5,157.4h16.3c9.1,0,14.9-5.6,14.9-14.4s-5.8-14.2-14.9-14.2h-16.3V157.4z"/> <path d="M419.5,73.1c-10.2,17.9-20.6,31.4-28.3,41.3c-10.2,13-13.8,25.7-13.8,40.8c0,32.4,24.8,58,56.3,61.3 c-4.2-15.3-7.5-35-4.4-51.8c3.5-19.1,9.9-27.8,13.8-35.6c3.9-8,7.6-15.1,9.7-21.5c4.9-15.2,5.9-30.1,4.6-54.7 c-0.8-14.6-6.2-39.6-14.6-53.1c0.8,2.3-0.8,16.2-2.8,25.3C437.7,34.9,431.2,52.5,419.5,73.1z"/> <path d="M476.3,101.6c-0.2-0.2-0.4-0.2-0.6-0.3c0.4,3.4,0.1,10.2-2.7,18.6c-3,9-7.7,16.5-10.8,21.5c-4.3,7-9,14.1-11.8,29.2 c-2.7,14.4,0.9,30.9,5.2,45c0.2,0,0.2-0.1,0.4-0.1c28.2-6.8,48.1-32,48.1-61.1C504.1,132.2,493.6,112.8,476.3,101.6z"/> </svg>