<?xml version="1.0" encoding="UTF-8"?>
<!-- Generator: Adobe Illustrator 25.4.1, SVG Export Plug-In . SVG Version: 6.00 Build 0) -->
<svg xmlns="http://www.w3.org/2000/svg" xmlns:xlink="http://www.w3.org/1999/xlink" version="1.1" id="Layer_1" x="0px" y="0px" viewBox="0 0 510.2 85" style="enable-background:new 0 0 510.2 85;" xml:space="preserve"> <g> <g> <polygon points="20.8,0 0,0 42.5,42.5 0,85 20.8,85 63.3,42.5 "/> <polygon points="19.9,2.2 5.5,2.2 45.7,42.5 5.4,82.7 19.9,82.7 60.1,42.5 "/> <path d="M26.5,10.6c0.8,0.2,1.7,0.5,2.6,0.9l-9.2-9.2H5.5l7.1,7.1C16.9,9.1,21.6,9.4,26.5,10.6z"/> </g> <g> <polygon points="63.3,0 28,0 70.5,42.5 28,85 63.3,85 105.8,42.5 "/> <polygon points="62.4,2.2 33.5,2.2 73.7,42.5 33.5,82.7 62.4,82.7 102.6,42.5 "/> <path d="M33.5,2.2l9,9c0.6-0.2,1.2-0.3,1.9-0.4c6.5-1.9,13.9-2.2,22.2-0.2c2.3,0.5,4.9,1.7,7.7,3.4L62.4,2.2H33.5z"/> </g> </g> <g> <path d="M151.8,72.5c-14.1,0-24.5-9.5-24.5-21.2V33.5c0-11.7,10.4-21.2,24.5-21.2h33.4V23h-33.4c-8.5,0-13.2,4.6-13.2,10.5v17.8 c0,5.9,4.6,10.5,13.2,10.5h22.3V47.6h-20.4V37.1h31.8v35.4H151.8z"/> <path d="M243.6,72.5V53h-35.5v19.5h-11.4V31.7c0-11.7,8.5-19.5,22.6-19.5h12.9c14.1,0,22.6,7.8,22.6,19.5v40.8H243.6z M243.6,31.7 c0-5.9-2.8-8.8-11.3-8.8h-12.9c-8.5,0-11.3,2.9-11.3,8.8v10.7h35.5V31.7z"/> <path d="M297.9,72.4h-31.5V61.9h31.5c5.3,0,9.7-2,9.7-7.4s-4.3-7-9.7-7H285c-12,0-20.7-5.7-20.7-17.4s10.5-17.9,20.7-17.9h31.5 v10.5H285c-5.3,0-9.7,2-9.7,7.4s4.3,7,9.7,7h12.9c12.1,0,20.7,5.7,20.7,17.4C318.7,66.2,308.1,72.4,297.9,72.4z"/> <path d="M358.6,72.5h-31.5V62h31.5c5.3,0,9.7-2,9.7-7.4s-4.3-7-9.7-7h-12.9c-12.1,0-20.7-5.7-20.7-17.4s10.5-17.9,20.7-17.9h31.5 v10.5h-31.5c-5.3,0-9.7,2-9.7,7.4s4.3,7,9.7,7h12.9c12.1,0,20.7,5.7,20.7,17.4S368.7,72.5,358.6,72.5z"/> <path d="M411.6,72.5c-14.1,0-24.5-9.5-24.5-21.2V33.5c0-11.7,10.4-21.2,24.5-21.2h29.6V23h-29.6c-8.5,0-13.2,4.6-13.2,10.5v17.8 c0,5.9,4.6,10.5,13.2,10.5h29.6v10.7C441.2,72.5,411.6,72.5,411.6,72.5z"/> <path d="M478.2,74.4c-17.6,0-31.9-14.3-31.9-31.9c0-17.7,14.3-31.9,31.9-31.9c17.7,0,32,14.2,32,31.9 C510.2,60.1,495.9,74.4,478.2,74.4z M478.3,21.3c-11.8,0-21.2,9.5-21.2,21.2s9.4,21.2,21.2,21.2c11.7,0,21.1-9.5,21.1-21.2 S490,21.3,478.3,21.3z"/> </g> </svg>