<?xml version="1.0" encoding="UTF-8"?>
<!-- Generator: Adobe Illustrator 25.4.1, SVG Export Plug-In . SVG Version: 6.00 Build 0) -->
<svg xmlns="http://www.w3.org/2000/svg" xmlns:xlink="http://www.w3.org/1999/xlink" version="1.1" id="Layer_1" x="0px" y="0px" viewBox="0 0 510.2 85" style="enable-background:new 0 0 510.2 85;" xml:space="preserve"> <style type="text/css"> .st0{fill:url(#SVGID_1_);} .st1{fill:url(#SVGID_00000132806426309463368810000018009403814536947592_);} .st2{fill:url(#SVGID_00000017498379414911974100000008030852528917741206_);} .st3{fill:url(#SVGID_00000088116999143010017720000011226269876041173168_);} .st4{fill:url(#SVGID_00000152943688631634151690000018058834876888801188_);} .st5{fill:url(#SVGID_00000105421717800587569920000010103919217285530528_);} .st6{fill:#231F20;} </style> <g> <g> <radialGradient id="SVGID_1_" cx="34.3314" cy="30.8353" r="38.7218" gradientTransform="matrix(0.9688 0 0 -0.9687 -1.6103 72.3702)" gradientUnits="userSpaceOnUse"> <stop offset="0" style="stop-color:#13913E"/> <stop offset="7.796405e-02" style="stop-color:#179341"/> <stop offset="0.1537" style="stop-color:#23984B"/> <stop offset="0.2287" style="stop-color:#36A15B"/> <stop offset="0.3031" style="stop-color:#52AE71"/> <stop offset="0.3771" style="stop-color:#75BF8E"/> <stop offset="0.4509" style="stop-color:#A0D3B2"/> <stop offset="0.5231" style="stop-color:#D3EADB"/> <stop offset="0.5787" style="stop-color:#FFFFFF"/> <stop offset="1" style="stop-color:#8DC63F"/> </radialGradient> <polygon class="st0" points="20.8,0 0,0 42.5,42.5 0,85 20.8,85 63.3,42.5 "/> <radialGradient id="SVGID_00000047029986121467720800000015793684831206654901_" cx="43.6173" cy="7.003" r="47.5583" gradientTransform="matrix(0.9688 0 0 -0.9687 -1.6103 72.3702)" gradientUnits="userSpaceOnUse"> <stop offset="0" style="stop-color:#13913E"/> <stop offset="0.3442" style="stop-color:#13913E"/> <stop offset="0.35" style="stop-color:#13913E"/> <stop offset="0.5388" style="stop-color:#339F3E"/> <stop offset="0.9511" style="stop-color:#83C23F"/> <stop offset="1" style="stop-color:#8DC63F"/> </radialGradient> <polygon style="fill:url(#SVGID_00000047029986121467720800000015793684831206654901_);" points="19.9,2.2 5.5,2.2 45.7,42.5 5.4,82.7 19.9,82.7 60.1,42.5 "/> <radialGradient id="SVGID_00000107585531389592880430000005968443418089421997_" cx="40.1183" cy="38.1846" r="44.6765" gradientTransform="matrix(0.9688 0 0 -0.9687 -1.6103 72.3702)" gradientUnits="userSpaceOnUse"> <stop offset="5.076140e-03" style="stop-color:#8DC63F"/> <stop offset="0.3736" style="stop-color:#8DC63F"/> <stop offset="0.489" style="stop-color:#97CA4D"/> <stop offset="0.7086" style="stop-color:#B1D673"/> <stop offset="1" style="stop-color:#D9E8AE"/> </radialGradient> <path style="fill:url(#SVGID_00000107585531389592880430000005968443418089421997_);" d="M26.5,10.6c0.8,0.2,1.7,0.5,2.6,0.9 l-9.2-9.2H5.5l7.1,7.1C16.9,9.1,21.6,9.4,26.5,10.6z"/> </g> <g> <radialGradient id="SVGID_00000163053363086320491490000015470245065880450439_" cx="70.7166" cy="30.8353" r="42.0542" gradientTransform="matrix(0.9688 0 0 -0.9687 -1.6103 72.3702)" gradientUnits="userSpaceOnUse"> <stop offset="0" style="stop-color:#005095"/> <stop offset="7.507921e-02" style="stop-color:#045397"/> <stop offset="0.148" style="stop-color:#105B9B"/> <stop offset="0.2202" style="stop-color:#2368A4"/> <stop offset="0.2919" style="stop-color:#3F7BAF"/> <stop offset="0.3632" style="stop-color:#6293BE"/> <stop offset="0.4343" style="stop-color:#8EB1D0"/> <stop offset="0.5052" style="stop-color:#C1D4E5"/> <stop offset="0.5743" style="stop-color:#FBFCFD"/> <stop offset="0.5787" style="stop-color:#FFFFFF"/> <stop offset="1" style="stop-color:#007DC3"/> </radialGradient> <polygon style="fill:url(#SVGID_00000163053363086320491490000015470245065880450439_);" points="63.3,0 28,0 70.5,42.5 28,85 63.3,85 105.8,42.5 "/> <radialGradient id="SVGID_00000167370706956372379200000000288329002940153499_" cx="81.986" cy="5.2901" r="68.9796" gradientTransform="matrix(0.9688 0 0 -0.9687 -1.6103 72.3702)" gradientUnits="userSpaceOnUse"> <stop offset="0" style="stop-color:#005095"/> <stop offset="0.2003" style="stop-color:#005499"/> <stop offset="0.3948" style="stop-color:#005FA5"/> <stop offset="0.5864" style="stop-color:#0072B8"/> <stop offset="0.6701" style="stop-color:#007DC3"/> <stop offset="0.8903" style="stop-color:#009DDF"/> <stop offset="1" style="stop-color:#00AEEF"/> </radialGradient> <polygon style="fill:url(#SVGID_00000167370706956372379200000000288329002940153499_);" points="62.4,2.2 33.5,2.2 73.7,42.5 33.5,82.7 62.4,82.7 102.6,42.5 "/> <radialGradient id="SVGID_00000163055052633463356860000008575924767181418166_" cx="78.1408" cy="39.3433" r="46.5897" gradientTransform="matrix(0.9688 0 0 -0.9687 -1.6103 72.3702)" gradientUnits="userSpaceOnUse"> <stop offset="5.076140e-03" style="stop-color:#004B8D"/> <stop offset="0.1785" style="stop-color:#0066A8"/> <stop offset="0.5504" style="stop-color:#00ACED"/> <stop offset="0.5604" style="stop-color:#00AEEF"/> <stop offset="0.6136" style="stop-color:#0EB2F0"/> <stop offset="0.7147" style="stop-color:#34BDF2"/> <stop offset="0.8534" style="stop-color:#71D0F6"/> <stop offset="1" style="stop-color:#B9E5FB"/> </radialGradient> <path style="fill:url(#SVGID_00000163055052633463356860000008575924767181418166_);" d="M33.5,2.2l9,9c0.6-0.2,1.2-0.3,1.9-0.4 c6.5-1.9,13.9-2.2,22.2-0.2c2.3,0.5,4.9,1.7,7.7,3.4L62.4,2.2H33.5z"/> </g> </g> <g> <path class="st6" d="M151.8,72.5c-14.1,0-24.5-9.5-24.5-21.2V33.5c0-11.7,10.4-21.2,24.5-21.2h33.4V23h-33.4 c-8.5,0-13.2,4.6-13.2,10.5v17.8c0,5.9,4.6,10.5,13.2,10.5h22.3V47.6h-20.4V37.1h31.8v35.4H151.8z"/> <path class="st6" d="M243.6,72.5V53h-35.5v19.5h-11.4V31.7c0-11.7,8.5-19.5,22.6-19.5h12.9c14.1,0,22.6,7.8,22.6,19.5v40.8H243.6z M243.6,31.7c0-5.9-2.8-8.8-11.3-8.8h-12.9c-8.5,0-11.3,2.9-11.3,8.8v10.7h35.5V31.7z"/> <path class="st6" d="M297.9,72.4h-31.5V61.9h31.5c5.3,0,9.7-2,9.7-7.4s-4.3-7-9.7-7H285c-12,0-20.7-5.7-20.7-17.4 s10.5-17.9,20.7-17.9h31.5v10.5H285c-5.3,0-9.7,2-9.7,7.4s4.3,7,9.7,7h12.9c12.1,0,20.7,5.7,20.7,17.4 C318.7,66.2,308.1,72.4,297.9,72.4z"/> <path class="st6" d="M358.6,72.5h-31.5V62h31.5c5.3,0,9.7-2,9.7-7.4s-4.3-7-9.7-7h-12.9c-12.1,0-20.7-5.7-20.7-17.4 s10.5-17.9,20.7-17.9h31.5v10.5h-31.5c-5.3,0-9.7,2-9.7,7.4s4.3,7,9.7,7h12.9c12.1,0,20.7,5.7,20.7,17.4S368.7,72.5,358.6,72.5z"/> <path class="st6" d="M411.6,72.5c-14.1,0-24.5-9.5-24.5-21.2V33.5c0-11.7,10.4-21.2,24.5-21.2h29.6V23h-29.6 c-8.5,0-13.2,4.6-13.2,10.5v17.8c0,5.9,4.6,10.5,13.2,10.5h29.6v10.7C441.2,72.5,411.6,72.5,411.6,72.5z"/> <path class="st6" d="M478.2,74.4c-17.6,0-31.9-14.3-31.9-31.9c0-17.7,14.3-31.9,31.9-31.9c17.7,0,32,14.2,32,31.9 C510.2,60.1,495.9,74.4,478.2,74.4z M478.3,21.3c-11.8,0-21.2,9.5-21.2,21.2s9.4,21.2,21.2,21.2c11.7,0,21.1-9.5,21.1-21.2 S490,21.3,478.3,21.3z"/> </g> </svg>