<?xml version="1.0" encoding="UTF-8"?>
<!-- Generator: Adobe Illustrator 25.4.1, SVG Export Plug-In . SVG Version: 6.00 Build 0) -->
<svg xmlns="http://www.w3.org/2000/svg" xmlns:xlink="http://www.w3.org/1999/xlink" version="1.1" id="Layer_1" x="0px" y="0px" viewBox="0 0 449.3 127.8" style="enable-background:new 0 0 449.3 127.8;" xml:space="preserve"> <style type="text/css"> .st0{fill:#2E47E5;} .st1{fill:#0F163B;} </style> <path class="st0" d="M96.8,0c-4,0-7.5,2.5-8.9,6.2l-9.3,25.6l-9.3,25.6c-1.5,4.2-1.5,8.7,0,12.9L78.6,96l9.3,25.6 c1.4,3.7,4.9,6.2,8.9,6.2h21.3c4,0,7.3-3.3,7.3-7.3V7.3c0-4-3.3-7.3-7.3-7.3H96.8z"/> <path class="st0" d="M28.6,0c4,0,7.5,2.5,8.9,6.2l9.3,25.6l9.3,25.6c1.5,4.2,1.5,8.7,0,12.9L46.8,96l-9.3,25.6 c-1.4,3.7-4.9,6.2-8.9,6.2H7.3c-4,0-7.3-3.3-7.3-7.3V7.3C0,3.3,3.3,0,7.3,0H28.6z"/> <path class="st1" d="M174.3,16.4h6.3v16h17.7v-16h6.3v38.1h-6.3V38h-17.7v16.5h-6.3L174.3,16.4z"/> <path class="st1" d="M237.3,49.4v5.1h-3.1c-3.8,0-5.1-1.7-5.1-4.5c-2,3.1-5.5,5-9.2,4.8c-6.1,0-10.3-3-10.3-8.2 c0-5.7,4.1-8.9,11.9-8.9h7v-1.7c0-3.1-2.2-5-6.1-5c-3.5,0-5.8,1.6-6.3,4.1h-5.8c0.6-5.4,5.3-8.8,12.3-8.8c7.4,0,11.6,3.5,11.6,10.1 v11.1c0,1.4,0.6,1.8,1.8,1.8H237.3z M228.5,42.1h-7.3c-3.6,0-5.6,1.4-5.6,4.2c0,2.3,2,4,5.2,4c4.9,0,7.7-2.9,7.8-7.2L228.5,42.1z"/> <path class="st1" d="M259.2,26.7h5.9v27.9h-5.2l-0.6-3.5c-2.1,2.6-5.3,4-8.6,3.9c-5.9,0-11-3.2-11-12.7V26.7h5.9v14.9 c0,5.4,2.2,8.2,6.5,8.2c4.5,0,7.2-3.4,7.2-9.1L259.2,26.7z"/> <path class="st1" d="M292.4,26.7h5.1v26.7c0,7.6-4.2,12.3-14.2,12.3c-7.4,0-12.6-3.4-13.1-9.7h6c0.7,3.1,3.4,4.9,7.6,4.9 c5.1,0,8-2.4,8-7.8v-3.1c-1.9,2.8-4.7,4.6-9.1,4.6c-7.6,0-13.2-5.3-13.2-14.1c0-8.5,5.6-14.1,13.2-14.1c3.7-0.2,7.1,1.6,9.1,4.7 L292.4,26.7z M291.7,40.6c0-5.5-3.2-9.3-8.1-9.3s-8.1,3.8-8.1,9.2s3.2,9.2,8.1,9.2S291.7,45.9,291.7,40.6z"/> <path class="st1" d="M301.9,40.7c0-8.6,5.5-14.3,13.7-14.3c8,0,13.4,5.1,13.6,13.3c0,0.7-0.1,1.5-0.2,2.2h-21v0.4 c0.2,4.7,3.1,7.8,7.8,7.8c3.6,0,6.2-1.8,7-4.9h5.9c-1,5.5-5.7,9.7-12.6,9.7C307.4,54.8,301.9,49.2,301.9,40.7z M323.1,37.6 c-0.5-4.1-3.4-6.5-7.5-6.5c-3.8-0.1-7,2.7-7.4,6.5H323.1z"/> <path class="st1" d="M337.8,45.3c0.2,2.9,2.7,5,7,5c3.6,0,6-1.4,6-3.6c0-3-2.6-3.2-6.9-3.8c-6.4-0.8-11.4-2.1-11.4-7.9 c0-5.3,4.7-8.7,11.4-8.6c6.9,0,11.7,3.1,12.1,8.9h-5.8c-0.3-2.6-2.7-4.4-6.2-4.4s-5.8,1.4-5.8,3.7c0,2.6,2.7,2.9,6.7,3.4 c6.4,0.8,11.5,2.1,11.5,8.3c0,5.3-5,8.7-11.8,8.7c-7.5,0-12.6-3.5-12.7-9.5L337.8,45.3z"/> <path class="st1" d="M379.9,26.7h5.9v27.9h-5.2l-0.6-3.5c-2.1,2.6-5.3,4-8.6,3.9c-5.9,0-11-3.2-11-12.7V26.7h5.9v14.9 c0,5.4,2.2,8.2,6.5,8.2c4.5,0,7.2-3.4,7.2-9.1L379.9,26.7z"/> <path class="st1" d="M417.2,39v15.5h-5.9v-15c0-5.3-2.2-8.1-6.6-8.1c-4.7,0-7.5,3.4-7.5,9.1v14h-5.9V26.7h5.1l0.6,3.6 c1.7-2.2,4.4-4,8.9-4C412.2,26.3,417.2,29.7,417.2,39z"/> <path class="st1" d="M443.4,16.4h5.9v38.1h-5.1l-0.7-4.2c-2.1,2.9-5.5,4.6-9.1,4.5c-7.6,0-13.2-5.3-13.2-14.2 c0-8.6,5.6-14.2,13.2-14.2c3.5-0.2,6.9,1.4,9,4.2L443.4,16.4z M443.4,40.7c0-5.5-3.2-9.4-8.1-9.4s-8.1,3.8-8.1,9.2s3.2,9.3,8.1,9.3 S443.5,46.1,443.4,40.7L443.4,40.7z"/> <path class="st1" d="M179.1,99.2c0.3,4.4,3.8,7.4,9.1,7.4c4.5,0,7.8-2,7.8-5.7c0-4-4-4.9-10-6c-6.3-1.1-12.3-3.1-12.3-10.7 c0-6.6,5.4-11.2,13.6-11.2c8.7,0,14.1,4.7,14.4,11.8h-6.2c-0.5-3.9-3.5-6.5-8.2-6.5c-4.3,0-7.3,1.8-7.3,5.4c0,3.9,3.9,4.7,9.9,5.8 c6.3,1.1,12.4,3.2,12.4,10.7c0,6.8-5.7,11.6-14.1,11.6c-9.5,0-15.2-5.2-15.4-12.8L179.1,99.2z"/> <path class="st1" d="M235.1,97.7c0,8.6-5.6,14.2-13.2,14.2c-4.3,0-7.3-1.7-9-4.2v14.8h-5.8V83.8h5.1l0.7,4.1 c2.1-2.9,5.5-4.6,9.1-4.5C229.6,83.5,235.1,88.8,235.1,97.7z M229.1,97.7c0-5.5-3.3-9.2-8.2-9.2s-8.1,3.8-8.1,9.1 c0,5.6,3.2,9.4,8.1,9.4S229.2,103.1,229.1,97.7L229.1,97.7z"/> <path class="st1" d="M265.8,106.5v5.1h-3.1c-3.8,0-5.1-1.7-5.1-4.5c-2,3.1-5.5,5-9.2,4.8c-6.1,0-10.3-3-10.3-8.2 c0-5.7,4.1-8.9,11.9-8.9h7v-1.7c0-3.1-2.2-5-6.1-5c-3.5,0-5.8,1.6-6.3,4.1h-5.7c0.6-5.4,5.3-8.8,12.3-8.8c7.4,0,11.6,3.5,11.6,10.1 v11.2c0,1.4,0.6,1.8,1.8,1.8L265.8,106.5z M257,99.2h-7.3c-3.6,0-5.6,1.4-5.6,4.2c0,2.3,1.9,4,5.2,4c4.9,0,7.7-2.9,7.8-7.2L257,99.2 z"/> <path class="st1" d="M284.6,83.8v5.5H282c-5.2,0-6.9,4.1-6.9,8.4v14h-5.9V83.8h5.2l0.6,4.2c1.4-2.3,3.6-4.2,8.2-4.2H284.6z"/> <path class="st1" d="M285.8,97.8c0-8.6,5.5-14.3,13.7-14.3c8,0,13.4,5.1,13.6,13.3c0,0.7-0.1,1.5-0.2,2.2h-21v0.4 c0.2,4.7,3.1,7.8,7.8,7.8c3.6,0,6.2-1.8,7-4.9h5.9c-1,5.5-5.7,9.7-12.6,9.7C291.3,111.9,285.8,106.3,285.8,97.8z M307,94.7 c-0.5-4.1-3.4-6.5-7.5-6.5c-3.8-0.1-7,2.7-7.4,6.5H307z"/> <path class="st1" d="M345.6,97.7c0,8.5-5.5,14.2-13.2,14.2c-4.4,0-7.4-1.8-9.1-4.3l-0.7,4h-5.1V73.6h5.9v14.4c2.1-2.9,5.4-4.6,9-4.5 C340,83.5,345.6,88.7,345.6,97.7z M339.6,97.7c0-5.4-3.3-9.2-8.2-9.2s-8.1,3.8-8.1,9.2s3.2,9.3,8.1,9.3S339.6,103.2,339.6,97.7 L339.6,97.7z"/> <path class="st1" d="M376.3,106.5v5.1h-3.1c-3.8,0-5.1-1.7-5.1-4.5c-2,3.1-5.5,5-9.2,4.8c-6.1,0-10.3-3-10.3-8.2 c0-5.7,4.1-8.9,11.9-8.9h7v-1.7c0-3.1-2.2-5-6.1-5c-3.5,0-5.8,1.6-6.3,4.1h-5.8c0.6-5.4,5.3-8.8,12.3-8.8c7.4,0,11.6,3.5,11.6,10.1 v11.2c0,1.4,0.6,1.8,1.8,1.8L376.3,106.5z M367.5,99.2h-7.3c-3.6,0-5.6,1.4-5.6,4.2c0,2.3,2,4,5.2,4c4.9,0,7.7-2.9,7.8-7.2V99.2z"/> <path class="st1" d="M405.5,96.1v15.5h-5.9v-15c0-5.3-2.2-8.1-6.6-8.1c-4.7,0-7.5,3.4-7.5,9.1v14h-5.9V83.8h5.1l0.6,3.6 c1.8-2.2,4.4-4,8.9-4C400.5,83.5,405.5,86.8,405.5,96.1z"/> <path class="st1" d="M410.8,73.6h5.9v23.7l12.6-13.5h6.9L425.7,95l11.1,16.6h-7l-8.2-12.3l-5,5.2v7.1h-5.9L410.8,73.6z"/> </svg>