<?xml version="1.0" encoding="UTF-8"?> <!-- Generator: Adobe Illustrator 25.2.3, SVG Export Plug-In . SVG Version: 6.00 Build 0) --> <svg xmlns="http://www.w3.org/2000/svg" xmlns:xlink="http://www.w3.org/1999/xlink" version="1.1" id="Layer_1" x="0px" y="0px" viewBox="0 0 287.1 135.1" style="enable-background:new 0 0 287.1 135.1;" xml:space="preserve"> <style type="text/css"> .st0{fill:#215AA8;} </style> <polygon points="217.1,78 217.1,63.3 214,63.3 214,69.1 207.3,69.1 207.3,63.3 204.2,63.3 204.2,63.3 203.1,63.3 203.1,63.5 204.1,65.2 204.2,65.3 204.2,78 207.3,78 207.3,72.1 214,72.1 214,78 "></polygon> <path d="M215.4,101.1h1.4v-4.9l3.7-6.2h-1.6l-2.8,4.7l-2.8-4.7h-1.6l3.6,6.1L215.4,101.1L215.4,101.1z M209.1,95.6 c0,2.4-1.8,4.3-4.2,4.3c-0.8,0-1.5-0.2-2.1-0.6l5-6.8C208.6,93.3,209.1,94.4,209.1,95.6 M200.6,95.6c0-2.4,1.8-4.3,4.2-4.3 c0.8,0,1.6,0.2,2.2,0.6l-5,6.9C201.1,98.1,200.6,96.9,200.6,95.6 M199.2,95.6c0,1.8,0.8,3.4,2,4.4l-0.7,0.9l0.7,0.5l0.7-0.9 c0.9,0.5,1.9,0.8,3,0.8c3.2,0,5.7-2.4,5.7-5.7c0-1.8-0.7-3.3-1.9-4.3l0.8-1l-0.8-0.5l-0.7,1c-0.9-0.5-1.9-0.8-3-0.8 C201.6,90,199.2,92.4,199.2,95.6 M191.1,101.1l3.5-8.4v8.4h1.4v-11h-1.6l-3.9,9.3l-3.9-9.3h-1.7v11h1.4v-8.4l3.6,8.4H191.1z M179.8,93.3c0,1.2-0.9,1.9-2,1.9h-1.9v-3.8h1.9C178.9,91.4,179.8,92.1,179.8,93.3 M174.5,101.1h1.4v-4.6h1.2c1.4,0,2.8,1.9,3.3,4.6 h1.4c-0.4-2.6-1.5-4.5-2.9-5.1c1.3-0.3,2.3-1.2,2.3-2.8c0-1.9-1.4-3.1-3.5-3.1h-3.3v11H174.5z M166.9,91.9l1.8,4.8h-3.5L166.9,91.9z M170.3,101.1h1.6l-4.1-11h-1.6l-4.1,11h1.6l1.1-3.1h4.5L170.3,101.1z M153.3,101.1h1.4v-3.6l1.4-1.8l2.9,5.3h1.7l-3.6-6.5l3.4-4.5 h-1.7l-4.1,5.4V90h-1.4L153.3,101.1L153.3,101.1z"></path> <polygon points="161.6,78 161.6,75.1 156.3,75.1 156.3,63.3 153.3,63.3 153.3,78 "></polygon> <path d="M172.7,63.3v9.4c0,1.5-1,2.5-2.5,2.5c-1.6,0-2.5-1-2.5-2.5v-9.4h-3.1v9.1c0,3.6,2.2,5.8,5.6,5.8s5.6-2.2,5.6-5.8v-9.1H172.7 z"></path> <polygon points="194.4,78 197.5,78 197.5,66.3 201,66.3 201,63.3 190.8,63.3 190.8,66.3 194.4,66.3 "></polygon> <path d="M228.5,71.9h-3.2l1.6-4.6L228.5,71.9z M234.1,78l-5.4-14.7h-3.4L219.9,78h3.4l1.1-3.1h5.2l1.1,3.1H234.1z"></path> <polygon points="239.7,78 243.1,78 248.5,63.3 245.1,63.3 241.4,74.5 237.7,63.3 234.2,63.3 "></polygon> <polygon points="260.4,78 263.4,78 263.4,63.3 260.4,63.3 260.4,72.7 253.9,63.3 250.3,63.3 250.3,63.6 251.3,65.2 251.3,78 254.4,78 254.4,69.5 "></polygon> <path d="M178.5,48.8h-3.2l1.6-4.6L178.5,48.8z M184,54.9l-5.4-14.7h-3.4l-5.4,14.7h3.4l1.1-3.1h5.2l1.1,3.1H184z"></path> <path d="M194.4,40.2v9.4c0,1.5-1,2.5-2.5,2.5c-1.6,0-2.5-1-2.5-2.5v-9.4h-3.1v9.1c0,3.6,2.2,5.8,5.6,5.8s5.6-2.2,5.6-5.8v-9.1H194.4 z"></path> <path d="M212.3,40.7c-1-0.4-2.5-0.7-4-0.7c-4.4,0-7.6,3.3-7.6,7.6c0,4.3,3.1,7.6,7.3,7.6c4.7,0,7.2-3.4,7.2-7.2 c0-0.7-0.1-1.6-0.2-2.1h-6.9v2.8h3.8c0,0.1,0,0.2,0,0.3c0,1.6-1.4,3.2-3.8,3.2c-2.5,0-4.3-2-4.3-4.5c0-2.6,1.9-4.5,4.4-4.5 c1.6,0,3,0.4,4,0.9v-3.4H212.3z"></path> <polygon points="226.8,54.9 226.8,51.9 221.5,51.9 221.5,49 226.4,49 226.4,46 221.5,46 221.5,43.2 226.8,43.2 226.8,40.2 218.5,40.2 218.5,54.9 "></polygon> <path d="M238.3,40.7c-0.9-0.4-2-0.7-3.2-0.7c-3.8,0-5.1,2.2-5.1,4.3c0,1.7,0.6,2.9,2.5,4l2,1.2c0.8,0.5,1.2,0.9,1.2,1.4 c0,0.8-0.6,1.4-1.8,1.4c-1.4,0-2.8-0.6-3.6-1.3v3.4c0.9,0.4,2.3,0.8,3.7,0.8c3.4,0,4.9-2.1,4.9-4.4c0-1.6-0.8-2.9-2.7-4.1l-1.9-1.2 c-0.7-0.4-1.1-0.9-1.1-1.3c0-0.8,0.6-1.3,1.8-1.3c1.1,0,2.4,0.5,3.2,1.1v-3.3H238.3z"></path> <path d="M250.5,40.2v9.4c0,1.5-1,2.5-2.5,2.5c-1.6,0-2.5-1-2.5-2.5v-9.4h-3.1v9.1c0,3.6,2.2,5.8,5.6,5.8s5.6-2.2,5.6-5.8v-9.1H250.5 z"></path> <polygon points="266.9,54.9 270,54.9 270,40.2 266.9,40.2 266.9,49.6 260.5,40.2 256.9,40.2 256.9,40.4 257.9,42.1 257.9,54.9 261,54.9 261,46.4 "></polygon> <path d="M283.9,47.6c0,2.5-1.4,4.4-4.1,4.4h-2.4v-8.8h2.4C282.5,43.2,283.9,45.1,283.9,47.6 M287.1,47.6c0-4.3-2.8-7.3-7.3-7.3h-5.4 V55h5.4C284.3,54.9,287.1,51.9,287.1,47.6"></path> <polygon points="167,54.9 167,40.2 163.9,40.2 163.9,46 157.2,46 157.2,40.2 154.2,40.2 154.2,40.2 153,40.2 153,40.4 154.1,42.1 154.2,42.2 154.2,54.9 157.2,54.9 157.2,49 163.9,49 163.9,54.9 "></polygon> <polygon points="188.3,66.3 188.3,63.3 182.6,63.3 180,63.3 178.9,63.3 178.9,63.6 179.9,65.2 180,65.2 180,78 183.1,78 183.1,72.7 187.9,72.7 187.9,69.8 183.1,69.8 183.1,66.3 "></polygon> <path class="st0" d="M94.7,119.6c-6.8-4.9-17.4-10.8-29.3-10.8c-13.2,0-24.1,6.7-29.9,11.2c-11.1-6.6-19.9-16.8-24.6-28.9h107.7 C114,103,105.5,113,94.7,119.6 M36.5,120.5c5.8-4.4,16.3-10.7,29-10.7c11.5,0,21.7,5.5,28.4,10.3c-8.5,5-18.5,7.9-29,7.9 C54.5,128,44.8,125.3,36.5,120.5 M64.8,12.5c28.4,0,52.1,20.7,56.9,47.8c-13,9.8-33,21.4-55.6,21.4C40.2,81.7,19,67.5,8.3,58.6 C13.7,32.2,36.9,12.5,64.8,12.5 M7,70.2c0-3.6,0.4-7.2,1-10.6c11,9,32.2,23,58.1,23c22.6,0,42.7-11.4,55.8-21.3 c0.4,2.9,0.7,5.9,0.7,8.9c0,7-1.2,13.6-3.5,19.8H10.5C8.2,83.9,7,77.2,7,70.2 M64.8,5.5C29.1,5.5,0,34.6,0,70.3s29.1,64.8,64.8,64.8 s64.8-29.1,64.8-64.8C129.5,34.5,100.5,5.5,64.8,5.5"></path> <path class="st0" d="M121.8,17.7c4.9-0.1,8.8-4.1,8.7-9c-0.1-4.9-4.1-8.8-9-8.7s-8.8,4.1-8.7,9C112.9,13.9,116.9,17.8,121.8,17.7"></path> <path class="st0" d="M67.7,72.8c1.4-1.6,1.3-4-0.3-5.5c-1.6-1.4-4-1.3-5.5,0.3c-1.4,1.6-23.1,30.7-23.1,30.7L67.7,72.8z"></path> </svg> 