<?xml version="1.0" encoding="UTF-8"?>
<svg xmlns="http://www.w3.org/2000/svg" id="Layer_1" data-name="Layer 1" viewBox="0 0 287.1 135.1"><polygon points="217.1 78 217.1 63.3 214 63.3 214 69.1 207.3 69.1 207.3 63.3 204.2 63.3 204.2 63.3 203.1 63.3 203.1 63.5 204.1 65.2 204.2 65.3 204.2 78 207.3 78 207.3 72.1 214 72.1 214 78 217.1 78"/><path d="M215.4,101.1h1.4V96.2l3.7-6.2h-1.6l-2.8,4.7L213.3,90h-1.6l3.6,6.1v5Zm-6.3-5.5a4.18,4.18,0,0,1-4.2,4.3,3.7,3.7,0,0,1-2.1-.6l5-6.8a4.39,4.39,0,0,1,1.3,3.1m-8.5,0a4.18,4.18,0,0,1,4.2-4.3,4,4,0,0,1,2.2.6l-5,6.9a4,4,0,0,1-1.4-3.2m-1.4,0a5.73,5.73,0,0,0,2,4.4l-.7.9.7.5.7-.9a6.11,6.11,0,0,0,3,.8,5.57,5.57,0,0,0,5.7-5.7,5.44,5.44,0,0,0-1.9-4.3l.8-1-.8-.5-.7,1a6.11,6.11,0,0,0-3-.8,5.52,5.52,0,0,0-5.8,5.6m-8.1,5.5,3.5-8.4v8.4H196v-11h-1.6l-3.9,9.3-3.9-9.3h-1.7v11h1.4V92.7l3.6,8.4Zm-11.3-7.8a1.86,1.86,0,0,1-2,1.9h-1.9V91.4h1.9a1.86,1.86,0,0,1,2,1.9m-5.3,7.8h1.4V96.5h1.2c1.4,0,2.8,1.9,3.3,4.6h1.4c-.4-2.6-1.5-4.5-2.9-5.1a2.73,2.73,0,0,0,2.3-2.8c0-1.9-1.4-3.1-3.5-3.1h-3.3v11Zm-7.6-9.2,1.8,4.8h-3.5Zm3.4,9.2h1.6l-4.1-11h-1.6l-4.1,11h1.6l1.1-3.1h4.5Zm-17,0h1.4V97.5l1.4-1.8L159,101h1.7l-3.6-6.5,3.4-4.5h-1.7l-4.1,5.4V90h-1.4v11.1Z"/><polygon points="161.6 78 161.6 75.1 156.3 75.1 156.3 63.3 153.3 63.3 153.3 78 161.6 78"/><path d="M172.7,63.3v9.4a2.36,2.36,0,0,1-2.5,2.5,2.31,2.31,0,0,1-2.5-2.5V63.3h-3.1v9.1c0,3.6,2.2,5.8,5.6,5.8s5.6-2.2,5.6-5.8V63.3Z"/><polygon points="194.4 78 197.5 78 197.5 66.3 201 66.3 201 63.3 190.8 63.3 190.8 66.3 194.4 66.3 194.4 78"/><path d="M228.5,71.9h-3.2l1.6-4.6Zm5.6,6.1-5.4-14.7h-3.4L219.9,78h3.4l1.1-3.1h5.2l1.1,3.1Z"/><polygon points="239.7 78 243.1 78 248.5 63.3 245.1 63.3 241.4 74.5 237.7 63.3 234.2 63.3 239.7 78"/><polygon points="260.4 78 263.4 78 263.4 63.3 260.4 63.3 260.4 72.7 253.9 63.3 250.3 63.3 250.3 63.6 251.3 65.2 251.3 78 254.4 78 254.4 69.5 260.4 78"/><path d="M178.5,48.8h-3.2l1.6-4.6Zm5.5,6.1-5.4-14.7h-3.4l-5.4,14.7h3.4l1.1-3.1h5.2l1.1,3.1Z"/><path d="M194.4,40.2v9.4a2.36,2.36,0,0,1-2.5,2.5,2.31,2.31,0,0,1-2.5-2.5V40.2h-3.1v9.1c0,3.6,2.2,5.8,5.6,5.8s5.6-2.2,5.6-5.8V40.2Z"/><path d="M212.3,40.7a11.47,11.47,0,0,0-4-.7,7.41,7.41,0,0,0-7.6,7.6,7.29,7.29,0,0,0,7.3,7.6,6.87,6.87,0,0,0,7.2-7.2,12.48,12.48,0,0,0-.2-2.1h-6.9v2.8h3.8V49c0,1.6-1.4,3.2-3.8,3.2a4.5,4.5,0,0,1,.1-9,9.09,9.09,0,0,1,4,.9V40.7Z"/><polygon points="226.8 54.9 226.8 51.9 221.5 51.9 221.5 49 226.4 49 226.4 46 221.5 46 221.5 43.2 226.8 43.2 226.8 40.2 218.5 40.2 218.5 54.9 226.8 54.9"/><path d="M238.3,40.7a7.93,7.93,0,0,0-3.2-.7c-3.8,0-5.1,2.2-5.1,4.3a4.19,4.19,0,0,0,2.5,4l2,1.2c.8.5,1.2.9,1.2,1.4,0,.8-.6,1.4-1.8,1.4a5.8,5.8,0,0,1-3.6-1.3v3.4a9.65,9.65,0,0,0,3.7.8c3.4,0,4.9-2.1,4.9-4.4,0-1.6-.8-2.9-2.7-4.1l-1.9-1.2c-.7-.4-1.1-.9-1.1-1.3,0-.8.6-1.3,1.8-1.3a5.86,5.86,0,0,1,3.2,1.1V40.7Z"/><path d="M250.5,40.2v9.4a2.36,2.36,0,0,1-2.5,2.5,2.31,2.31,0,0,1-2.5-2.5V40.2h-3.1v9.1c0,3.6,2.2,5.8,5.6,5.8s5.6-2.2,5.6-5.8V40.2Z"/><polygon points="266.9 54.9 270 54.9 270 40.2 266.9 40.2 266.9 49.6 260.5 40.2 256.9 40.2 256.9 40.4 257.9 42.1 257.9 54.9 261 54.9 261 46.4 266.9 54.9"/><path d="M283.9,47.6c0,2.5-1.4,4.4-4.1,4.4h-2.4V43.2h2.4c2.7,0,4.1,1.9,4.1,4.4m3.2,0c0-4.3-2.8-7.3-7.3-7.3h-5.4V55h5.4c4.5-.1,7.3-3.1,7.3-7.4"/><polygon points="167 54.9 167 40.2 163.9 40.2 163.9 46 157.2 46 157.2 40.2 154.2 40.2 154.2 40.2 153 40.2 153 40.4 154.1 42.1 154.2 42.2 154.2 54.9 157.2 54.9 157.2 49 163.9 49 163.9 54.9 167 54.9"/><polygon points="188.3 66.3 188.3 63.3 182.6 63.3 180 63.3 178.9 63.3 178.9 63.6 179.9 65.2 180 65.2 180 78 183.1 78 183.1 72.7 187.9 72.7 187.9 69.8 183.1 69.8 183.1 66.3 188.3 66.3"/><path d="M94.7,119.6c-6.8-4.9-17.4-10.8-29.3-10.8-13.2,0-24.1,6.7-29.9,11.2A58.48,58.48,0,0,1,10.9,91.1H118.6a58.07,58.07,0,0,1-23.9,28.5m-58.2.9c5.8-4.4,16.3-10.7,29-10.7,11.5,0,21.7,5.5,28.4,10.3a57.28,57.28,0,0,1-29,7.9,56.5,56.5,0,0,1-28.4-7.5m28.3-108a58,58,0,0,1,56.9,47.8c-13,9.8-33,21.4-55.6,21.4C40.2,81.7,19,67.5,8.3,58.6A57.61,57.61,0,0,1,64.8,12.5M7,70.2A61.44,61.44,0,0,1,8,59.6c11,9,32.2,23,58.1,23,22.6,0,42.7-11.4,55.8-21.3a65.41,65.41,0,0,1,.7,8.9A56.49,56.49,0,0,1,119.1,90H10.5A56.09,56.09,0,0,1,7,70.2M64.8,5.5a64.8,64.8,0,1,0,64.8,64.8A64.91,64.91,0,0,0,64.8,5.5"/><path d="M121.8,17.7a8.85,8.85,0,1,0-9-8.7,8.84,8.84,0,0,0,9,8.7"/><path d="M67.7,72.8a3.89,3.89,0,0,0-5.8-5.2c-1.4,1.6-23.1,30.7-23.1,30.7Z"/></svg>