<?xml version="1.0" encoding="UTF-8"?>
<!-- Generator: Adobe Illustrator 25.4.1, SVG Export Plug-In . SVG Version: 6.00 Build 0) -->
<svg xmlns="http://www.w3.org/2000/svg" xmlns:xlink="http://www.w3.org/1999/xlink" version="1.1" id="Layer_1" x="0px" y="0px" viewBox="0 0 297.2 141" style="enable-background:new 0 0 297.2 141;" xml:space="preserve"> <style type="text/css"> .st0{fill:#FFFFFF;} .st1{fill:none;} </style> <path class="st0" d="M112.2,85.2c0,30.8-25.1,55.8-56.1,55.8S0,116,0,85.2V0h112.2V85.2z"/> <path d="M111,85c0,30.3-24.6,54.9-54.9,54.9S1.2,115.3,1.2,85V1.2h109.9L111,85L111,85z"/> <polygon class="st0" points="73.3,55.7 81.2,64.8 56.1,93.5 48.2,84.4 40.5,93.2 56.1,111 96.6,64.8 81,46.9 "/> <polygon class="st0" points="31,64.8 56.1,36 64.1,45.1 71.7,36.4 56.1,18.5 15.6,64.8 31.3,82.6 39,73.8 "/> <g> <path class="st1" d="M64.1,82.6l-23.6-27c2.5-2.8,5.2-6,7.7-8.8l23.6,27C69.3,76.7,66.5,79.8,64.1,82.6z"/> <path class="st0" d="M64.6,63.9l45.3-51.8c0-5.6,0-9.3,0-9.8c-0.3,0-2.8,0-6.8,0L56.9,55.1L64.6,63.9z"/> <path class="st0" d="M47.7,65.6l-39,44.6c1.9,3.5,4.1,6.8,6.8,9.8l40-45.7L47.7,65.6z"/> <path class="st0" d="M40.5,55.7l23.6,27c2.5-2.8,5.2-6,7.7-8.8l-23.6-27C45.7,49.7,42.9,52.8,40.5,55.7z"/> <path class="st0" d="M39,36.4L9.2,2.3c-4,0-6.5,0-6.8,0c0,0.5,0,4.2,0,9.8l28.9,33.1L39,36.4z"/> <path class="st0" d="M73.3,93.2l23.6,26.9c2.6-3,4.9-6.3,6.8-9.8L81,84.4L73.3,93.2z"/> </g> <g> <path d="M129.2,39.3c0-2.2-1.2-2.6-3.7-2.8V36h7v9.5l10.2-9.5h2.5l-9.9,9.2l11.3,12.1h-3.9l-10.1-10.8h-0.1v10.8h-3.2L129.2,39.3z"/> <path d="M154.8,39.7c0.3-0.6,0.6-1.2,0.6-1.7c0-0.8-1-1.1-2.9-1.5V36h6.4l9.6,21.3h-3.6l-3.1-7.1h-9.4l-2.9,7.1h-2.3L154.8,39.7z M152.9,49h8.5l-4.2-9.7L152.9,49z"/> <path d="M172.1,39.3c0-2.2-0.6-2.3-3.8-2.8V36h10.5c4.5,0,8.3,0.9,8.3,5.5c0,3.6-3.2,4.8-6.4,5.2l7.5,10.7h-3.5l-7.4-10.5h-1.9 v10.5h-3.2V39.3H172.1z M175.4,45.6h1c2.6,0,7.2,0,7.2-4.4c0-3-2.6-3.9-5.6-3.9c-2.5,0-2.6,0.3-2.6,2.1L175.4,45.6L175.4,45.6z"/> <path d="M193,39.7c0-2.5-0.4-2.6-3.7-3.2V36h8.2l7.4,18.2h0.1l7.4-18.2h4.5v21.3h-3.2V37.7h-0.1l-7.8,19.6h-3.1l-7.8-19.6h-0.1 v19.6h-1.9V39.7H193z"/> <path d="M224.2,54.9c-1.4-1.6-2.5-3.7-2.5-8.2c0-5.9,2.8-11.1,9.8-11.1c2.8,0,4.5,0.6,5.7,1.2l1.6-2.2l1.2,0.6l-1.7,2.3 c1.6,1.7,3.1,3.7,3.1,9.1c0,6.1-3.1,10.9-9.9,10.9c-3.4,0-5.3-1.1-6.3-1.9l-1.8,2.5l-1.2-0.5L224.2,54.9z M236,38.6 c-0.8-0.8-1.9-1.7-4.5-1.7c-5.2,0-6.1,6.3-6.1,9.8c0,3.3,0.3,4.3,0.6,5.7L236,38.6z M226.7,53.7c0.4,0.6,1.8,2.7,4.9,2.7 c5.4,0,6.1-5.9,6.1-9.8c0-3.6-0.4-5.1-0.9-6.9L226.7,53.7z"/> <path d="M251.3,47.3l-5.3-7.6c-1.5-2.2-1.9-3-4.5-3.2V36h5.6l6.5,9.3l6.7-9.3h2.5l-8.2,11.3v10h-3.2v-10H251.3z"/> </g> <g> <path d="M129.2,74.3c0-2.2-1.2-2.6-3.7-2.8V71h7v9.5l10.2-9.5h2.5l-9.9,9.2l11.3,12.1h-3.9l-10.2-10.9h-0.1v10.8h-3.2V74.3z"/> <path d="M148.4,81.6c0-6.8,2.3-11,9.8-11s9.7,4.7,9.7,11c0,6.7-2.3,11-9.7,11C150.5,92.6,148.4,87.9,148.4,81.6z M164.2,81.6 c0-4-0.3-9.8-6-9.8s-6.1,5.4-6.1,9.8c0,4,0.3,9.8,6.1,9.8C163.8,91.3,164.2,85.9,164.2,81.6z"/> <path d="M173.6,74.7c0-2.5-0.4-2.6-3.7-3.2V71h8.2l7.4,18.2h0.1L193,71h4.5v21.3h-3.2V72.7h-0.1l-7.8,19.6h-2.9l-7.8-19.6h-0.1 v19.6h-1.9L173.6,74.7L173.6,74.7z"/> <path d="M204.1,74.7c0-2.5-0.4-2.6-3.7-3.2V71h8.2l7.4,18.2h0.1l7.4-18.2h4.5v21.3h-3.2V72.7h-0.1l-7.8,19.6H214l-7.8-19.6h-0.1 v19.6h-1.9L204.1,74.7L204.1,74.7z"/> <path d="M251.5,84.3c0,3.9,0,8.2-8.4,8.2c-8,0-8.6-3.7-8.6-8.1v-9.8c0-2.2-1.2-2.9-3.7-3.2v-0.5h7v13.6c0,2.3,0,6.9,5.4,6.9 c6.1,0,6.1-3.6,6.1-6.6V71h2.2V84.3z"/> <path d="M258.1,74.7c0-2.5-0.5-2.8-3.7-3.2V71h7.5l11.7,17.3h0.1V71h1.9v21.3h-2.9l-12.6-18.6H260v18.6h-1.9V74.7z"/> <path d="M282.5,74.2c0-1.8-0.5-2.4-3.8-2.8v-0.5h17.6l0.2,3.9h-1.2c-0.4-1.6-0.3-2.6-3.4-2.6H288c-2.1,0-2.3,0.4-2.3,2.1v6.2h4.7 c3.1,0,3.4-1.1,3.7-2.6h0.9v6.6h-0.9c-0.4-1.8-0.5-2.7-3.7-2.7h-4.7v7.4c0,1.8,0.3,1.8,3.1,1.8h4c2.5,0,2.7-0.7,3.2-3.1h1.2 l-0.3,4.3h-14.5L282.5,74.2L282.5,74.2z"/> </g> </svg>