<?xml version="1.0" encoding="UTF-8"?>
<!-- Generator: Adobe Illustrator 25.4.1, SVG Export Plug-In . SVG Version: 6.00 Build 0) -->
<svg xmlns="http://www.w3.org/2000/svg" xmlns:xlink="http://www.w3.org/1999/xlink" version="1.1" id="Layer_1" x="0px" y="0px" viewBox="0 0 253.8 64.5" style="enable-background:new 0 0 253.8 64.5;" xml:space="preserve"> <g> <g> <polygon points="145.4,31.6 147.7,31 147.7,25.3 145.4,25.3 "/> <path d="M13.1,26.1L0,63.9h6.3l2.9-8.9H24l2.9,8.9h6.9L20.8,26.1H13.1z M11,49.5l5.7-16.6l5.7,16.6H11z"/> <path d="M91.6,35.5c-3.4,0-6.2,1.4-7.7,4c-1.4-2.7-4.2-4-7.6-4c-3.1,0-5.6,1.1-7.2,3.2l-0.8-2.7h-4.6v27.9h5.9V45.4 c0-3.1,2-4.7,4.8-4.7c2.8,0,4.7,1.4,4.7,4.5v18.7h5.9V45.4c0-3.1,2-4.7,4.9-4.7c2.8,0,4.7,1.4,4.7,4.5v18.7h5.9V45.4 C100.6,38.8,97.1,35.5,91.6,35.5z"/> <path d="M52,38.2c-1.8-1.8-4.3-2.7-7.4-2.7c-6.2,0-10.1,3.7-10.1,10.8v7.4c0,7,4,10.8,10.2,10.8c3.4,0,6.2-1.2,8-3.4l0.7,2.9h4.6 v-40H52V38.2z M52,54c0,3.5-2.3,5.3-5.8,5.3c-3.5,0-5.7-1.8-5.7-5.2v-8.2c0-3.4,2.2-5.2,5.7-5.2c3.5,0,5.8,1.8,5.8,5.3V54z"/> <rect x="145.4" y="36.6" width="2.4" height="27.3"/> <path d="M168.8,38.7v-2.1h-9.2v-8.9l-2.4,0.7v8.2h-5.9v2.1h5.9v15.2c0,7.7,1.2,12,11.5,10.1v-2c-7.9,1.3-9.2-1.1-9.2-7.6V38.7 H168.8z"/> <polygon points="122.7,51 109.4,26.1 107,26.1 107,63.9 109.5,63.9 109.5,31 122.7,55.8 135.8,31 135.8,63.9 138.3,63.9 138.3,26.1 135.9,26.1 "/> </g> <polygon points="250.7,0.7 251.3,0.7 180.6,21.4 204.8,40.2 253.8,0 152.8,0 170.8,13.9 "/> </g> </svg>