<?xml version="1.0" encoding="UTF-8"?>
<!-- Generator: Adobe Illustrator 25.4.1, SVG Export Plug-In . SVG Version: 6.00 Build 0) -->
<svg xmlns="http://www.w3.org/2000/svg" xmlns:xlink="http://www.w3.org/1999/xlink" version="1.1" id="Layer_1" x="0px" y="0px" viewBox="0 0 320.1 49.6" style="enable-background:new 0 0 320.1 49.6;" xml:space="preserve"> <style type="text/css"> .st0{fill:#011E41;} .st1{fill:#EC6335;} </style> <path class="st0" d="M209.4,0c-5.6,0-10.2,4.3-10.2,9.6h10.2h22.5c5.6,0,10.2-4.3,10.2-9.6h-10.2H209.4z"/> <rect x="253.8" class="st0" width="61.8" height="9.7"/> <path class="st0" d="M66.4,0c-6.8,0-12.3,5.2-12.3,11.6v21.2c0,6.4,5.5,11.6,12.3,11.6H93v-9.6H66.4c-1.1,0-2-0.9-2-1.9V11.5 c0-1.1,0.9-1.9,2-1.9h20.4C92.4,9.6,97,5.3,97,0H86.8H66.4z"/> <path class="st0" d="M14.3,0C8.7,0,4.1,4.3,4.1,9.6h10.2h26.6c5.6,0,10.2-4.3,10.2-9.6H40.9H14.3z"/> <path class="st0" d="M33.7,44.3c8.4,0,15.3-6.5,15.3-14.5v-2.9c0-5.3-4.6-9.6-10.2-9.6H14.3H4.1c0,5.3,4.6,9.6,10.2,9.6h24.5v2.9 c0,2.7-2.3,4.8-5.1,4.8H10.2C4.6,34.6,0,38.9,0,44.2h10.2h23.5V44.3z"/> <path class="st0" d="M211.5,44.3h26.6v-9.6h-26.6c-1.1,0-2-0.9-2-1.9V27h10.2c5.6,0,10.2-4.3,10.2-9.6h-10.2h-10.2h-10.2v15.4 C199.2,39.1,204.7,44.3,211.5,44.3"/> <path class="st0" d="M170.6,32.8V9.6c0-5.3-4.6-9.6-10.2-9.6v9.6v23.1c0,6.4,5.5,11.6,12.3,11.6h21.5v-9.6h-21.5 C171.5,34.7,170.6,33.8,170.6,32.8"/> <path class="st0" d="M137.9,0h-24.5c-5.6,0-10.2,4.3-10.2,9.6h10.2h24.5c1.1,0,2,0.9,2,1.9v25.6c0,5.3,4.6,9.6,10.2,9.6v-9.6V11.5 C150.2,5.2,144.7,0,137.9,0"/> <path class="st0" d="M113.4,27h10.2h10.2c0-5.3-4.6-9.6-10.2-9.6h-10.2h-10.2v27h10.2C113.4,44.4,113.4,27,113.4,27z"/> <path class="st1" d="M310,37.9h-11.7c-1.9,0-3.5-1.5-3.5-3.3v-9.9c0-1.8,1.5-3.3,3.5-3.3H310c1.9,0,3.5,1.5,3.5,3.3v9.9 C313.4,36.5,311.9,37.9,310,37.9 M303.5,47l0.1,0.1c2.9,2.7,7.2,3.5,10.2,0.9l-4.5-3.7c0,0,1,0,2.3-0.1c4.5-0.4,8.5-5.2,8.5-9.9 v-9.6v-0.2c-0.3-5.3-4.9-9.5-10.6-9.5h-10.9c-5.6,0-10.3,4.2-10.6,9.5V25v9.2c0,5.5,4.7,10,10.6,10h2.1L303.5,47z"/> <path class="st1" d="M273.3,15.1h-16.1c-3.7,0-6.7,2.8-6.7,6.3h6.7h16.1c0.7,0,1.3,0.6,1.3,1.3v17.5c0,3.5,3,6.3,6.7,6.3v-6.3V22.7 C281.4,18.5,277.7,15.1,273.3,15.1"/> <path class="st1" d="M257.2,32.9h6.7h6.7c0-3.5-3-6.3-6.7-6.3h-6.7h-6.7v17.8h6.7V32.9z"/> </svg>