<?xml version="1.0" encoding="UTF-8"?>
<!-- Generator: Adobe Illustrator 25.4.1, SVG Export Plug-In . SVG Version: 6.00 Build 0) -->
<svg xmlns="http://www.w3.org/2000/svg" xmlns:xlink="http://www.w3.org/1999/xlink" version="1.1" id="Layer_1" x="0px" y="0px" viewBox="0 0 513.8 133.5" style="enable-background:new 0 0 513.8 133.5;" xml:space="preserve"> <style type="text/css"> .st0{fill:none;stroke:#005187;stroke-width:1.5;stroke-miterlimit:10;} .st1{fill:#005187;} .st2{fill:#005187;stroke:#005187;stroke-width:0.4;stroke-miterlimit:10;} </style> <g> <g> <path class="st0" d="M0.8,56h72.3c0,0,0,50.3,0,58.4s-6.5,13-13,13s-38.6,0-45.4,0s-13.9-5.5-13.9-13.6C0.8,105.8,0.8,56,0.8,56z"/> <g> <path class="st1" d="M64.8,67.7c-0.2,0.8-2.1,1.5-3.3,2.1c-0.8,0.4-8.9,5.3-13.5,9c-5.9,4.6-7.8,8.5-9.6,11.2 c-1.5,2.3-5.8,10.8-7.1,13.8c-1.4,3.2-3.8,8.1-5.9,11c-1.9,2.7-3.6,4.5-5.5,5.7c-1.7,1-3,1.3-4.7,1.3c-5.4-0.1-8.9-4.5-9.1-8 c-0.1-1,0-8.5,0-8.5s2.5,0.8,3.3,1.5c0.9,0.7,2.6,1.9,3.6,4.8c0.6,1.8,0.4,5.9,0.5,8.7c4.3-1.3,4.9-7.2,5.2-9.9 c0.3-2.3,0.7-9,0.6-12.1c-0.1-3.2,0.4-13.1,0.7-15.7c-1.9-1.7-3.3-2.5-4.7-3.6c-1.5-1-3.1-1.8-4.3-2.4c-1.1-0.5-3.1-1.3-4.4-1.7 c-0.7-0.2-0.9-0.5-0.4-0.8s3.3-1.7,5.7-2.3c3-0.7,6.3-1.2,13.2,0.3c1.6-1.9,2.8-3.6,5.4-5.7c4.1-3.3,8-4.5,10.2-4.8 c1.8-0.3,4-0.6,6-0.5c2.2,0.1,6.2,0.5,9.4,4c4.5,0.7,5.9,0.9,7.7,1.5C65.2,67.2,64.8,67.7,64.8,67.7z"/> <path class="st1" d="M64.6,81.6c-3.1,0.7-10.9,15.3-12.5,18.8c-1.5,3.2-3.5,7.1-4.8,9.8c-2.7,5.5-7.6,10.1-12.5,11 c-1.9,0.4-5.3,0.7-10.9,0.7c1.1-0.5,1.4-0.6,2.5-1.6c1.6-1.4,4-4.3,10.4-17.9c2.9-6.1,7.7-15.5,12.2-18.1c1.7-1,3.7-1.7,6.1-2 C57.2,82.1,62.7,81.5,64.6,81.6z"/> <path class="st1" d="M68.3,96.6c-1.9,0.5-6.9,9.6-7.9,11.8c-0.9,2-2.2,4.5-3,6.2c-1.3,2.9-4.8,6.3-7.9,6.9 c-1.2,0.2-3.3,0.4-6.9,0.4c0.7-0.3,0.9-0.4,1.6-1c1-0.9,2.5-2.7,6.6-11.3c1.8-3.8,4.8-9.7,7.7-11.4c1.1-0.6,2.4-1.1,3.8-1.2 C63.8,96.8,67.2,96.5,68.3,96.6z"/> </g> <g> <path class="st1" d="M48.3,29.9c0.2,0,0.3,0,0.5,0l0,0l0,0c0.6,0,0.9,0.2,1.6,0.5c0.7-5.9-3.9-9.7-10.6-8c0,0.6,0,0.8,0,1.6 C42.3,23.7,47.2,23.9,48.3,29.9z"/> <path class="st1" d="M50.5,23.9c6.9-0.6,9.4,1.6,10.4,5.9c0.8,0.1,1.9,0.3,2.4,0.8c0.6-11-12.6-8.4-14-8.1 C50.1,23.1,50.2,23.5,50.5,23.9z"/> <path class="st1" d="M24.4,29.9c-0.2,0-0.3,0-0.5,0l0,0l0,0c-0.6,0-0.9,0.2-1.6,0.5c-0.7-5.9,3.9-9.7,10.6-8c0,0.6,0,0.8,0,1.6 C30.2,23.7,25.4,23.9,24.4,29.9z"/> <path class="st1" d="M22.1,23.9c-6.9-0.6-9.4,1.6-10.4,5.9c-0.8,0.1-1.9,0.3-2.4,0.8c-0.6-11,12.6-8.4,14-8.1 C22.6,23.1,22.4,23.5,22.1,23.9z"/> <path class="st1" d="M36.3,29.7L36.3,29.7L36.3,29.7c0.7,0,1.3,0.2,1.8,0.6v-7c-0.5,0.1-1.1,0.2-1.7,0.2c-0.6,0-1.2-0.1-1.7-0.2 v7C35.2,29.9,35.7,29.7,36.3,29.7z"/> <g> <path class="st1" d="M42.2,17.4c0.1-0.3,0.1-0.7,0.1-1s0-0.7-0.1-1h-4.6v-4.7c-0.4-0.1-0.8-0.1-1.2-0.1s-0.8,0-1.2,0.1v4.7h-4.6 c-0.1,0.3-0.1,0.6-0.1,1c0,0.3,0,0.7,0.1,1H42.2z"/> <path class="st1" d="M35.2,9.6c0.3-0.1,0.8-0.1,1.2-0.1s0.8,0,1.2,0.1V5.8h3.8V3.6h-3.8V0h-2.3v3.6h-4v2.2h4L35.2,9.6z"/> <path class="st1" d="M30.9,18.2c0.3,0.8,1.7,4,5.6,4c3.9,0,5.3-3.2,5.5-4H30.9z"/> <path class="st1" d="M34.2,10.9c-0.4,0.2-1.1,0.5-2,1.3c-0.9,0.8-1.3,1.8-1.4,2.3h3.4V10.9z"/> <path class="st1" d="M38.4,14.5h3.5c-0.1-0.4-0.5-1.3-1.2-2.1c-1-1-1.8-1.4-2.2-1.5L38.4,14.5L38.4,14.5z"/> <path class="st1" d="M20.6,36.1c-1.4,0-2.5,1.1-2.5,2.5s1.1,2.5,2.5,2.5l0,0l0,0h0.1h0.9h0.3v0.3c0,0.8-1,1.2-1.4,1.2h-3h-3 c-0.4,0-1.4-0.4-1.4-1.2v-0.3h0.3h0.9h0.1l0,0l0,0c1.4,0,2.5-1.1,2.5-2.5s-1.1-2.5-2.5-2.5h-0.2h-0.1c-0.3,0-0.5-0.3-0.5-0.6 v-0.2c0.2-0.4,0.3-0.9,0.3-1.4c0-1.4-1.1-2.5-2.5-2.5l0,0l0,0l0,0l0,0c-0.7,0-1.3,0.3-1.8,0.8l0,0l0,0l-0.5,0.1 c-0.5,0.4-1.1,0.9-1.4,1.2l0,0c2.1,3.4,4.2,12.1,5.2,17.2h23.4h23.4c1-5.1,3.1-13.7,5.2-17.2l0,0c-0.4-0.3-0.9-0.8-1.4-1.2 l-0.2-0.2l0,0l0,0c-0.5-0.5-1.1-0.8-1.8-0.8l0,0l0,0l0,0l0,0c-1.4,0-2.5,1.1-2.5,2.5c0,0.6,0.1,1.1,0.3,1.4v0.2 c0,0.3-0.2,0.6-0.5,0.6h-0.1h-0.2c-1.4,0-2.5,1.1-2.5,2.5s1.1,2.5,2.5,2.5l0,0l0,0h0.1h0.9h0.3v0.3c0,0.8-1,1.2-1.4,1.2h-3h-3 c-0.4,0-1.4-0.3-1.4-1.2V41h0.3h0.9h0.1l0,0l0,0c1.4,0,2.5-1.1,2.5-2.5S53.8,36,52.4,36h-0.2h-0.1c-0.3,0-0.5-0.3-0.5-0.6v-0.2 c0.2-0.4,0.3-0.9,0.3-1.4c0-1.4-1.1-2.5-2.5-2.5l0,0l0,0l0,0l0,0c-1.4,0-2.5,1.1-2.5,2.5c0,0.6,0.1,1.1,0.3,1.4v0.2 c0,0.3-0.2,0.6-0.5,0.6h-0.1h-0.2c-1.4,0-2.5,1.1-2.5,2.5S45,41,46.4,41l0,0l0,0h0.1h0.9h0.3v0.3c0,0.8-1,1.2-1.4,1.2h-3h-3 c-0.4,0-1.4-0.3-1.4-1.2V41h0.3h0.9c0,0,0.2,0,0.1,0l0,0l0,0c1.4,0,2.5-1.1,2.5-2.5S41.6,36,40.2,36H40h-0.1 c-0.3,0-0.5-0.3-0.5-0.6v-0.2c0.2-0.4,0.3-0.9,0.3-1.4c0-1.4-1.1-2.5-2.6-2.5c-1.4,0-2.5,1.1-2.5,2.5c0,0.6,0.1,1.1,0.3,1.4v0.2 c0,0.3-0.2,0.6-0.5,0.6h-0.1h-1.1c-1.4,0-2.5,1.1-2.5,2.5s1.1,2.5,2.5,2.5l0,0l0,0h0.1h0.9h0.2v0.3c0,0.8-1,1.2-1.4,1.2h-3h-3 c-0.4,0-1.4-0.3-1.4-1.2V41h0.3h0.9h0.1l0,0l0,0c1.4,0,2.5-1.1,2.5-2.5S28.2,36,26.8,36h-0.2h-0.1c-0.3,0-0.5-0.3-0.5-0.6v-0.2 c0.2-0.4,0.3-0.9,0.3-1.4c0-1.4-1.1-2.5-2.5-2.5l0,0l0,0l0,0l0,0c-1.4,0-2.5,1.1-2.5,2.5c0,0.6,0.1,1.1,0.3,1.4v0.2 c0,0.3-0.2,0.6-0.5,0.6l0,0L20.6,36.1"/> </g> </g> </g> <g> <g> <g> <path class="st1" d="M91.2,89.2v-4.6h2c1.7,1.8,4.5,3.4,9,3.4c4.8,0,7.6-1.9,7.6-5.9c0-4.6-3.7-5.2-8.4-6.5 c-6.5-1.9-9.7-4.5-9.7-10.5c0-6.4,4.6-10.2,11.7-10.2c4.4,0,7.6,1.1,9.8,2.5v4.5h-1.9c-1.9-1.5-4.2-2.6-7.6-2.6 c-4.7,0-6.9,1.9-6.9,5.4c0,3.8,2.8,4.8,7.3,6c7.5,2.1,11.1,4.2,11.1,10.8c0,7.2-4.7,10.9-12.7,10.9 C97.2,92.3,93.8,91.1,91.2,89.2z"/> <path class="st1" d="M114.7,97h1.5c2.5,0,3.4-1.2,3.4-3.8V64.5h3c2.1,0,2.4,0.6,2.4,4.1v24.9c0,4.9-2.4,7.2-6.9,7.2 c-1.4,0-2.4-0.1-3.3-0.4L114.7,97L114.7,97z M119,58.4c0-1.7,1.5-3.2,3.2-3.2s3.2,1.4,3.2,3.2c0,1.7-1.5,3.1-3.2,3.1 S119,60.1,119,58.4z"/> <path class="st1" d="M135.2,90.4l-2.3,2.9h-3.2v-1.2l2.9-3.8c-2.2-2.4-3.5-5.7-3.5-9.9c0-8.8,5.7-14.3,13.2-14.3 c2.7,0,5.2,0.7,7.2,2.1l2.1-2.6h3.3v1.2l-2.8,3.7c2.1,2.4,3.4,5.8,3.4,10c0,8.7-5.7,14-13.2,14 C139.8,92.3,137.2,91.6,135.2,90.4z M135.6,84.4L147,69.6c-1.3-1-2.8-1.5-4.6-1.5c-4.6,0-7.8,3.6-7.8,10.3 C134.6,80.9,135,82.9,135.6,84.4z M150.2,78.3c0-2.5-0.4-4.5-1.1-6.1L137.8,87c1.3,0.9,2.8,1.4,4.6,1.4 C147.1,88.4,150.2,85,150.2,78.3z"/> <path class="st1" d="M158.4,64.5h3.3v-2.4c0-5.1,2.9-7.3,7.5-7.3c1.9,0,3.1,0.3,4,0.6v3.4h-2.3c-2.4,0-3.8,0.7-3.8,3.6v2.2h5.6 v3.8h-5.6v23.7h-5.4V68.3h-3.3V64.5z"/> <path class="st1" d="M190.5,89c-2.1,2.2-4.5,3.4-8.2,3.4c-5,0-8.6-2.8-8.6-8.2c0-5.6,4.5-8.4,10.7-8.4c2.4,0,4.1,0.3,6,0.7v-3.6 c0-3.3-1.9-4.7-5.5-4.7c-3.3,0-5.8,1-7.5,2.3h-1.7v-4c2.4-1.2,5.5-2.4,9.9-2.4c6.5,0,10.3,2.4,10.3,8.4V92h-2.1 C191.5,92,190.8,91.4,190.5,89z M190.3,85.5v-5.8c-1.5-0.3-3.2-0.5-5.1-0.5c-3.7,0-6.3,1.4-6.3,4.7c0,3.4,2.2,4.8,5.1,4.8 C186.9,88.7,188.8,87.3,190.3,85.5z"/> <path class="st1" d="M205.8,71.9V92h-5.4V64.5h3.4c1.3,0,1.9,0.6,2,3.8c1.8-2.1,4.5-4.1,7.9-4.1c0.6,0,1.2,0.1,1.5,0.2v4.4 c0,0-1-0.1-1.2-0.1C210.2,68.8,207.6,70.4,205.8,71.9z"/> <path class="st1" d="M218.8,64.5h3.3V57h5.4v7.5h6.1v3.8h-6.1v16.3c0,2.9,1.2,3.7,3.9,3.7h2.5v3.5c-1,0.3-2.5,0.5-4.4,0.5 c-4.7,0-7.4-1.9-7.4-7.1V68.3h-3.3V64.5z"/> <path class="st1" d="M237.8,89.9v-4.2h1.7c1.3,1.2,3.6,2.5,7,2.5c3.8,0,5.7-1.4,5.7-4c0-2.3-1.3-3.3-5.8-4 c-5.6-0.8-8.7-2.8-8.7-7.9c0-5.2,3.8-8,9.9-8c3.9,0,6.3,0.9,8.1,1.9v4.1H254c-1.3-1.1-3.3-1.9-6.3-1.9c-3.5,0-5.2,1.2-5.2,3.5 c0,2.2,1.5,3.1,5.8,3.7c6.1,0.9,8.9,2.9,8.9,8.2c0,5.2-3.3,8.6-10.5,8.6C242.2,92.3,239.5,91.1,237.8,89.9z"/> <path class="st1" d="M279.4,88.3c-1.9,2.3-4.8,4.1-8.6,4.1c-5.7,0-10.6-4.1-10.6-13.7c0-10.8,5.8-14.6,11.4-14.6 c3.8,0,6.1,1.1,7.8,2.8V55.2h2.9c2.1,0,2.4,0.5,2.4,3.6V92h-3.5C280,92,279.6,91.4,279.4,88.3z M279.4,84.7v-14 c-1.6-1.5-3.5-2.3-6.3-2.3c-3.6,0-7.5,1.9-7.5,10c0,7.5,2.8,10,6.5,10C275.2,88.4,277.4,87,279.4,84.7z"/> <path class="st1" d="M289.4,58.4c0-1.7,1.5-3.2,3.2-3.2s3.2,1.4,3.2,3.2c0,1.7-1.5,3.1-3.2,3.1 C290.9,61.5,289.4,60.1,289.4,58.4z M289.9,92V64.5h3c2.1,0,2.4,0.6,2.4,4.1V92H289.9z"/> <path class="st1" d="M305.6,71.9V92h-5.4V64.5h3.4c1.3,0,1.9,0.6,2,3.8c1.8-2.1,4.5-4.1,7.9-4.1c0.6,0,1.2,0.1,1.5,0.2v4.4 c0,0-1-0.1-1.2-0.1C310,68.8,307.4,70.4,305.6,71.9z"/> <path class="st1" d="M320.6,79.3c0.3,6.5,3.2,9,8.4,9c3.5,0,5.9-1.2,7.6-2.5h1.7v3.7c-2,1.4-5,2.8-10.2,2.8 c-8.4,0-13.1-5.4-13.1-14c0-8.8,5.4-14.3,12.6-14.3c7.3,0,11.5,4.3,11.5,13.3c0,0.7-0.1,1.7-0.1,1.9L320.6,79.3L320.6,79.3z M320.8,75.8H334c-0.1-5.9-2.4-8-6.2-8C324.1,67.8,321.4,69.9,320.8,75.8z"/> <path class="st1" d="M348.9,77.4l11.3-12.9h4.5v1.6l-8.5,9.5l9.4,14.8V92h-4.9l-8.2-12.7l-3.6,3.9V92h-5.4V55.2h2.9 c2.1,0,2.4,0.5,2.4,3.6v18.6H348.9z"/> <path class="st1" d="M367.6,64.5h3.3V57h5.4v7.5h6.1v3.8h-6.1v16.3c0,2.9,1.2,3.7,3.9,3.7h2.5v3.5c-1,0.3-2.5,0.5-4.4,0.5 c-4.7,0-7.4-1.9-7.4-7.1V68.3h-3.3V64.5z"/> <path class="st1" d="M384,78.3c0-8.8,5.7-14.3,13.2-14.3s13.2,5.5,13.2,14.3c0,8.7-5.7,14-13.2,14C389.6,92.3,384,87.1,384,78.3 z M404.9,78.3c0-6.6-3-10.2-7.7-10.2c-4.6,0-7.7,3.6-7.7,10.2s3.1,9.9,7.7,9.9C401.9,88.3,404.9,85,404.9,78.3z"/> <path class="st1" d="M419.6,71.9V92h-5.4V64.5h3.4c1.3,0,1.9,0.6,2,3.8c1.8-2.1,4.5-4.1,7.9-4.1c0.6,0,1.2,0.1,1.5,0.2v4.4 c0,0-1-0.1-1.2-0.1C424,68.8,421.4,70.4,419.6,71.9z"/> <path class="st1" d="M447.2,89c-2.1,2.2-4.5,3.4-8.2,3.4c-5,0-8.6-2.8-8.6-8.2c0-5.6,4.5-8.4,10.7-8.4c2.4,0,4.1,0.3,6,0.7v-3.6 c0-3.3-1.9-4.7-5.5-4.7c-3.3,0-5.8,1-7.5,2.3h-1.7v-4c2.4-1.2,5.5-2.4,9.9-2.4c6.5,0,10.3,2.4,10.3,8.4V92h-2.1 C448.2,92,447.5,91.4,447.2,89z M447,85.5v-5.8c-1.5-0.3-3.2-0.5-5.1-0.5c-3.7,0-6.3,1.4-6.3,4.7c0,3.4,2.2,4.8,5.1,4.8 C443.6,88.7,445.4,87.3,447,85.5z"/> <path class="st1" d="M454.8,64.5h3.3V57h5.4v7.5h6.1v3.8h-6.1v16.3c0,2.9,1.2,3.7,3.9,3.7h2.5v3.5c-1,0.3-2.5,0.5-4.4,0.5 c-4.7,0-7.4-1.9-7.4-7.1V68.3h-3.3V64.5z"/> <path class="st1" d="M476.6,79.3c0.3,6.5,3.2,9,8.4,9c3.5,0,5.9-1.2,7.6-2.5h1.7v3.7c-2,1.4-5,2.8-10.2,2.8 c-8.4,0-13.1-5.4-13.1-14c0-8.8,5.4-14.3,12.6-14.3c7.3,0,11.5,4.3,11.5,13.3c0,0.7-0.1,1.7-0.1,1.9L476.6,79.3L476.6,79.3z M476.8,75.8H490c-0.1-5.9-2.4-8-6.2-8C480.1,67.8,477.4,69.9,476.8,75.8z"/> <path class="st1" d="M497,64.5h3.3V57h5.4v7.5h6.1v3.8h-6.1v16.3c0,2.9,1.2,3.7,3.9,3.7h2.5v3.5c-1,0.3-2.5,0.5-4.4,0.5 c-4.7,0-7.4-1.9-7.4-7.1V68.3h-3.3L497,64.5L497,64.5z"/> </g> </g> <g> <path class="st2" d="M94.1,104.5h2.2l13,20.1l0,0v-20.1h1.7v23.3h-1.8l-13.5-20.9h-0.1v20.9h-1.7v-23.3H94.1z"/> <path class="st2" d="M114.8,119.1c0-5.5,3.3-8.9,8.1-8.9c4.9,0,8.1,3.4,8.1,8.9s-3.2,8.8-8.1,8.8S114.8,124.6,114.8,119.1z M129.2,119.1c0-4.7-2.4-7.6-6.4-7.6c-3.9,0-6.4,2.8-6.4,7.6s2.4,7.5,6.4,7.5C126.8,126.6,129.2,123.9,129.2,119.1z"/> <path class="st2" d="M136.1,113.4c1.3-1.6,3.2-3.1,5.7-3.1c0.4,0,0.7,0.1,0.8,0.1v1.4c0,0-0.4,0-0.7,0c-2.5,0-4.4,1.6-5.8,3.3 v12.8h-1.7v-17.5h0.8c0.7,0,0.9,0.2,0.9,1.9V113.4z"/> <path class="st2" d="M144.8,111.1v-0.7h1.5l4.4,14.8h0.1l4.6-14.8h1.4l4.5,14.8h0.1l4.4-14.8h1.4v0.6l-5,16.7h-1.5l-4.5-14.7H156 l-4.6,14.7h-1.5L144.8,111.1z"/> <path class="st2" d="M176.8,126.6c2.8,0,4.5-0.9,5.4-1.8h0.7v1.2c-1.2,1-3.1,1.9-6.3,1.9c-5.2,0-8.1-3.4-8.1-8.8 c0-5.5,3.3-8.9,7.7-8.9c4.3,0,7.1,2.5,7.1,8.1c0,0.3,0,0.7,0,0.8h-13.1C170.1,124,172.4,126.6,176.8,126.6z M170.2,117.9h11.4 c-0.1-4.6-2.2-6.4-5.5-6.4C172.9,111.5,170.6,113.6,170.2,117.9z"/> <path class="st2" d="M201.8,127.6c0,3.8-3.3,5.7-7.4,5.7c-3,0-5.3-0.7-6.6-1.5v-1.3h0.7c1.1,0.9,3.2,1.5,5.8,1.5 c3.2,0,5.9-1.2,5.9-4.5v-2.9c-1.5,1.7-3.6,3.1-6.4,3.1c-3.4,0-6.8-2.2-6.8-8.5c0-6.6,3.9-8.9,7.5-8.9c2.7,0,4.5,0.9,5.8,2.2 c0.1-1,0.3-2,1.2-2h0.5v17.1H201.8z M200,122.9V114c-1.4-1.5-3-2.4-5.5-2.4c-2.9,0-6.1,1.5-6.1,7.5c0,5.7,2.7,7.3,5.3,7.3 C196.6,126.4,198.5,124.8,200,122.9z"/> <path class="st2" d="M205.6,106.7c0-0.6,0.5-1.1,1.1-1.1s1.1,0.5,1.1,1.1s-0.5,1.1-1.1,1.1S205.6,107.3,205.6,106.7z M205.9,127.8v-17.4h0.5c1,0,1.1,0.2,1.1,1.8v15.5L205.9,127.8L205.9,127.8z"/> <path class="st2" d="M222.5,125.4c-1.5,1.5-3.1,2.5-5.9,2.5c-3.2,0-5.6-1.8-5.6-5c0-3.5,2.9-5.1,7-5.1c1.7,0,3.1,0.2,4.6,0.5 v-3.1c0-2.7-1.7-3.7-4.3-3.7s-4.3,0.7-5.4,1.5h-0.7v-1.4c1.4-0.8,3.3-1.5,6.2-1.5c3.5,0,5.9,1.3,5.9,4.9v12.7h-0.5 c-1,0-1.2-0.3-1.2-1.7v-0.6H222.5z M222.5,123.8v-4.3c-1.3-0.3-2.8-0.5-4.5-0.5c-3.1,0-5.4,1.1-5.4,3.8c0,2.8,1.8,3.9,4.1,3.9 C219.6,126.7,221.2,125.5,222.5,123.8z"/> <path class="st2" d="M230.5,113.2c2-1.6,4.6-3,7.6-3c2.4,0,4.5,1,4.5,4.6v12.9h-1.7V115c0-2.8-1.5-3.4-3.5-3.4 c-2.6,0-5,1.4-7,2.9v13.2h-1.7v-17.3h0.8c0.7,0,0.9,0.2,0.9,1.7L230.5,113.2L230.5,113.2z"/> <path class="st2" d="M255.9,104.5h2.8l7.9,20.6h0.1l7.9-20.6h2.7v23.3h-1.8v-21.2h-0.3l-8.2,21.2h-1.3l-8.1-21.2h-0.1v21.2h-1.7 v-23.3H255.9z"/> <path class="st2" d="M292.4,125.4c-1.5,1.5-3.1,2.5-5.9,2.5c-3.2,0-5.6-1.8-5.6-5c0-3.5,2.9-5.1,7-5.1c1.7,0,3.1,0.2,4.6,0.5 v-3.1c0-2.7-1.7-3.7-4.3-3.7c-2.6,0-4.3,0.7-5.4,1.5h-0.7v-1.4c1.4-0.8,3.3-1.5,6.2-1.5c3.5,0,5.9,1.3,5.9,4.9v12.7h-0.5 c-1,0-1.2-0.3-1.2-1.7v-0.6H292.4z M292.4,123.8v-4.3c-1.3-0.3-2.8-0.5-4.5-0.5c-3.1,0-5.4,1.1-5.4,3.8c0,2.8,1.8,3.9,4.1,3.9 C289.5,126.7,291.1,125.5,292.4,123.8z"/> <path class="st2" d="M300.4,113.4c1.3-1.6,3.2-3.1,5.7-3.1c0.4,0,0.7,0.1,0.8,0.1v1.4c0,0-0.4,0-0.7,0c-2.5,0-4.4,1.6-5.8,3.3 v12.8h-1.7v-17.5h0.8c0.7,0,0.9,0.2,0.9,1.9L300.4,113.4L300.4,113.4z"/> <path class="st2" d="M310,106.7c0-0.6,0.5-1.1,1.1-1.1s1.1,0.5,1.1,1.1s-0.5,1.1-1.1,1.1S310,107.3,310,106.7z M310.2,127.8 v-17.4h0.5c1,0,1.1,0.2,1.1,1.8v15.5L310.2,127.8L310.2,127.8z"/> <path class="st2" d="M314.9,110.4h2.3v-4.8h1.7v4.8h4.6v1.3h-4.6v12.1c0,2.1,1,2.7,3,2.7h2v1.2c-0.5,0.1-1.5,0.2-2.6,0.2 c-2.7,0-4.1-1.1-4.1-3.9v-12.3h-2.3V110.4z"/> <path class="st2" d="M326.5,106.7c0-0.6,0.5-1.1,1.1-1.1s1.1,0.5,1.1,1.1s-0.5,1.1-1.1,1.1S326.5,107.3,326.5,106.7z M326.9,127.8v-17.4h0.5c1,0,1.1,0.2,1.1,1.8v15.5L326.9,127.8L326.9,127.8z"/> <path class="st2" d="M335,113.1c1.7-1.3,4-2.8,6.9-2.8c1.9,0,3.6,0.8,4.1,2.9c1.8-1.5,4.2-2.9,7-2.9c2.4,0,4.3,1.2,4.3,4.3v13.3 h-1.7V115c0-2.6-1.2-3.3-3.2-3.3c-2.5,0-4.5,1.4-6.3,2.8v13.4h-1.7V115c0-2.6-1.3-3.3-3.2-3.3c-2.5,0-4.5,1.3-6.3,2.8v13.3h-1.7 v-17.4h0.8c0.7,0,0.9,0.2,0.9,1.7v1H335z"/> <path class="st2" d="M368.9,126.6c2.8,0,4.5-0.9,5.4-1.8h0.7v1.2c-1.2,1-3.1,1.9-6.3,1.9c-5.2,0-8.1-3.4-8.1-8.8 c0-5.5,3.3-8.9,7.7-8.9c4.3,0,7.1,2.5,7.1,8.1c0,0.3,0,0.7,0,0.8h-13.1C362.4,124,364.6,126.6,368.9,126.6z M362.4,117.9h11.4 c-0.1-4.6-2.2-6.4-5.5-6.4C365.1,111.5,362.9,113.6,362.4,117.9z"/> <path class="st2" d="M385.5,127.1l8.2-22.6h2.1l8.1,22.6v0.7h-1.6l-2.6-7.3h-10.1l-2.6,7.3h-1.5V127.1z M390.1,119h9.1l-4.5-12.6 h-0.1L390.1,119z"/> <path class="st2" d="M418.8,125.3c-1.9,1.5-4.5,2.7-7.2,2.7s-4.7-1.1-4.7-4.5v-13h1.7v12.9c0,2.7,1.4,3.3,3.2,3.3 c2.6,0,5-1.3,7-2.8v-13.5h1.7v17.3h-0.8c-0.7,0-0.9-0.2-0.9-1.9L418.8,125.3L418.8,125.3z"/> <path class="st2" d="M423.4,110.4h2.3v-4.8h1.7v4.8h4.6v1.3h-4.6v12.1c0,2.1,1,2.7,3,2.7h2v1.2c-0.5,0.1-1.5,0.2-2.6,0.2 c-2.7,0-4.1-1.1-4.1-3.9v-12.3h-2.3V110.4z"/> <path class="st2" d="M436.9,113.2c2-1.6,4.6-3,7.6-3c2.4,0,4.5,1,4.5,4.6v12.9h-1.7V115c0-2.8-1.5-3.4-3.5-3.4 c-2.6,0-5,1.4-7,2.9v13.2h-1.6v-23.3h0.6c0.9,0,1.1,0.2,1.1,1.6V113.2z"/> <path class="st2" d="M452.4,119.1c0-5.5,3.3-8.9,8.1-8.9c4.9,0,8.1,3.4,8.1,8.9s-3.2,8.8-8.1,8.8 C455.5,127.9,452.4,124.6,452.4,119.1z M466.8,119.1c0-4.7-2.4-7.6-6.4-7.6c-3.9,0-6.4,2.8-6.4,7.6s2.4,7.5,6.4,7.5 S466.8,123.9,466.8,119.1z"/> <path class="st2" d="M473.6,113.4c1.3-1.6,3.2-3.1,5.7-3.1c0.4,0,0.7,0.1,0.8,0.1v1.4c0,0-0.4,0-0.7,0c-2.5,0-4.4,1.6-5.8,3.3 v12.8h-1.7v-17.5h0.8c0.7,0,0.9,0.2,0.9,1.9L473.6,113.4L473.6,113.4z"/> <path class="st2" d="M483.1,106.7c0-0.6,0.5-1.1,1.1-1.1s1.1,0.5,1.1,1.1s-0.5,1.1-1.1,1.1S483.1,107.3,483.1,106.7z M483.4,127.8v-17.4h0.5c1,0,1.1,0.2,1.1,1.8v15.5L483.4,127.8L483.4,127.8z"/> <path class="st2" d="M488,110.4h2.3v-4.8h1.7v4.8h4.6v1.3H492v12.1c0,2.1,1,2.7,3,2.7h2v1.2c-0.5,0.1-1.5,0.2-2.6,0.2 c-2.7,0-4.1-1.1-4.1-3.9v-12.3H488V110.4z"/> <path class="st2" d="M502.7,132.7l2.6-6.1l-6.9-15.6v-0.6h1.5l6.2,14.2l0,0l6-14.2h1.5v0.5l-9.4,22.2h-1.5V132.7z"/> </g> </g> </g> </svg>