<?xml version="1.0" encoding="UTF-8"?>
<!-- Generator: Adobe Illustrator 25.4.1, SVG Export Plug-In . SVG Version: 6.00 Build 0) -->
<svg xmlns="http://www.w3.org/2000/svg" xmlns:xlink="http://www.w3.org/1999/xlink" version="1.1" id="Layer_1" x="0px" y="0px" viewBox="0 0 502.9 207.4" style="enable-background:new 0 0 502.9 207.4;" xml:space="preserve"> <style type="text/css"> .st0{fill:#A81921;} </style> <polygon points="17.1,168.3 17.1,196.8 9.7,196.8 9.7,168.3 0,168.3 0,162.1 26.8,162.1 26.8,168.3 "/> <path d="M28.1,172.7h6.6l0.1,2.4c0,0.7,0,1.3,0,1.6c1.5-2.6,4-4.6,7.1-4.6c0.8,0,1.4,0.1,1.5,0.1v7c-0.1,0-0.7-0.3-1.6-0.3 c-3.7,0-6.6,3.2-6.6,7.6v10.3h-7.2V172.7z"/> <path d="M60.2,186.4c-5.4-0.9-7.7,0.8-7.7,3.1c0,1.5,1.1,2.6,2.7,2.6C58.1,192,60.2,189.4,60.2,186.4 M47.6,173.7 c1.4-0.6,4.6-1.6,8.8-1.6c7.4,0,11.1,3.6,11.1,9.6v15.2H61l-0.1-2.2c0-1,0.1-1.7,0.1-1.7h-0.1c-0.6,1.4-3,4.6-7.5,4.6 c-4.1,0-7.7-2.4-7.7-7.3c0-5.9,6-8.8,14.6-7.6V182c0-2.9-2-4-5.2-4c-3,0-6.1,1.1-7.7,2.1V173.7z"/> <path d="M80.1,172.7l0.2,2.7c0,0.9-0.1,1.4-0.2,1.7h0.1c1-2.2,4.2-5.1,8.3-5.1c5.4,0,8.4,3.3,8.4,9.7v15.1h-7.2v-13.9 c0-2.4-0.7-4.3-3.3-4.3c-3.4,0-5.6,2.6-5.6,6.2v12h-7.2v-24.1H80.1z"/> <path d="M109.2,187.2c-4.5-1.3-7.7-3.1-7.7-7.8c0-4.5,3.6-7.4,9.2-7.4c3.5,0,6.4,0.9,7.8,1.5v6.2c-1.6-0.8-4-1.6-6.1-1.8 c-0.8,0-1.5,0-2.2,0.1c-1,0.2-2,0.7-2,1.7c0,1.2,1.2,1.8,3.8,2.6c5.5,1.5,8.1,3.5,8.1,7.8c0,4.6-3.8,7.3-9.9,7.3 c-3.7,0-6.5-0.8-8.2-1.6v-6.3c2.3,1.2,5.7,2.2,8.1,2.2c1.8,0,3.4-0.5,3.4-1.9C113.4,188.6,112,188,109.2,187.2"/> <path d="M143.9,184.8c0-3.9-2.4-6.6-5.7-6.6c-2.9,0-5.8,2.2-5.8,6.6c0,4.4,2.9,6.6,5.8,6.6C141.5,191.4,143.9,188.8,143.9,184.8 M124.9,172.7h6.6l0.1,2c0,1-0.1,1.6-0.1,1.6h0.1c1.1-2.4,4.3-4.3,7.8-4.3c6.2,0,11.2,4.8,11.2,12.7c0,8-5,12.7-11,12.7 c-3.5,0-6.3-1.7-7.6-3.7H132c0,0,0.1,0.7,0.1,2v11.6h-7.2V172.7z"/> <path d="M173.4,184.8c0-4-2.6-6.6-6.1-6.6c-3.4,0-6,2.6-6,6.6s2.6,6.6,6,6.6C170.7,191.4,173.4,188.8,173.4,184.8 M180.2,184.8 c0,7.3-5.4,12.7-12.9,12.7c-7.4,0-12.8-5.4-12.8-12.7c0-7.3,5.4-12.7,12.8-12.7C174.7,172,180.2,177.4,180.2,184.8"/> <path d="M184.9,172.7h6.5l0.1,2.4c0,0.7,0,1.3,0,1.6c1.5-2.6,4-4.6,7.1-4.6c0.8,0,1.4,0.1,1.5,0.1v7c-0.1,0-0.7-0.3-1.6-0.3 c-3.7,0-6.6,3.2-6.6,7.6v10.3h-7.2V172.7z"/> <path d="M206.5,172.7v-7.2h7v7.2h6.4v5.6h-6.4v9.7c0,2.6,1.5,3.4,3.1,3.4c1.5,0,3-0.5,4.1-1v5.9c-1.1,0.5-3.3,1.1-6.1,1.1 c-3.8,0-7.5-1.8-8-6.8c-0.1-0.8-0.1-1.6-0.1-2.5v-9.8H203v-5.6H206.5z"/> <polygon points="240.2,183 248.8,196.8 240.7,196.8 234.7,186.6 231.8,190 231.8,196.8 224.7,196.8 224.7,162.1 232,162.1 232,182.7 240,172.7 248.3,172.7 "/> <path d="M268.9,184.8c0-4-2.6-6.6-6.1-6.6c-3.4,0-6,2.6-6,6.6s2.6,6.6,6,6.6C266.3,191.4,268.9,188.8,268.9,184.8 M275.7,184.8 c0,7.3-5.4,12.7-12.9,12.7c-7.4,0-12.8-5.4-12.8-12.7c0-7.3,5.4-12.7,12.8-12.7C270.3,172,275.7,177.4,275.7,184.8"/> <path d="M287.2,172.7l0.2,2.7c0,0.9-0.1,1.4-0.2,1.7h0.1c1-2.5,3.7-4.5,6.8-4.9c0.8-0.1,1.6-0.1,2.4,0c2.7,0.4,5,1.9,5.9,4.6 c1.8-2.8,4.7-4.8,8-4.8c5.3,0,8.3,3.3,8.3,9.7v15.1h-7.2v-14c0-2.4-0.8-4.2-3.1-4.2c-4.1,0-5.2,3.8-5.2,7.7v10.5h-7.2v-14.1 c0-2.3-0.7-4.1-3.1-4.1c-4,0-5.2,3.7-5.2,7.7v10.5h-7.2v-24.1H287.2z"/> <path d="M344,184.8c0-3.9-2.4-6.6-5.7-6.6c-2.9,0-5.8,2.2-5.8,6.6c0,4.4,2.9,6.6,5.8,6.6C341.6,191.4,344,188.8,344,184.8 M325.1,172.7h6.6l0.1,2c0,1-0.1,1.6-0.1,1.6h0.1c1.1-2.4,4.3-4.3,7.8-4.3c6.2,0,11.2,4.8,11.2,12.7c0,8-5,12.7-11,12.7 c-3.5,0-6.3-1.7-7.6-3.7h-0.1c0,0,0.1,0.7,0.1,2v11.6h-7.2V172.7z"/> <path d="M366.8,177.7c-2.9,0-4.5,2.2-4.7,4.8h9.1C371.3,180,369.7,177.7,366.8,177.7 M378.1,183.3c0,1.3-0.1,2.5-0.2,2.9h-15.8 c0.3,3.3,2.8,5.1,6.7,5.1c3.4,0,7-1,8.3-1.8v6.1c-1.5,0.8-4.7,1.7-9,1.7c-8.3,0-13.5-5.4-13.5-12.7c0-7.3,5.4-12.7,12.2-12.7 C374.3,172,378.1,177.4,378.1,183.3"/> <path d="M385,172.7v-7.2h7v7.2h6.4v5.6h-6.4v9.7c0,2.6,1.5,3.4,3.1,3.4c1.5,0,3-0.5,4.1-1v5.9c-1.1,0.5-3.3,1.1-6.1,1.1 c-3.8,0-7.5-1.8-8-6.8c-0.1-0.8-0.1-1.6-0.1-2.5v-9.8h-3.3v-5.6H385z"/> <path d="M416.7,186.4c-5.4-0.9-7.7,0.8-7.7,3.1c0,1.5,1.1,2.6,2.7,2.6C414.6,192,416.7,189.4,416.7,186.4 M404,173.7 c1.3-0.6,4.6-1.6,8.8-1.6c7.4,0,11.1,3.6,11.1,9.6v15.2h-6.5l-0.1-2.2c-0.1-1,0.1-1.7,0.1-1.7h-0.1c-0.6,1.4-3,4.6-7.5,4.6 c-4.1,0-7.7-2.4-7.7-7.3c0-5.9,6-8.8,14.6-7.6V182c0-2.9-2-4-5.2-4c-3,0-6.1,1.1-7.7,2.1V173.7z"/> <path d="M436.6,172.7l0.2,2.7c0,0.9-0.1,1.4-0.2,1.7h0.1c1-2.2,4.2-5.1,8.3-5.1c5.4,0,8.4,3.3,8.4,9.7v15.1h-7.2v-13.9 c0-2.4-0.7-4.3-3.3-4.3c-3.4,0-5.6,2.6-5.6,6.2v12H430v-24.1H436.6z"/> <path d="M465.7,187.2c-4.5-1.3-7.7-3.1-7.7-7.8c0-4.5,3.6-7.4,9.2-7.4c3.5,0,6.4,0.9,7.8,1.5v6.2c-1.6-0.8-4-1.6-6.1-1.8 c-0.8,0-1.5,0-2.2,0.1c-1,0.2-2,0.7-2,1.7c0,1.2,1.2,1.8,3.8,2.6c5.5,1.5,8.1,3.5,8.1,7.8c0,4.6-3.8,7.3-9.9,7.3 c-3.7,0-6.5-0.8-8.2-1.6v-6.3c2.3,1.2,5.7,2.2,8.1,2.2c1.8,0,3.4-0.5,3.4-1.9C469.9,188.6,468.4,188,465.7,187.2"/> <path d="M491.7,177.7c-2.9,0-4.5,2.2-4.7,4.8h9.1C496.2,180,494.6,177.7,491.7,177.7 M502.9,183.3c0,1.3-0.1,2.5-0.2,2.9h-15.8 c0.3,3.3,2.8,5.1,6.7,5.1c3.4,0,7-1,8.3-1.8v6.1c-1.5,0.8-4.7,1.7-9,1.7c-8.3,0-13.5-5.4-13.5-12.7c0-7.3,5.4-12.7,12.2-12.7 C499.1,172,502.9,177.4,502.9,183.3"/> <path class="st0" d="M264.6,70.2c-0.9-8.2-8.3-14.2-16.5-13.4c-8.2,0.9-14.2,8.3-13.4,16.5c0.9,8.2,8.3,14.2,16.5,13.4 C259.5,85.8,265.5,78.4,264.6,70.2 M218.8,75c-1.8-17,10.6-32.3,27.6-34.1c17-1.8,32.3,10.6,34.1,27.6c1.8,17-10.6,32.3-27.6,34.1 C235.9,104.4,220.6,92,218.8,75"/> <path class="st0" d="M304.7,65.7c3.2,30.3-18.9,57.6-49.2,60.7c-6.3,0.7-9.9,0.5-15.7-0.9l15.7-17.3l-46.1,21.8 c0.1,0.1,0.2,0.1,0.3,0.2l-0.1,0.1c0.2,0.1,0.4,0.2,0.6,0.3c13.4,8.9,29.7,13.5,46.9,11.7c39.1-4.1,67.6-39.3,63.4-78.3 c-1.8-17.6-10-32.9-21.9-44.2l-16.4,7.7C296.9,38.8,303.3,52.5,304.7,65.7"/> <path class="st0" d="M195,77.1c-3.2-30.3,18.9-57.6,49.2-60.7c6.3-0.7,9.9-0.5,15.7,0.9l-15.7,17.3l46.1-21.8 c-0.1-0.1-0.2-0.1-0.3-0.2l0.1-0.1c-0.2-0.1-0.4-0.2-0.6-0.3c-13.4-8.9-29.7-13.5-46.9-11.7c-39.1,4.1-67.6,39.3-63.4,78.3 c1.8,17.6,10,32.9,21.9,44.2l16.4-7.7C202.8,104,196.4,90.2,195,77.1"/> </svg>