<?xml version="1.0" encoding="UTF-8"?>
<!-- Generator: Adobe Illustrator 25.4.1, SVG Export Plug-In . SVG Version: 6.00 Build 0) -->
<svg xmlns="http://www.w3.org/2000/svg" xmlns:xlink="http://www.w3.org/1999/xlink" version="1.1" id="Layer_1" x="0px" y="0px" viewBox="0 0 345.7 124.4" style="enable-background:new 0 0 345.7 124.4;" xml:space="preserve"> <polygon points="170.8,45 170.8,93.8 161.7,93.8 161.7,45 146.2,45 146.2,37.3 186.4,37.3 186.4,45 "/> <g> <path d="M214,93.8h-9l-17.5-56.4h9.9c0,0,10.4,34.2,12.2,40.8l12.6-40.8h9.4L214,93.8z"/> </g> <polygon points="239.7,93.8 239.7,37.3 269.5,37.3 269.5,45 248.8,45 248.8,61 268.5,61 268.5,68.4 248.8,68.4 248.8,86 269.5,86 269.5,93.8 "/> <rect x="284.8" y="37.3" width="9.1" height="56.4"/> <polygon points="330.1,45 330.1,93.8 321,93.8 321,45 305.5,45 305.5,37.3 345.7,37.3 345.7,45 "/> <g> <path d="M32.6,97.8c0-6.1,0-39.5,0-52.9v-7.5h30.6c0-19.6,0-36.8,0-37.4c-0.4,0-0.7,0-1,0C37.1,0,15.4,14.9,5.6,36.4 C2,44.2,0,52.9,0,62.1C0,81,8.6,98.8,23.3,110.6C24.1,111.3,32.6,107,32.6,97.8z M42.4,9.3c5.9,0,10.7,4.8,10.7,10.7 s-4.8,10.7-10.7,10.7c-5.9,0-10.7-4.8-10.7-10.7S36.5,9.3,42.4,9.3z"/> <path d="M124.3,62.1c0-23.3-12.9-43.7-31.9-54.3c-0.4-0.2-0.8-0.4-1.1-0.6c-0.4-0.2-0.9-0.5-1.3-0.7c-0.5-0.3-1.1-0.5-1.6-0.8 c-0.5-0.2-0.9-0.4-1.4-0.6c-0.5-0.2-1-0.4-1.6-0.7c-0.3-0.1-0.6-0.2-0.9-0.4v33.3h18.8V45H84.4v48.9H63.2c0-0.7,0-25.1,0-48.9h-9.4 v48.2c0,16.8-16.9,19.7-17.1,19.8c-4.1,1.2-8.3,1-8.6,1.1c9.8,6.4,21.5,10.2,34.1,10.2C96.5,124.3,124.3,96.4,124.3,62.1z"/> </g> </svg>