<?xml version="1.0" encoding="UTF-8"?>
<!-- Generator: Adobe Illustrator 25.4.1, SVG Export Plug-In . SVG Version: 6.00 Build 0) -->
<svg xmlns="http://www.w3.org/2000/svg" xmlns:xlink="http://www.w3.org/1999/xlink" version="1.1" id="Layer_1" x="0px" y="0px" viewBox="0 0 345.7 124.4" style="enable-background:new 0 0 345.7 124.4;" xml:space="preserve"> <style type="text/css"> .st0{fill:#14377D;} .st1{fill:#FFFFFF;} </style> <polygon class="st0" points="170.8,45 170.8,93.8 161.7,93.8 161.7,45 146.2,45 146.2,37.3 186.4,37.3 186.4,45 "/> <g> <path class="st0" d="M214,93.8h-9l-17.5-56.4h9.9c0,0,10.4,34.2,12.2,40.8l12.6-40.8h9.4L214,93.8z"/> </g> <polygon class="st0" points="239.7,93.8 239.7,37.3 269.5,37.3 269.5,45 248.8,45 248.8,61 268.5,61 268.5,68.4 248.8,68.4 248.8,86 269.5,86 269.5,93.8 "/> <rect x="284.8" y="37.3" class="st0" width="9.1" height="56.4"/> <polygon class="st0" points="330.1,45 330.1,93.8 321,93.8 321,45 305.5,45 305.5,37.3 345.7,37.3 345.7,45 "/> <g> <path class="st1" d="M124.3,62.1c0,34.3-27.8,62.2-62.1,62.2C27.8,124.3,0,96.5,0,62.2C0,27.8,27.8,0,62.1,0l0,0 C96.5,0,124.3,27.8,124.3,62.1"/> <path class="st0" d="M42.4,9.3c5.9,0,10.7,4.8,10.7,10.7s-4.8,10.7-10.7,10.7S31.7,25.9,31.7,20l0,0C31.7,14.1,36.5,9.3,42.4,9.3 M32.6,97.8c0-6.1,0-39.5,0-52.9l0,0v-7.5h30.6c0-19.9,0-37.4,0-37.4h-1C27.9,0,0,27.8,0,62.1C0,81,8.6,98.8,23.3,110.6 C24.1,111.3,32.6,107,32.6,97.8 M84.4,4.1v33.3h18.8V45H84.4v48.9H63.2c0-0.7,0-25.1,0-48.9h-9.4v48.2c0,16.8-16.9,19.7-17.1,19.8 c-4.4,1.3-9,0.9-8.6,1.2C56.8,133,95.4,125,114.2,96.3s10.9-67.2-17.8-86.1C92.6,7.8,88.6,5.7,84.4,4.1"/> </g> </svg>