<?xml version="1.0" encoding="UTF-8"?>
<!-- Generator: Adobe Illustrator 26.0.1, SVG Export Plug-In . SVG Version: 6.00 Build 0) -->
<svg xmlns="http://www.w3.org/2000/svg" xmlns:xlink="http://www.w3.org/1999/xlink" version="1.1" id="Layer_1" x="0px" y="0px" viewBox="0 0 461.63 223.52" style="enable-background:new 0 0 461.63 223.52;" xml:space="preserve"> <style type="text/css"> .st0{stroke:#000000;stroke-width:2.7386;stroke-miterlimit:10;} </style> <path d="M98.98,211.1l-1.71-1.58c-14.9-13.58-26.1-25.47-35.26-37.42c-10.63-13.87-18.72-28.19-24.75-43.77 c-6.23-16.07-10.56-32.6-13.22-50.56c-2.38-16-3.49-33.13-3.49-53.9v-2.44h156.88v2.44c0,20.77-1.11,37.89-3.49,53.9 c-2.67,17.95-6.99,34.49-13.22,50.56c-6.03,15.59-14.14,29.91-24.78,43.77c-9.43,12.28-20.65,24.2-35.31,37.5L98.98,211.1z M23.29,24.17c0.01,20.5,1.11,37.41,3.45,53.2c2.64,17.75,6.91,34.1,13.07,49.97c5.93,15.34,13.91,29.44,24.37,43.1 c9.03,11.79,20.09,23.53,34.81,36.95c14.43-13.11,25.49-24.86,34.77-36.96c10.48-13.65,18.47-27.75,24.4-43.1 c6.16-15.88,10.43-32.22,13.07-49.97c2.35-15.79,3.45-32.7,3.46-53.2H23.29z"/> <path d="M69.79,178.14l-2.71-0.4c0.4-2.75,9.93-67.42,11.39-75.06c1.22-6.4,4.73-11.77,10.4-15.96l16.53-12.2 c1.84-1.36,3.58-2.98,3.89-5.67l0.99-8.52c0.01-0.08,0.01-0.13,0.01-0.17c-0.09-0.05-0.34-0.16-0.89-0.24L85.28,56.7 c-21.45-2.87-49.47-6.62-49.72-6.65l-0.1-0.01c-0.9-0.15-1.53-0.9-1.53-1.77c0-0.86,0.61-1.6,1.45-1.76 c3.51-0.66,83.89-15.91,83.89-15.91c3.35-0.63,8.7-0.21,12.78,3.07c3.28,2.62,5.08,6.32,5.68,8.9c0.5,2.15,1.47,6.51,1.47,6.51 c0.52,2.25,3.56,13.55,11.89,13.55c0.84,0,2.12-0.69,3.42-1.85c1-0.89,3.14-3.49,3.88-4.42l2.44-3.07l0,4.25 c0.01,1.05,0.02,2.36-0.57,4.43c-0.3,1.05-0.6,1.81-1.62,3.5c-2.24,3.72-5.65,5.6-10.14,5.6c-2.68,0-8.01-1.61-11.03-4.63 c-0.66-0.66-1.46-1.48-2.24-2.34c-0.52,4.27-1.37,11.17-1.42,11.57c-0.39,3.13-1.09,5.8-2.09,7.93c-1.29,2.75-3.28,4.76-4.72,5.97 l-16.91,14.18c-3.43,2.87-4.15,4.8-4.15,5.91c0,2.06,0.19,11.88,0.27,16.03l6.2-2.07c4.99-1.67,9.19-1.57,13.21,0.31 c1.97,0.92,4.88,2.64,7.3,6.87c1.73,3.02,13.59,23.89,13.59,23.89l-2.38,1.35c0,0-11.86-20.87-13.59-23.89 c-2.02-3.52-4.31-4.92-6.08-5.75c-3.39-1.58-6.84-1.64-11.19-0.19l-9.73,3.25l-0.04-1.86c-0.01-0.62-0.3-15.31-0.3-17.95 c0-2.5,1.68-5.12,5.13-8.01l16.91-14.18c1.23-1.03,2.92-2.74,4-5.04c0.88-1.87,1.5-4.25,1.85-7.1c0.02-0.14,1.7-13.73,1.81-14.79 l0.41-3.79l2.09,3.19c0.96,1.47,2.74,3.3,4,4.56c2.55,2.55,7.2,3.83,9.09,3.83c3.56,0,6.03-1.36,7.79-4.28 c0.78-1.29,1.03-1.86,1.21-2.43c-0.44,0.48-0.85,0.9-1.19,1.2c-1.31,1.16-3.28,2.53-5.24,2.53c-8.06,0-12.8-8.1-14.56-15.69 c0-0.01-0.97-4.35-1.47-6.5c-0.5-2.13-2-5.19-4.73-7.38c-3.14-2.52-7.57-3.08-10.56-2.51c0,0-59.05,11.2-78.14,14.82 c9.34,1.25,28.41,3.8,44,5.89l24.13,3.23c2.95,0.39,3.39,2.08,3.24,3.43l-0.99,8.53c-0.49,4.24-3.64,6.57-4.99,7.56L90.5,88.93 c-5.11,3.77-8.25,8.57-9.34,14.27C79.71,110.78,69.89,177.47,69.79,178.14z"/> <path class="st0" d="M132.38,169.36"/> <path class="st0" d="M129.06,173.57"/> <path class="st0" d="M126.69,176.46"/> <polygon points="127.46,178.35 123.67,166.04 126.29,165.23 128.88,173.62 128.87,173.63 130.08,177.54 "/> <path class="st0" d="M130.54,173.11"/> <path class="st0" d="M118.15,186.13"/> <path class="st0" d="M115.61,188.82"/> <path class="st0" d="M114.11,189.2"/> <polygon points="116.45,191.41 111.54,171.81 114.2,171.15 117.97,186.17 117.96,186.18 119.11,190.74 "/> <path class="st0" d="M119.66,185.75"/> <path d="M103.92,202.71L103.92,202.71l-0.32-3.07c-1.01-9.59-2.89-27.44-3.22-30.83L99,155.45c-0.03-0.29-0.04-0.59-0.04-0.88 c0-3.55,2.12-6.78,5.28-8.03l12.63-5.01l0.87,2.6l-1.2,0.49l-11.29,4.48c-2.12,0.84-3.55,3.04-3.55,5.47c0,0.2,0.01,0.4,0.03,0.6 l1.37,13.37c0.38,3.89,2.29,22,3,28.81l0.53,5.08L103.92,202.71z"/> <path class="st0" d="M99,205.01"/> <path d="M102.06,43.62c0-1.54,1.25-2.79,2.79-2.79c1.54,0,2.79,1.24,2.79,2.79c0,1.54-1.25,2.79-2.79,2.79 C103.32,46.4,102.06,45.16,102.06,43.62z"/> <g> <path d="M223.2,64.74h-11.16v-3.55h26.44v3.55h-11.11V99.5h-4.16V64.74z"/> <path d="M235.47,73.4l4.28,0.06l8.44,21.44l8.27-21.49l4.28,0.06l-12.72,30.77c-2,4.78-3.78,6.05-6.55,6.05 c-2.33,0-4.05-0.89-4.05-0.89l0.83-3.5c0,0,1.44,0.61,2.61,0.61c1.33,0,2.28-0.05,3.78-3.61l1.44-3.39L235.47,73.4z"/> <path d="M271.57,96.78c2.83,0,5.55-1.22,5.55-4.33c0-3.11-4.39-4.17-6.39-4.83c-1.89-0.61-7.44-1.89-7.44-7.39 c0-4.78,4.16-7.27,8.38-7.27c4.22,0,6.72,1.39,8.55,3.05l-2,2.5c-1.83-1.56-4.22-2.39-6.56-2.39c-2.72,0-4.61,1.28-4.61,3.72 c0,2.39,2.67,3.5,5.55,4.44c2.61,0.89,8.39,2.22,8.39,7.83c0,5-4.16,7.94-9.55,7.94c-4.28,0-7.72-1.83-9.66-4.61l2.17-2.61 C266.46,95.67,269.07,96.78,271.57,96.78z"/> <path d="M282.63,73.46h4.28l8.39,20.72l8.33-20.72h4.28L296.96,99.5h-3.44L282.63,73.46z"/> <path d="M352.1,95.78c-2.39,2.83-6.16,4.28-11.28,4.28c-4.77,0-8.55-2.06-10.77-5.61c-3,4.11-6.22,5.61-10.5,5.61 c-4.94,0-8.94-3.17-8.94-7.94c0-4.44,3.28-7.55,10.38-7.89l7.05-0.33v-1.17c0-4.39-2.94-6.33-6.89-6.33c-3.89,0-7,1.56-7.72,2.06 l-1.39-2.94c1.72-1,5.16-2.55,9.27-2.55c3.83,0,7.66,1.11,9.55,4.61c2.28-2.83,5.72-4.61,9.94-4.61c7.16,0,12.16,5.16,12.16,12.33 c0,0.94-0.17,2.17-0.17,2.17h-20.6c0.06,5.39,3.78,9.16,9.33,9.16c5.11,0,8.77-3.28,8.77-3.28L352.1,95.78z M321.34,87.23 c-4.83,0.22-6.44,2.17-6.44,4.83c0,2.61,2.17,4.72,5.5,4.72c3.83,0,6.39-1.72,8.5-4.72c-0.5-1.55-0.83-3.28-0.89-5.16L321.34,87.23 z M348.72,84.34c0-3.67-2.39-7.89-8.11-7.94c-5.22-0.05-8.05,3.89-8.38,7.94H348.72z"/> <path d="M359.27,73.46h4.11v4.44c1.22-3.16,3.72-4.94,6.61-4.94c1.72,0,2.78,0.44,2.78,0.44l-0.28,3.89c0,0-0.11,0-0.17,0 c-0.89-0.39-2.06-0.5-2.83-0.5c-2.39,0-3.94,1.67-4.39,2.28c-1.06,1.5-1.72,3-1.72,6.94v13.5h-4.11V73.46z"/> <path d="M219.87,153.75h-4.11v-38.32h4.11v23.44l11.39-11.16h5.11l-10.49,9.88l11.99,16.16h-4.94l-9.83-13.55l-3.22,3.05V153.75z"/> <path d="M240.08,140.81c0-7.94,5.94-13.61,13.55-13.61c7.61,0,13.61,5.66,13.61,13.61c0,8-6,13.5-13.61,13.5 C246.03,154.31,240.08,148.81,240.08,140.81z M263.02,140.7c0-5.61-3.61-9.94-9.39-9.94c-5.77,0-9.33,4.33-9.33,9.94 c0,5.55,3.55,10,9.33,10C259.41,150.7,263.02,146.25,263.02,140.7z"/> <path d="M301.4,127.2c7.61,0,9.05,5.39,9.05,10.83v15.72h-4.11v-15.5c0-3.16-0.83-7.5-5.5-7.5c-4.28,0-6.66,4.16-6.66,9.27v13.72 h-4.11v-15.5c0-3.16-0.83-7.5-5.5-7.5c-4.28,0-6.72,4.16-6.72,9.27v13.72h-4.11V127.7h4.11l-0.06,4.16h0.17 c1.28-2.66,4-4.66,7.16-4.66c5.11,0,7.44,2.39,8.38,5.61C294.62,129.59,297.73,127.2,301.4,127.2z"/> <path d="M346.16,127.2c7.61,0,9.05,5.39,9.05,10.83v15.72h-4.11v-15.5c0-3.16-0.83-7.5-5.5-7.5c-4.28,0-6.66,4.16-6.66,9.27v13.72 h-4.11v-15.5c0-3.16-0.83-7.5-5.5-7.5c-4.28,0-6.72,4.16-6.72,9.27v13.72h-4.11V127.7h4.11l-0.06,4.16h0.17 c1.28-2.66,4-4.66,7.16-4.66c5.11,0,7.44,2.39,8.38,5.61C339.38,129.59,342.49,127.2,346.16,127.2z"/> <path d="M384.43,127.65v26.1h-4l-0.06-4.16c-1.17,2.78-4.5,4.61-8.22,4.61c-7.44,0-9.27-4.55-9.27-10.77v-15.77h4.17v15.5 c0,4.83,1.55,7.5,6.39,7.5c4.66,0,6.94-4,6.94-8.55v-14.44H384.43z"/> <path d="M414.25,137.98v15.77h-4.11v-15.5c0-4.83-1.56-7.5-6.39-7.5c-4.67,0-7,3.83-7,8.33v14.66h-4.11V127.7h4.11v4.22h0.17 c1.17-2.78,4.39-4.72,8.11-4.72C412.48,127.2,414.25,131.76,414.25,137.98z"/> <path d="M433.41,154.31c-7.66,0-12.83-5.28-12.83-13.66c0-7.39,5.05-13.44,12.83-13.44c7.16,0,12.11,5.16,12.11,12.33 c0,0.94-0.17,2.17-0.17,2.17h-20.55c0.05,5.39,3.78,9.16,9.33,9.16c5.11,0,8.77-3.28,8.77-3.28l1.78,2.44 C442.3,152.86,438.52,154.31,433.41,154.31z M433.25,130.65c-5.22-0.05-8.05,3.89-8.39,7.94h16.5 C441.36,134.92,438.97,130.7,433.25,130.65z"/> </g> </svg>