<?xml version="1.0" encoding="UTF-8"?>
<!-- Generator: Adobe Illustrator 26.0.1, SVG Export Plug-In . SVG Version: 6.00 Build 0) -->
<svg xmlns="http://www.w3.org/2000/svg" xmlns:xlink="http://www.w3.org/1999/xlink" version="1.1" id="Layer_1" x="0px" y="0px" viewBox="0 0 461.63 223.52" style="enable-background:new 0 0 461.63 223.52;" xml:space="preserve"> <style type="text/css"> .st0{fill:#0071B9;} .st1{fill:#FFFFFF;} </style> <polygon points="223.1,64.62 211.92,64.62 211.92,61.07 238.39,61.07 238.39,64.62 227.27,64.62 227.27,99.43 223.1,99.43 "/> <path d="M235.39,73.3l4.28,0.06l8.45,21.46l8.28-21.52l4.28,0.06l-12.74,30.81c-2,4.78-3.78,6.06-6.56,6.06 c-2.34,0-4.06-0.89-4.06-0.89l0.84-3.5c0,0,1.44,0.61,2.61,0.61c1.33,0,2.28-0.06,3.78-3.61l1.44-3.39L235.39,73.3z"/> <path d="M271.53,96.71c2.84,0,5.56-1.22,5.56-4.33c0-3.12-4.39-4.17-6.39-4.84c-1.89-0.61-7.45-1.89-7.45-7.39 c0-4.78,4.17-7.28,8.4-7.28s6.73,1.39,8.56,3.06l-2,2.5c-1.84-1.56-4.23-2.39-6.56-2.39c-2.72,0-4.61,1.28-4.61,3.73 c0,2.39,2.67,3.5,5.56,4.45c2.61,0.89,8.4,2.23,8.4,7.84c0,5.01-4.17,7.95-9.56,7.95c-4.28,0-7.73-1.83-9.68-4.61l2.17-2.61 C266.41,95.6,269.03,96.71,271.53,96.71"/> <polygon points="282.6,73.35 286.88,73.35 295.28,94.1 303.62,73.35 307.9,73.35 296.94,99.43 293.5,99.43 "/> <path d="M348.77,84.25c0-3.67-2.39-7.9-8.12-7.95c-5.23-0.06-8.06,3.89-8.4,7.95H348.77z M321.36,87.14 c-4.84,0.22-6.45,2.17-6.45,4.84c0,2.61,2.17,4.73,5.51,4.73c3.83,0,6.39-1.72,8.51-4.73c-0.5-1.55-0.83-3.28-0.89-5.17 L321.36,87.14z M352.16,95.71c-2.39,2.84-6.17,4.28-11.29,4.28c-4.78,0-8.56-2.06-10.79-5.62c-3,4.12-6.23,5.62-10.51,5.62 c-4.95,0-8.95-3.17-8.95-7.95c0-4.45,3.28-7.56,10.4-7.9l7.06-0.33v-1.17c0-4.39-2.95-6.34-6.9-6.34c-3.89,0-7.01,1.56-7.73,2.06 l-1.39-2.95c1.72-1,5.17-2.56,9.29-2.56c3.84,0,7.67,1.11,9.56,4.62c2.28-2.84,5.73-4.62,9.95-4.62c7.17,0,12.18,5.17,12.18,12.35 c0,0.95-0.17,2.17-0.17,2.17h-20.63c0.06,5.39,3.78,9.17,9.34,9.17c5.12,0,8.79-3.28,8.79-3.28L352.16,95.71z"/> <path d="M359.34,73.35h4.11v4.45c1.22-3.17,3.73-4.95,6.62-4.95c1.72,0,2.78,0.45,2.78,0.45l-0.28,3.89h-0.17 c-0.89-0.39-2.06-0.5-2.84-0.5c-2.39,0-3.95,1.67-4.39,2.28c-1.06,1.5-1.72,3-1.72,6.95v13.51h-4.11V73.35z"/> <polygon points="219.76,153.75 215.64,153.75 215.64,115.38 219.76,115.38 219.76,138.85 231.16,127.67 236.27,127.67 225.77,137.57 237.78,153.75 232.83,153.75 222.98,140.18 219.76,143.24 "/> <path d="M262.97,140.68c0-5.62-3.61-9.95-9.4-9.95c-5.78,0-9.34,4.34-9.34,9.95c0,5.56,3.56,10.01,9.34,10.01 C259.35,150.69,262.97,146.24,262.97,140.68 M240,140.79c0-7.95,5.95-13.63,13.57-13.63c7.62,0,13.63,5.67,13.63,13.63 c0,8.01-6.01,13.51-13.63,13.51C245.95,154.31,240,148.8,240,140.79"/> <path d="M301.39,127.17c7.62,0,9.06,5.39,9.06,10.84v15.74h-4.12v-15.52c0-3.17-0.83-7.51-5.5-7.51c-4.28,0-6.67,4.17-6.67,9.29 v13.73h-4.11v-15.52c0-3.17-0.83-7.51-5.5-7.51c-4.28,0-6.73,4.17-6.73,9.29v13.73h-4.11v-26.08h4.11l-0.06,4.17h0.17 c1.28-2.67,4-4.67,7.17-4.67c5.11,0,7.45,2.39,8.4,5.62C294.61,129.56,297.72,127.17,301.39,127.17"/> <path d="M346.21,127.17c7.62,0,9.06,5.39,9.06,10.84v15.74h-4.12v-15.52c0-3.17-0.83-7.51-5.5-7.51c-4.28,0-6.67,4.17-6.67,9.29 v13.73h-4.11v-15.52c0-3.17-0.83-7.51-5.5-7.51c-4.28,0-6.73,4.17-6.73,9.29v13.73h-4.11v-26.08h4.11l-0.06,4.17h0.17 c1.28-2.67,4-4.67,7.17-4.67c5.11,0,7.45,2.39,8.4,5.62C339.43,129.56,342.54,127.17,346.21,127.17"/> <path d="M384.53,127.61v26.13h-4l-0.06-4.17c-1.17,2.78-4.5,4.61-8.23,4.61c-7.45,0-9.29-4.56-9.29-10.79v-15.79h4.17v15.52 c0,4.84,1.56,7.51,6.39,7.51c4.67,0,6.95-4.01,6.95-8.56v-14.46H384.53z"/> <path d="M414.39,137.96v15.79h-4.11v-15.51c0-4.84-1.56-7.51-6.39-7.51c-4.67,0-7.01,3.84-7.01,8.34v14.68h-4.11v-26.08h4.11v4.23 h0.17c1.17-2.78,4.39-4.73,8.12-4.73C412.61,127.17,414.39,131.73,414.39,137.96"/> <path d="M433.41,130.62c-5.23-0.06-8.06,3.89-8.4,7.95h16.52C441.53,134.9,439.14,130.67,433.41,130.62 M433.57,154.31 c-7.67,0-12.84-5.28-12.84-13.68c0-7.39,5.06-13.46,12.84-13.46c7.17,0,12.12,5.17,12.12,12.35c0,0.95-0.17,2.17-0.17,2.17h-20.57 c0.05,5.39,3.78,9.17,9.34,9.17c5.12,0,8.79-3.28,8.79-3.28l1.78,2.45C442.47,152.86,438.69,154.31,433.57,154.31"/> <path class="st0" d="M20.5,21.03v1.09c0,21.03,1.12,38.36,3.53,54.54c2.69,18.13,7.06,34.83,13.35,51.05 c6.08,15.71,14.24,30.14,24.95,44.12c9.25,12.07,20.57,24.09,35.65,37.83l0.81,0.74l0.73-0.67c15.13-13.73,26.42-25.82,35.69-37.91 c10.73-13.98,18.9-28.41,24.98-44.12c6.29-16.22,10.66-32.92,13.35-51.05c2.41-16.18,3.53-33.51,3.53-54.54v-1.09H20.5z"/> <path class="st1" d="M160.22,53.6c0,0-2.77,3.48-4.11,4.66c-1.19,1.05-2.88,2.22-4.4,2.22c-8.19,0-12.15-9.33-13.43-14.85 c0,0-0.98-4.42-1.49-6.6c-0.51-2.18-2.1-5.71-5.29-8.26c-3.5-2.81-8.38-3.49-11.86-2.83c0,0-81.65,15.49-85.21,16.16 c-0.2,0.04-0.34,0.21-0.34,0.42c0,0.21,0.15,0.39,0.36,0.43l0.1,0.01c0.41,0.06,74.33,9.94,75.01,10.03 c2.02,0.27,2.18,1.12,2.09,1.95c-0.09,0.83-0.2,1.73-0.27,2.32c-0.12,1.01-0.28,2.42-0.74,6.34c-0.41,3.49-2.84,5.48-4.51,6.72 c-1.74,1.28-15.27,11.27-16.79,12.39c-5.09,3.75-8.77,8.79-10.03,15.35c-1.5,7.81-8.18,55.55-10.93,74.31 c8.17,10.08,17.98,20.3,30.41,31.72c1.57-1.44,3.1-2.86,4.59-4.27l-0.04-0.36c-0.48-4.57-2.91-27.63-3.35-32.12l-1.39-13.57 c-0.03-0.3-0.05-0.61-0.05-0.92c0-3.68,2.21-7.03,5.49-8.33l12.93-5.13l1.16,2.95l-12.93,5.13c-2.09,0.83-3.49,2.99-3.49,5.38 c0,0.2,0.01,0.4,0.03,0.6l1.39,13.57c0.4,4.09,2.45,23.55,3.13,30.04c3.31-3.19,6.43-6.32,9.38-9.41l-4.24-16.86l2.89-1.49 l3.92,15.62c3.06-3.3,5.94-6.56,8.67-9.82l-3.14-10.2l2.82-1.58l2.73,8.84c1.15-1.42,2.28-2.84,3.37-4.27 c4.28-5.57,8.14-11.22,11.62-17c-2.48-4.35-10.49-18.42-12.25-21.48c-2.08-3.64-4.53-5.35-6.8-6.41c-3.94-1.84-7.88-1.76-12.39-0.25 c-2.25,0.75-8.09,2.7-8.09,2.7s-0.31-17.87-0.31-20.57c0-2.7,2.64-5.34,4.71-7.07c2.07-1.73,11.35-9.52,17.18-14.4 c1.69-1.42,3.35-3.32,4.43-5.59c1.23-2.61,1.76-5.63,2-7.63c0,0,1.72-13.94,1.84-15.04c1.09,1.66,3.08,3.69,4.24,4.85 c2.78,2.78,7.84,4.3,10.22,4.3c5.02,0,7.6-2.52,9.1-5.02c1.03-1.71,1.25-2.34,1.49-3.21C160.3,55.93,160.22,54.71,160.22,53.6"/> <path class="st0" d="M101.9,39.81c0-1.57,1.27-2.83,2.83-2.83c1.57,0,2.84,1.26,2.84,2.83c0,1.57-1.27,2.83-2.84,2.83 C103.18,42.64,101.9,41.37,101.9,39.81"/> </svg>