<?xml version="1.0" encoding="UTF-8"?>
<!-- Generator: Adobe Illustrator 25.4.1, SVG Export Plug-In . SVG Version: 6.00 Build 0) -->
<svg xmlns="http://www.w3.org/2000/svg" xmlns:xlink="http://www.w3.org/1999/xlink" version="1.1" id="Layer_1" x="0px" y="0px" viewBox="0 0 441.8 143" style="enable-background:new 0 0 441.8 143;" xml:space="preserve"> <style type="text/css"> .st0{fill:#D10A10;} </style> <path class="st0" d="M152.6,0c-7.1,0-11.4,3.3-15.7,10.2L91.7,81.4h23.8l37-59.8l26.9,44.7h-34.9c-4.9,0-7.6,1.2-10.4,5.9l-5.7,9.2 h82.8l-42.9-71.2C164.3,3.6,159.4,0,152.6,0"/> <path class="st0" d="M96.4,1.3L60.1,61.1L23.8,1.3H0l45.2,71.2c4.2,6.6,8.3,10.2,14.9,10.2c6.8,0,10.8-3.6,14.9-10.2l45.2-71.2H96.4 z"/> <path class="st0" d="M296.1,54c11.8-2.6,19.5-12.3,19.5-24.7c0-22.9-18.2-27.9-34.5-27.9h-51.6c-8.7,0-10.6,6-10.6,10.6v69.5h18.7 V57.5h38.4l14.6,18.7c3,3.6,6,5.1,10.6,5.1h18.8L307,65.8C302,60.2,298.6,56,296.1,54 M284.1,41.6h-46.4V21.6c0-1.4,0.8-3.3,3.2-3.3 h43.2c7.6,0,12.2,4.8,12.2,11.9C296.3,36.4,290.9,41.6,284.1,41.6"/> <path class="st0" d="M382.1,1.3h-40.5c-8.7,0-10.6,6-10.6,10.6v58.9c0,4.6,1.8,10.6,10.6,10.6h40.5c26.5,0,43.1-16.9,43.1-40 C425.2,18.3,408.7,1.3,382.1,1.3 M385.5,64.4h-32.6c-2.3-0.1-3.1-1.8-3.1-3.2V21.5c0-1.4,0.8-3.1,3.1-3.2h32.6 c12,0,21.2,9.8,21.2,23S397.5,64.4,385.5,64.4"/> <polygon class="st0" points="426,13.9 426,5 422.9,5 422.9,3.2 430.9,3.2 430.9,5 427.9,5 427.9,13.9 "/> <polygon class="st0" points="440,13.9 440,8.4 437.8,13.9 436.3,13.9 434.1,8.4 434.1,13.9 432.3,13.9 432.3,3.2 434,3.2 437.1,10.9 440.1,3.2 441.8,3.2 441.8,13.9 "/> <polygon points="65.5,112.7 65.5,119.3 76,119.3 76,123.9 65.5,123.9 65.5,134.8 60.2,134.8 60.2,108.1 77.9,108.1 77.9,112.7 "/> <rect x="82.3" y="107.9" width="5" height="4"/> <rect x="82.4" y="115.2" width="4.9" height="19.5"/> <path d="M104.5,134.8V123c0-2.7-1.7-3.6-3.2-3.6c-1.5,0-3.3,0.9-3.3,3.6v11.8h-4.9v-19.5h4.8v1.8c1.3-1.3,3.1-2,4.9-2 c1.9,0,3.5,0.6,4.6,1.7c1.6,1.6,2,3.4,2,5.5v12.5H104.5z"/> <path d="M122.7,135c-3.9,0-8.7-2.1-8.7-10s4.8-10,8.7-10c2.7,0,4.7,0.8,6.5,2.6l-3.3,3.3c-1-1.1-1.9-1.5-3.2-1.5 c-1.2,0-2.1,0.4-2.8,1.3c-0.8,0.9-1.1,2.3-1.1,4.3c0,2.1,0.3,3.4,1.1,4.3c0.7,0.9,1.6,1.3,2.8,1.3c1.3,0,2.1-0.4,3.2-1.5l3.3,3.3 C127.5,134.1,125.4,135,122.7,135"/> <path d="M165,134.8V123c0-2.7-1.7-3.6-3.2-3.6c-1.5,0-3.3,0.9-3.3,3.6v11.8h-4.9v-19.5h4.8v1.8c1.3-1.3,3.1-2,4.9-2 c1.9,0,3.5,0.6,4.6,1.7c1.6,1.6,2,3.4,2,5.5v12.5H165z"/> <path d="M181.6,134.8c-4,0-5.7-2.8-5.7-5.6v-9.7h-2.1v-3.7h2.1V110h4.9v5.8h3.5v3.7h-3.5v9.4c0,1.1,0.5,1.8,1.7,1.8h1.8v4.1H181.6z"/> <rect x="189" y="107.9" width="5" height="4"/> <rect x="189.1" y="115.2" width="4.9" height="19.5"/> <path d="M231.4,120.6c-0.8-0.7-1.4-1.2-2.6-1.2c-1.5,0-3.1,1.1-3.1,3.6v11.8h-4.9v-19.5h4.8v1.9c0.9-1.1,2.8-2.1,4.9-2.1 c1.9,0,3.3,0.5,4.6,1.8L231.4,120.6z"/> <rect x="238.1" y="107.9" width="5" height="4"/> <rect x="238.2" y="115.2" width="4.9" height="19.5"/> <path d="M266.4,135c-4.7,0-8.2-3.2-8.2-9.4c0-6.3,3.5-9.4,8.2-9.4c2.6,0,4.2,0.7,6.1,2.7l-1.8,1.7c-1.4-1.5-2.5-2.1-4.2-2.1 c-1.8,0-3.3,0.7-4.3,2.1c-0.9,1.2-1.2,2.6-1.2,5c0,2.3,0.3,3.7,1.2,4.9c1,1.4,2.5,2.1,4.3,2.1c1.8,0,2.9-0.6,4.2-2.1l1.8,1.8 C270.6,134.3,269,135,266.4,135"/> <path d="M322,134.8v-11.4c0-3.3-1.8-4.9-4.5-4.9c-2.7,0-4.6,1.7-4.6,4.6v11.7h-2.7v-11.4c0-3.3-1.8-4.9-4.5-4.9 c-2.8,0-4.6,1.7-4.6,4.9v11.4h-2.7v-18.4h2.7v2c1.3-1.5,3.2-2.3,5.2-2.3c2.5,0,4.5,1.1,5.7,3.1c1.4-2,3.5-3.1,6.1-3.1 c2,0,3.6,0.6,4.8,1.7c1.3,1.3,2,3,2,5.1v11.8H322z"/> <path d="M41.5,134.8V133c-1.5,1.5-2.9,2-5.3,2c-2.6,0-4.1-0.5-5.2-1.7c-0.9-0.9-1.4-2.3-1.4-3.8c0-3.2,2.3-5.3,6.4-5.3h5.6v-1.8 c0-2.7-1.4-4-4.7-4c-2.4,0-3.6,0.6-4.7,2.1l-1.8-1.7c1.7-2.1,3.5-2.7,6.5-2.7c5,0,7.4,2.1,7.4,6.1v12.5H41.5z M41.5,126.3h-5.2 c-2.8,0-4.1,1.1-4.1,3.3c0,2.1,1.3,3.1,4.2,3.1c1.6,0,3-0.1,4.1-1.2c0.6-0.6,0.9-1.6,0.9-3.2V126.3z M143.2,134.8v-1.7 c-1.3,1.3-2.6,1.9-4.8,1.9c-2.2,0-3.8-0.6-5-1.7c-1.1-1.1-1.6-2.7-1.6-4.4c0-3.1,2.1-5.7,6.7-5.7h4.6v-1c0-2.1-1.1-3.1-3.6-3.1 c-1.9,0-2.7,0.4-3.8,1.6l-3.1-3c1.9-2.1,3.8-2.7,7.1-2.7c5.5,0,8.3,2.3,8.3,6.9v12.9H143.2z M143.1,126.5h-3.9 c-1.8,0-2.7,0.8-2.7,2.2c0,1.3,0.9,2.2,2.8,2.2c1.4,0,2.2-0.1,3.1-0.9c0.5-0.5,0.7-1.3,0.7-2.5V126.5z M203.6,126.5 c0,2.5,1.5,4.3,4.3,4.3c2.1,0,3.2-0.6,4.4-1.8l3,2.9c-2,2-3.9,3.1-7.4,3.1c-4.6,0-9-2.1-9-10c0-6.4,3.4-10,8.5-10 c5.4,0,8.5,4,8.5,9.3v2.2H203.6z M210.6,121.1c-0.5-1.2-1.6-2-3.3-2c-1.7,0-2.7,0.9-3.3,2c-0.3,0.7-0.4,1.2-0.4,2.1h7.4 C211,122.3,210.9,121.8,210.6,121.1 M289.9,132.9c-1.3,1.3-3,2.1-5.3,2.1c-2.2,0-4-0.8-5.3-2.1c-1.9-1.9-2.3-4.5-2.3-7.3 c0-2.9,0.4-5.4,2.3-7.3c1.3-1.3,3-2.1,5.3-2.1c2.3,0,4,0.8,5.3,2.1c1.9,1.9,2.3,4.5,2.3,7.3C292.1,128.4,291.8,131,289.9,132.9 M288,119.9c-0.9-0.9-2.1-1.4-3.4-1.4c-1.3,0-2.5,0.5-3.3,1.4c-1.4,1.3-1.5,3.6-1.5,5.7c0,2.1,0.1,4.3,1.5,5.7 c0.9,0.9,2,1.4,3.3,1.4c1.3,0,2.5-0.5,3.4-1.4c1.4-1.4,1.5-3.6,1.5-5.7C289.4,123.5,289.3,121.2,288,119.9 M344.1,133.4 c-1,1-2.6,1.6-4.5,1.6c-2,0-3.7-0.5-5.2-2.4V143h-2.7v-26.7h2.7v2.2c1.5-2,3.2-2.4,5.2-2.4c1.9,0,3.5,0.6,4.5,1.6 c1.9,1.9,2.3,5,2.3,7.8C346.3,128.4,345.9,131.5,344.1,133.4 M339,118.5c-4,0-4.7,3.4-4.7,7.1c0,3.6,0.6,7.1,4.7,7.1 c4,0,4.6-3.5,4.6-7.1C343.6,122,343,118.5,339,118.5 M363,134.8V133c-1.5,1.5-2.9,2-5.3,2c-2.6,0-4.1-0.5-5.2-1.7 c-0.9-0.9-1.4-2.3-1.4-3.8c0-3.2,2.3-5.3,6.4-5.3h5.6v-1.8c0-2.7-1.4-4-4.7-4c-2.4,0-3.6,0.6-4.7,2.1l-1.8-1.7 c1.7-2.1,3.5-2.7,6.5-2.7c5,0,7.4,2.1,7.4,6.1v12.5H363z M363,126.3h-5.2c-2.8,0-4.1,1.1-4.1,3.3c0,2.1,1.3,3.1,4.2,3.1 c1.6,0,3-0.1,4.1-1.2c0.6-0.6,0.9-1.6,0.9-3.2V126.3z"/> <path d="M384.4,134.8v-11.4c0-3.3-1.8-4.9-4.5-4.9c-2.8,0-4.6,1.7-4.6,4.9v11.4h-2.7v-18.4h2.7v2c1.3-1.5,3.1-2.3,5.2-2.3 c2,0,3.6,0.6,4.7,1.7c1.3,1.3,1.9,3,1.9,5.1v11.8H384.4z"/> <path d="M398.6,139.2c-0.4,1-0.8,1.7-1.3,2.2c-1,0.9-2.3,1.3-3.6,1.3h-1.2v-2.4h0.8c1.9,0,2.4-0.6,3-2.3l1.3-3.6l-6.6-18.1h2.9 l5.1,14.8l5-14.8h2.9L398.6,139.2z"/> </svg>