<?xml version="1.0" encoding="UTF-8"?>
<!-- Generator: Adobe Illustrator 25.4.1, SVG Export Plug-In . SVG Version: 6.00 Build 0) -->
<svg xmlns="http://www.w3.org/2000/svg" xmlns:xlink="http://www.w3.org/1999/xlink" version="1.1" id="Layer_1" x="0px" y="0px" viewBox="0 0 379.6 95.3" style="enable-background:new 0 0 379.6 95.3;" xml:space="preserve"> <path d="M168.3,95.3h-31.4c-0.2,0-0.4-0.1-0.5-0.2c-0.1-0.1-0.2-0.3-0.2-0.5V81.4c0-0.4,0.3-0.8,0.8-0.8h31.2 c0,0,12.5,0.6,12.5-12.5s-12.2-13-12.2-13c-0.2,0-0.3,0-0.5-0.1H103c0,0,0,0,0,0c-0.8-0.1-2.2-0.2-3.9-0.6c-2.9-0.6-5.6-1.6-8.1-2.9 c-9-4.6-13.9-13-13.9-23.7C77.1,0,104.5,0,104.5,0h77.1c0.4,0,0.8,0.3,0.8,0.8V14c0,0.4-0.3,0.8-0.8,0.8h-76.9 c0,0-12.8,0.2-12.8,13.1c0,0-0.9,12.5,11.6,12.5c10.4,0,51.3,0,64.6,0c0,0,27.6,0.4,27.6,27.7C195.7,95.3,168.3,95.3,168.3,95.3"/> <path d="M131.9,60.1v34.4c0,0.4-0.3,0.8-0.8,0.8H91.2c-0.2,0-0.4-0.1-0.6-0.2L0.2,1.3C0,1.1-0.1,0.8,0.1,0.5C0.2,0.2,0.5,0,0.8,0 h19.9c0.2,0,0.4,0.1,0.6,0.2l76.9,80.3h18.8V60.1c0-0.4,0.3-0.8,0.8-0.8h13.3C131.6,59.3,131.9,59.7,131.9,60.1"/> <polygon points="221.6,25.7 224.8,25.7 230.8,42.3 230.9,42.3 237.1,25.7 240.1,25.7 232.1,46.1 229.5,46.1 "/> <path d="M249.3,25.7h2.5l8.7,20.4h-3.2l-2-5h-9.7l-2,5h-3.2L249.3,25.7z M254.3,38.6l-3.8-9.3h-0.1l-3.9,9.3H254.3z"/> <path d="M265.5,41.8c0.5,0.7,1.1,1.3,1.9,1.7c0.8,0.4,1.6,0.5,2.4,0.5c0.5,0,0.9-0.1,1.4-0.2c0.5-0.1,0.9-0.4,1.3-0.6 c0.4-0.3,0.7-0.6,1-1.1c0.2-0.4,0.4-0.9,0.4-1.5c0-0.8-0.2-1.4-0.7-1.8c-0.5-0.4-1.1-0.8-1.9-1c-0.7-0.3-1.5-0.5-2.4-0.8 c-0.9-0.3-1.7-0.6-2.4-1.1c-0.7-0.5-1.4-1.1-1.9-1.9c-0.5-0.8-0.7-1.8-0.7-3.1c0-0.6,0.1-1.2,0.4-1.9c0.3-0.7,0.7-1.3,1.2-1.8 s1.3-1,2.1-1.4c0.9-0.4,1.9-0.6,3.1-0.6c1.1,0,2.2,0.2,3.2,0.5c1,0.3,1.9,0.9,2.7,1.9l-2.2,2c-0.3-0.5-0.8-1-1.5-1.3 c-0.6-0.3-1.4-0.5-2.2-0.5c-0.8,0-1.4,0.1-1.9,0.3c-0.5,0.2-0.9,0.5-1.2,0.8c-0.3,0.3-0.5,0.7-0.6,1c-0.1,0.4-0.2,0.7-0.2,1 c0,0.9,0.2,1.5,0.7,2c0.5,0.5,1.1,0.8,1.9,1.1c0.7,0.3,1.5,0.5,2.4,0.8c0.9,0.2,1.7,0.6,2.4,1c0.7,0.4,1.4,1,1.9,1.7 c0.5,0.7,0.7,1.7,0.7,2.9c0,1-0.2,1.9-0.6,2.6c-0.4,0.8-0.9,1.4-1.5,2c-0.6,0.5-1.4,0.9-2.2,1.2c-0.9,0.3-1.8,0.4-2.8,0.4 c-1.3,0-2.5-0.2-3.7-0.7c-1.2-0.5-2.1-1.2-2.8-2.1L265.5,41.8z"/> <path d="M283.5,41.8c0.5,0.7,1.1,1.3,1.9,1.7c0.8,0.4,1.6,0.5,2.4,0.5c0.5,0,0.9-0.1,1.4-0.2c0.5-0.1,0.9-0.4,1.3-0.6 c0.4-0.3,0.7-0.6,1-1.1c0.2-0.4,0.4-0.9,0.4-1.5c0-0.8-0.2-1.4-0.7-1.8c-0.5-0.4-1.1-0.8-1.9-1c-0.7-0.3-1.5-0.5-2.4-0.8 c-0.9-0.3-1.7-0.6-2.4-1.1c-0.7-0.5-1.4-1.1-1.9-1.9c-0.5-0.8-0.7-1.8-0.7-3.1c0-0.6,0.1-1.2,0.4-1.9c0.3-0.7,0.7-1.3,1.2-1.8 s1.3-1,2.1-1.4c0.9-0.4,1.9-0.6,3.1-0.6c1.1,0,2.2,0.2,3.2,0.5c1,0.3,1.9,0.9,2.7,1.9l-2.2,2c-0.3-0.5-0.8-1-1.5-1.3 c-0.6-0.3-1.4-0.5-2.2-0.5c-0.8,0-1.4,0.1-1.9,0.3c-0.5,0.2-0.9,0.5-1.2,0.8c-0.3,0.3-0.5,0.7-0.6,1c-0.1,0.4-0.2,0.7-0.2,1 c0,0.9,0.2,1.5,0.7,2c0.5,0.5,1.1,0.8,1.9,1.1c0.7,0.3,1.5,0.5,2.4,0.8c0.9,0.2,1.7,0.6,2.4,1c0.7,0.4,1.4,1,1.9,1.7 c0.5,0.7,0.7,1.7,0.7,2.9c0,1-0.2,1.9-0.6,2.6c-0.4,0.8-0.9,1.4-1.5,2c-0.6,0.5-1.4,0.9-2.2,1.2c-0.9,0.3-1.8,0.4-2.8,0.4 c-1.3,0-2.5-0.2-3.7-0.7c-1.2-0.5-2.1-1.2-2.8-2.1L283.5,41.8z"/> <path d="M300.9,25.7h7.1c0.9,0,1.7,0.1,2.5,0.3c0.8,0.2,1.4,0.5,2,0.9c0.5,0.4,1,0.9,1.3,1.6c0.3,0.6,0.5,1.4,0.5,2.3 c0,1.2-0.3,2.1-1,2.9c-0.7,0.7-1.5,1.3-2.5,1.6v0.1c0.6,0,1.2,0.2,1.7,0.5c0.5,0.3,1,0.6,1.4,1.1c0.4,0.5,0.7,1,0.9,1.6 c0.2,0.6,0.3,1.2,0.3,1.9c0,0.9-0.2,1.7-0.6,2.4c-0.4,0.7-0.9,1.3-1.5,1.8s-1.4,0.8-2.3,1.1c-0.9,0.2-1.8,0.4-2.8,0.4h-7V25.7z M303.7,34.2h3.8c0.5,0,1-0.1,1.5-0.2c0.5-0.1,0.9-0.3,1.2-0.5c0.3-0.2,0.6-0.6,0.8-0.9c0.2-0.4,0.3-0.9,0.3-1.4 c0-0.8-0.3-1.5-0.8-2.1c-0.5-0.6-1.3-0.9-2.4-0.9h-4.3V34.2z M303.7,43.7h4.1c0.4,0,0.9,0,1.4-0.1c0.5-0.1,1-0.3,1.4-0.5 c0.4-0.3,0.8-0.6,1.1-1.1c0.3-0.4,0.5-1,0.5-1.8c0-1.2-0.4-2.1-1.2-2.7c-0.8-0.6-1.9-0.9-3.2-0.9h-4.1V43.7z"/> <path d="M327.1,25.7h2.5l8.7,20.4h-3.2l-2-5h-9.7l-2,5h-3.2L327.1,25.7z M332.1,38.6l-3.8-9.3h-0.1l-3.9,9.3H332.1z"/> <polygon points="342.7,25.7 345.5,25.7 345.5,34.5 345.7,34.5 354.7,25.7 358.5,25.7 348.7,35.1 359.2,46.1 355.2,46.1 345.7,35.9 345.5,35.9 345.5,46.1 342.7,46.1 "/> <polygon points="363.1,25.7 365.8,25.7 365.8,34.5 366.1,34.5 375.1,25.7 378.9,25.7 369.1,35.1 379.6,46.1 375.5,46.1 366.1,35.9 365.8,35.9 365.8,46.1 363.1,46.1 "/> <path d="M242.3,80.6h-3.7l-2.5-2.7c-0.9,1-1.8,1.8-2.7,2.4c-1,0.6-2.1,0.8-3.5,0.8c-1.1,0-2.1-0.2-3-0.5c-0.8-0.3-1.5-0.8-2.1-1.3 c-0.5-0.6-0.9-1.2-1.2-1.9c-0.3-0.7-0.4-1.4-0.4-2.2c0-0.7,0.1-1.4,0.4-1.9c0.2-0.6,0.6-1.1,1-1.6c0.4-0.5,0.9-0.9,1.5-1.3 c0.6-0.4,1.2-0.7,1.8-1c-0.7-0.7-1.2-1.4-1.7-2.1c-0.5-0.7-0.7-1.6-0.7-2.6c0-0.8,0.1-1.4,0.4-2c0.3-0.6,0.7-1.1,1.2-1.5 c0.5-0.4,1.1-0.7,1.7-0.9s1.3-0.3,2.1-0.3c0.7,0,1.4,0.1,2,0.3c0.6,0.2,1.2,0.5,1.7,0.9c0.5,0.4,0.9,0.9,1.1,1.4 c0.3,0.6,0.4,1.2,0.4,2c0,0.6-0.1,1.2-0.4,1.7c-0.2,0.5-0.6,1-1,1.4c-0.4,0.4-0.9,0.8-1.4,1.2c-0.5,0.3-1,0.6-1.5,0.9l4,4.2l2.6-4.2 h3.1l-3.9,6.1L242.3,80.6z M229.5,71c-0.4,0.2-0.8,0.5-1.2,0.7c-0.4,0.3-0.8,0.6-1.1,0.9c-0.3,0.3-0.6,0.7-0.8,1.1 c-0.2,0.4-0.3,0.9-0.3,1.4c0,0.5,0.1,1,0.3,1.4c0.2,0.4,0.5,0.8,0.9,1.1c0.4,0.3,0.8,0.6,1.2,0.8c0.4,0.2,0.9,0.3,1.4,0.3 c0.5,0,1-0.1,1.4-0.2c0.4-0.2,0.8-0.4,1.2-0.6c0.4-0.2,0.7-0.5,1-0.8c0.3-0.3,0.6-0.6,0.9-0.9L229.5,71z M233.3,64.5 c0-0.7-0.2-1.2-0.7-1.6c-0.5-0.4-1.1-0.6-1.8-0.6c-0.7,0-1.4,0.2-1.9,0.6c-0.5,0.4-0.8,1-0.8,1.8c0,0.3,0.1,0.7,0.2,1 c0.1,0.3,0.3,0.6,0.5,0.9c0.2,0.3,0.4,0.6,0.6,0.8c0.2,0.2,0.5,0.5,0.7,0.7c0.3-0.2,0.7-0.4,1.1-0.6c0.4-0.2,0.7-0.5,1-0.8 c0.3-0.3,0.6-0.6,0.8-1C233.2,65.3,233.3,64.9,233.3,64.5"/> <path d="M257.2,76.3c0.5,0.7,1.1,1.3,1.9,1.7c0.8,0.4,1.6,0.5,2.4,0.5c0.5,0,0.9-0.1,1.4-0.2c0.5-0.1,0.9-0.4,1.3-0.6 c0.4-0.3,0.7-0.6,1-1.1c0.2-0.4,0.4-0.9,0.4-1.5c0-0.8-0.2-1.4-0.7-1.8c-0.5-0.4-1.1-0.8-1.9-1c-0.7-0.3-1.5-0.5-2.4-0.8 c-0.9-0.3-1.7-0.6-2.4-1.1c-0.7-0.5-1.4-1.1-1.9-1.9c-0.5-0.8-0.7-1.8-0.7-3.1c0-0.6,0.1-1.2,0.4-1.9c0.3-0.7,0.7-1.3,1.2-1.8 s1.3-1,2.1-1.4c0.9-0.4,1.9-0.6,3.1-0.6c1.1,0,2.2,0.2,3.2,0.5c1,0.3,1.9,0.9,2.7,1.9l-2.2,2c-0.3-0.5-0.8-1-1.5-1.3 c-0.6-0.3-1.4-0.5-2.2-0.5c-0.8,0-1.4,0.1-1.9,0.3c-0.5,0.2-0.9,0.5-1.2,0.8c-0.3,0.3-0.5,0.7-0.6,1c-0.1,0.4-0.2,0.7-0.2,1 c0,0.9,0.2,1.5,0.7,2c0.5,0.5,1.1,0.8,1.9,1.1c0.7,0.3,1.5,0.5,2.4,0.8c0.9,0.2,1.7,0.6,2.4,1c0.7,0.4,1.4,1,1.9,1.7 c0.5,0.7,0.7,1.7,0.7,2.9c0,1-0.2,1.9-0.6,2.6c-0.4,0.8-0.9,1.4-1.5,2c-0.6,0.5-1.4,0.9-2.2,1.2c-0.9,0.3-1.8,0.4-2.8,0.4 c-1.3,0-2.5-0.2-3.7-0.7c-1.2-0.5-2.1-1.2-2.8-2.1L257.2,76.3z"/> <polygon points="278.9,62.8 272.3,62.8 272.3,60.2 288.2,60.2 288.2,62.8 281.6,62.8 281.6,80.6 278.9,80.6 "/> <path d="M302.2,81.1c-1.6,0-3-0.3-4.3-0.8c-1.3-0.5-2.4-1.3-3.3-2.3c-0.9-1-1.7-2.1-2.2-3.4c-0.5-1.3-0.8-2.7-0.8-4.2 c0-1.5,0.3-2.9,0.8-4.2c0.5-1.3,1.3-2.4,2.2-3.4c0.9-1,2-1.7,3.3-2.3c1.3-0.5,2.7-0.8,4.3-0.8c1.6,0,3,0.3,4.3,0.8 c1.3,0.5,2.4,1.3,3.3,2.3c0.9,1,1.7,2.1,2.2,3.4c0.5,1.3,0.8,2.7,0.8,4.2c0,1.5-0.3,2.9-0.8,4.2c-0.5,1.3-1.3,2.4-2.2,3.4 c-0.9,1-2,1.7-3.3,2.3C305.2,80.8,303.7,81.1,302.2,81.1 M302.2,78.5c1.2,0,2.2-0.2,3.2-0.6c0.9-0.4,1.7-1,2.4-1.7 c0.7-0.7,1.2-1.6,1.6-2.6c0.4-1,0.5-2,0.5-3.1s-0.2-2.2-0.5-3.1c-0.4-1-0.9-1.8-1.6-2.6c-0.7-0.7-1.5-1.3-2.4-1.7 c-0.9-0.4-2-0.6-3.2-0.6c-1.2,0-2.2,0.2-3.2,0.6c-0.9,0.4-1.7,1-2.4,1.7c-0.7,0.7-1.2,1.6-1.6,2.6c-0.4,1-0.5,2-0.5,3.1 s0.2,2.2,0.5,3.1c0.4,1,0.9,1.8,1.6,2.6c0.7,0.7,1.5,1.3,2.4,1.7C300,78.3,301,78.5,302.2,78.5"/> <polygon points="318.5,60.2 321.3,60.2 321.3,78 330.6,78 330.6,80.6 318.5,80.6 "/> </svg>