<?xml version="1.0" encoding="UTF-8"?>
<!-- Generator: Adobe Illustrator 25.4.1, SVG Export Plug-In . SVG Version: 6.00 Build 0) -->
<svg xmlns="http://www.w3.org/2000/svg" xmlns:xlink="http://www.w3.org/1999/xlink" version="1.1" id="Layer_1" x="0px" y="0px" viewBox="0 0 485.2 176.5" style="enable-background:new 0 0 485.2 176.5;" xml:space="preserve"> <path d="M94.2,45.6c0.4,0.1,0.5,0.4,0.9,0.6c0.1,0.4,0.2,0.9,0.7,1.1c0.1,0.3,0,0.6-0.1,0.9c-0.1,0.9,0.2,1.6,0,2.6 c0,0.2,0,0.4-0.1,0.8c-0.1,0.6-0.6,1.2-0.6,2c-0.1,0.2-0.3,0.4-0.4,0.6c0,0.1-0.2,0.1-0.3,0.2c-0.7,1-1.8,1.5-2.7,2.3 c-0.2,0.4-0.4,0.8-0.7,1.1c0.2,0.6,0.5,1,1.1,1.2c0.3,0.6,1.1,0.6,1.5,1.1c0.3,0,0.3,0,0.5,0l0.1,0.1c0.1,0.1,0.2,0.2,0.3,0.4 c0.7,0.2,1.1,0.9,1.8,1.3c0.1,0.2,0.2,0.3,0.2,0.5c0.3,0.4,0.7,0.7,0.8,1.4c0.5,0.6,0.5,1.1,0.6,1.9C98,66,98,66.2,98,66.6 c0.2,0.2,0.1,0.4,0.2,0.6c0,0.3-0.1,0.4,0.1,0.7c-0.4,0.2-0.3,0.8-0.3,1.2c0.2,0.1,0.2,0.1,0.4,0.1c-0.1,0.1,0.1,0.4,0.1,0.6 c-0.1,0.1-0.3,0-0.4,0.1c-0.2,0.5-0.5,1.1-0.3,1.6c-0.2,0.3,0.1,0.6-0.2,0.8c0,0.3,0,0.7-0.1,1c-0.1,0.4-0.2,0.6-0.3,1 c0,0.2,0,0.4-0.1,0.5c0,0.2-0.3,0.5-0.1,0.7c-0.1,0.6-0.2,0.8-0.5,1.4c0,0.7-0.2,1.1-0.5,1.7c0.1,0.7-0.3,1.4-0.6,2 c-0.2,1.5-1,2.5-1.1,4c-0.1,0.1-0.2,0.4-0.3,0.5c-0.1,0.2-0.3,0.3-0.5,0.5c0.1,0.9-0.3,1.8-0.8,2.2c-0.1,0.6-0.4,1-0.6,1.5 c0,0.3-0.1,0.4-0.1,0.7c-0.4,0.7-0.7,1.3-1,2.1c-0.1,0.1-0.1,0.3-0.2,0.3c-0.1,0.9-0.6,1.3-0.9,2.1c-0.3,0.3-0.3,0.8-0.6,1.1 c0,0.2,0,0.3-0.1,0.5c-0.7,0.7-1.1,1.6-1.7,2.4c0.1,0.2-0.1,0.5-0.3,0.6c-0.1,0.9-1,1.2-1.2,2.2c-0.5,0.7-0.8,1.5-1.3,2 c-0.4,1-1.1,1.6-1.7,2.4c-0.2,0-0.2,0.1-0.3,0.1c-0.1,0.4-0.5,0.5-0.6,1c-0.4,0.5-0.7,1-1.2,1.4c-0.4,0.8-1,1.2-1.4,2 c-0.4,0.2-0.6,0.5-0.8,0.9c-0.6,0.6-1.1,1.4-1.6,2.1c-0.6,0.4-1.1,0.9-1.5,1.4c-0.1,0.1-0.2,0.1-0.3,0.2c-0.2,0.3-0.6,0.6-0.8,0.9 c0,0.1-0.3,0.6-0.3,0.6c-0.1,0.3,0.2,0.5,0.1,0.8c-0.2,0.1-0.5,0.2-0.7,0.4c-0.1-0.1,0.1-0.5,0.1-0.6c-0.7,0-0.9,1.2-1.7,1.1 c-0.6,0.6-1.1,1.2-1.8,1.6c0,0,0.1,0.1,0.1,0.2c0,0.1-0.2,0.1-0.2,0c-0.7,0.6-1.6,1.1-2.2,1.8c-1.7,0.8-2.6,2.3-4.4,3 c0,0.2-0.2,0.2-0.4,0.3c-0.4,0.5-0.7,0.9-1.4,1.1c-0.4,0.3-0.8,0.7-1.3,1c0,0.2-0.2,0.2-0.2,0.4c-0.9,0.5-1.7,1.2-2.5,1.9 c-0.9,0.1-1.3,0.8-1.9,1.3c-0.3-0.1-0.5,0.1-0.7,0.3c0.1,2,0,4.7,0.1,7.6c0,1.5,0,2.9,0,4.8c0,0.2,0.1,0.1,0.1,0.3 c0,0.1,0,0.4-0.1,0.6c0.2,0.3,0,0.7,0.1,1.1c0,1.8,0,4,0.1,6.4c0,1,0,2,0.1,2.9c-0.2,0.3,0,0.7,0.1,1.1c0,0.1-0.1,0.2-0.1,0.3 c0,0.2,0,0.7,0.1,1c0,0.3,0.2,0.6-0.2,0.7c0.2,0.4,0.5,0.8,0.6,1.4c0,0.2-0.2,0.2-0.2,0.3c0.1,0.3,0.2,0.7,0.3,1 c-0.1,0.2-0.3,0.3-0.5,0.4c0,0.1,0,0.1-0.1,0.1c0,0.2,0,0.3,0.1,0.5c0,1.3-0.1,2.2-0.1,3c0,0.1,0.1,0.2,0.1,0.3l-0.1,0.1 c0,0.2,0.2,0.7,0,1c0.1,0.1,0,0.1,0.1,0.3c-0.1,0.1,0.1,0.2-0.1,0.3c0.1,0.2,0.2,0.4,0,0.6c0.1,0.1,0,0.2,0.1,0.4 c0,0.3-0.1,0.4,0.1,0.6c-0.1,0.6,0,1.1,0,1.5c0,0.1,0,0.1-0.1,0.1c0.1,0.9,0.1,1.8,0.1,2.9c0,0.1-0.1,0.2-0.1,0.2l0.1,0.1 c0,0.1-0.1,0.2-0.1,0.3c0,0.4,0.1,0.9,0.1,1.3c0,0.2-0.2,0.1-0.2,0.3c0.3,0.6,0.1,1.1,0.2,1.8c0.3,0,0.3-0.3,0.5-0.5 c0.8-0.4,1-1.2,1.6-1.5c0.1-0.3,0.3-0.4,0.4-0.7c0.6-0.1,0.7-0.8,1.3-1c0-0.2,0.2-0.2,0.2-0.5c0.1-0.1,0.2-0.2,0.4-0.3 c0-0.3,0.4-0.4,0.3-0.6h0.2c0.2-0.4,0.6-0.6,0.8-1.1c0.2,0,0.1-0.2,0.4-0.2c0.1-0.2,0.3-0.4,0.4-0.6c1.4-1.1,2.5-2.3,3.6-3.7 c0.5-0.1,0.6-0.5,0.9-0.8v-0.3c0.2-0.3,0.3-0.5,0.4-0.7c-0.2-0.3,0-0.4,0-0.8c0.4-0.4,0.8-0.1,1.5-0.2c0.1-0.3,0.3-0.2,0.4-0.6 c0.2,0,0.2-0.1,0.3-0.1c0.8-0.9,1.5-1.9,2.4-2.7c0-0.1,0-0.1-0.1-0.2c0.1-0.1,0.3-0.1,0.3-0.3c0-0.4-0.4-0.3-0.6-0.6 c0-0.1,0.1-0.1,0.2-0.2c0.4,0.2,0.7,0.4,1.2,0.2c0.1-0.1,0.1-0.2,0.2-0.4c0.3,0,0.4-0.4,0.7-0.5c0-0.1-0.1-0.1-0.1-0.2 c0.7-0.2,0.8-1,1.5-1.3c0-0.1,0.1-0.2,0.1-0.3c0.3-0.3,0.7-0.7,1-1c0.4-1,1.5-1.4,1.9-2.4c0.3-0.2,0.4-0.5,0.7-0.6v-0.2 c0.7-0.6,1.2-1.4,1.9-2c0.1-0.3,0.3-0.5,0.6-0.6c0.3-0.5,0.6-0.8,1-1.2c0.3-0.4,0.6-0.8,1-1.2c0-0.1-0.1-0.1,0-0.2 c0-0.1,0.2,0,0.2-0.1c0.1-0.2,0.2-0.3,0.3-0.6c0.2-0.3,0.6-0.7,0.7-1.1c0.4-0.2,0.6-0.6,0.8-1c-0.1-0.1-0.1-0.4-0.3-0.5 c0-0.1,0.2-0.2,0.3-0.3c0.2,0.1,0.4,0.1,0.6,0c0.1-0.6,0.7-0.8,1.1-1.2c0.3-0.4,0.6-0.9,1-1.2c0.6-1.1,1.6-1.8,2-3.1 c0.2-0.3,0.5-0.6,0.7-0.9c0.1,0,0.2-0.1,0.4-0.1c0.3-0.5,0.7-0.9,1-1.5c0.1,0,0.2-0.1,0.3-0.2c0.5-1,1.2-1.8,1.8-2.7 c1-1.4,1.9-3,3-4.4c0-0.2,0.1-0.3,0.2-0.4v-0.3c0.1-0.1,0.2-0.3,0.3-0.3c0-0.5,0.5-1,0.7-1.5c0.1-0.2,0.3-0.2,0.3-0.5 c0.1-0.1,0.1-0.1,0.2-0.2c0.3-0.7,0.7-1.1,1.1-1.7c-0.1-0.1,0.1-0.2,0-0.2c0.4-0.3,0.5-0.9,0.9-1.2c0-0.2,0.1-0.3,0.2-0.4 c-0.1-0.2,0.2-0.3,0-0.4c0.6-0.7,0.6-1.5,1.2-2.2c-0.2-0.1-0.4-0.3-0.6-0.6c0.1-0.1,0-0.6,0.3-0.7c-0.2-0.4,0.5-0.8,0.5-1.2 c0.4-0.3,0.9-0.6,1.4-0.8c0-0.4,0-0.5-0.2-0.8c0.1-0.1,0-0.3,0-0.4c0-0.1,0.1-0.1,0.1-0.2c0-0.4-0.4-1,0.1-1.5 c0.2,0,0.4-0.1,0.6-0.2c0.2,0,0.6,0.2,0.9,0.1c0.1-0.4,0.4-0.7,0.6-1c0-0.1,0-0.2-0.1-0.2c0.2-0.1,0.4-0.5,0.5-0.8 c0.1-0.1,0.2-0.1,0.4-0.2c0-0.5,0-0.4,0.1-0.8c0.3-0.2,0.3-0.8,0.6-1c0-0.1,0-0.1-0.1-0.1c0.2-0.4,0.4-1.2,0.8-1.6 c0.3-0.2,0.5-0.4,0.9-0.6c0.1-0.2,0.3-0.3,0.5-0.5c0-0.1,0-0.1,0.1-0.1c0-0.3,0.3-0.7,0-1.1c0.1-0.2,0-0.3,0.1-0.6 c0-0.1,0.1-0.3-0.1-0.3c0.2-0.4-0.1-1.2,0.4-1.6c0-0.5,0.1-0.9,0.2-1.2c0.2-0.2,0.3-0.6,0.5-0.7c0-0.1,0-0.1-0.1-0.1 c0.2,0,0.2-0.5,0.2-0.7c0.3-0.2,0-0.4,0.3-0.5c-0.1-0.5,0.4-1,0.4-1.5c0.2-0.2,0.2-0.6,0.3-0.6c0-0.1,0-0.1,0.1-0.2 c0-0.1,0-0.1-0.1,0c0.3-0.7,0.5-1.4,0.6-2c0.4-1.2,0.7-2.3,0.9-3.5c0.1,0,0.2-0.4,0.3-0.6l-0.1-0.1c0,0,0.1-0.1,0.2-0.3 c0-0.1-0.1-0.2-0.1-0.4c0.3-0.5,0.3-1,0.5-1.7c-0.1-0.2,0-0.2-0.1-0.3c0-0.1,0.1-0.1,0.2-0.2c0.2-1.1,0.3-2.2,0.5-3.2 c0-0.2,0.2-0.2,0.2-0.4c-0.1,0-0.1-0.1-0.3-0.1c0.1-0.3-0.2-0.5-0.3-0.5c0.2-0.2-0.2-0.3,0-0.6c0-0.3,0.4,0,0.4-0.3 c0.2,0,0.2,0.1,0.4,0c0.2-0.3,0-0.9,0.1-1c0.1-1.3,0.3-2.9,0.4-4.7c0-0.2,0.1-0.2,0.1-0.3c0-0.7-0.1-1.2,0.1-1.9 c-0.2-0.4,0.2-0.7-0.1-1c0.2-0.4-0.1-1.1,0.2-1.5c-0.1-0.1,0-0.4-0.1-0.4c0.2-0.7-0.2-1.4,0.2-2.3c0-0.5-0.1-1.1,0.1-1.5 c-0.1-0.3-0.2-0.7-0.1-1c-0.1-0.2-0.2-0.3-0.3-0.5c0-0.1,0.1,0,0.1,0.1c0.1-0.4-0.6-0.6-0.8-0.9c0.1-0.5-0.1-1,0.6-1.3 c0-1.2-0.2-2.2-0.2-3.3c0-0.1-0.2-0.1-0.2-0.3c-0.1,0-0.2-0.1-0.3,0c-0.4-0.2-0.8-0.4-0.9-0.8c-0.2,0-0.2-0.3-0.4-0.3 c-0.2-0.6,0-1.4-0.2-2.1c0-0.7,0-1.5,0.4-2c-0.3-0.5,0.2-0.9,0.4-1.4c0.3,0.2,0.3-0.2,0.7-0.1c0.1-0.3-0.1-0.9-0.1-1.3 c0-0.2,0.1-0.5-0.1-0.4c0.1-0.2-0.1-0.5-0.2-0.9c-0.2-0.1-0.2-0.2-0.5-0.2c0.1-0.4,0.1-0.5,0.3-0.8c-0.5-1.4-0.5-2.5-0.9-3.8 c-0.2-0.1-0.3,0-0.4,0.1c-0.4-0.4-0.1-0.8,0-1.3c0-0.3-0.3-0.5-0.2-0.8c-0.1-0.2-0.3-0.4-0.2-0.7c-0.2-0.1-0.1-0.2-0.3-0.2 c0-0.2,0-0.3-0.1-0.5c0,0,0.1,0,0.1-0.1h-0.1c0,0-0.1-0.3-0.1-0.4s0.1-0.1,0.1-0.2c-0.1-0.2-0.1-0.2-0.2-0.3c0-0.1,0.1-0.1,0.1-0.3 c-0.5-0.9-0.8-2.1-1.2-3c-0.1-0.2-0.4-0.1-0.2-0.4c-0.4-0.1-0.5-0.6-0.6-1c-0.1-0.2,0.2,0,0.2-0.2c-0.1-0.2-0.2-0.3-0.3-0.4 c-0.2-1.1-1.1-2-1.5-3.1c-0.4,0.1-0.6,0.4-0.9,0.7c-0.3,0-0.4,0-0.7,0.1c-0.3-0.1-0.5-0.3-0.6-0.7c-0.2,0-0.2-0.1-0.3-0.1 c-0.9-0.7-2.3-0.9-3.1-1.7c0-0.2-0.1-0.3-0.2-0.5c0.4-1.1,0.5-2.3,0.3-3.3c-0.4-0.7-0.9-1.3-1.5-1.9c0.1-0.3-0.2-0.4-0.3-0.7 c-0.3-0.1-0.7-0.1-0.9-0.4c0.2-0.2-0.2-0.5,0.1-0.8c-0.1-0.2-0.4-0.2-0.6-0.4c-0.3-0.2-0.3-0.6-0.7-0.7c0.5-0.3,0.8-0.7,1.2-1.1 c0.2,0.1,0.3,0,0.5,0c0.2-1.2-1.1-1.3-1.3-2.2c-0.2-0.1-0.2-0.2-0.4-0.3c-0.5-0.8-1.3-1.5-2-2.1c-0.7-0.7-1.3-1.4-2.2-1.9 c-0.1-0.2-0.2-0.2-0.3-0.4c-0.1,0-0.2-0.1-0.3-0.1c-0.9-0.9-2-1.6-3.2-2.3c0,0-0.1-0.1-0.1-0.2c-0.3-0.1-0.6-0.3-0.7-0.5 c-0.6-0.3-1.3-0.5-1.8-0.9c-0.3-0.2-0.5-0.5-0.9-0.6c-0.5-0.6-1.5-0.7-2.1-1.2c-0.8-0.1-1.1-0.9-2-1h-0.6c-0.5-0.2-1.1-0.7-1.7-0.7 C81,7,80.7,7,80.6,6.7c-0.4,0.1-1.4,0.2-1.7,0.1c-0.5,0.4-0.7,1-1,1.5c0,1,0.2,1.7-0.1,2.5c-0.6,0.1-1.1,0-1.6,0.1 c-0.7,0.1-1,0.6-1.4,0.9c0,0.2-0.2,0.3-0.2,0.5c-0.2,0.1-0.3,0.3-0.6,0.4c-1.1,0.1-1.3-0.9-2.2-0.9c-0.2,0-0.3,0.2-0.5,0.1 c-0.7-0.2-1-1-1.8-0.9c-0.5,0.1-0.7,0.8-1.1,1.2c0,0.4-0.1,0.9,0.1,1.1c-0.3,0.5-1,0.6-1.3,1c-0.1,0.4-0.2,0.4-0.2,0.9 c0,0,0,0.1,0.1,0.1c0.1,0.1,0.3,0.1,0.5,0.2h0.2c0.1,0.1,0.1,0.1,0.2,0.2c0.1,0,0.2,0,0.3,0c0.1,0,0.2,0.1,0.3,0.2 c0.1,0,0.3,0,0.5,0.1c0.2,0,0.3,0.2,0.5,0.2c0.1,0,0.3,0,0.4,0.1c0.2,0.1,0.4,0.2,0.6,0.3c0.7,0.3,1.3,0.5,1.9,1 c1.5,0.3,2.4,1.1,3.8,1.6c0.8,0.7,1.6,1.4,2.7,1.9c0.5,0.4,1.1,0.8,1.5,1.3h0.2c1.3,0.9,2.3,2,3.8,2.8c0.4,0.5,0.8,1,1.2,1.4 c0.7,0.8,1.7,1.4,2.5,2.4c0.9,1.3,2.1,2.2,2.8,3.6c0.4,0.4,0.7,0.9,1,1.4c0.6,0.6,1.7,1.8,1.6,2.8c0.4,0.5,0.6,1.1,1.1,1.5 c0.1,0.3,0.2,0.6,0.4,0.9c0.1,0.4,0.2,0.8,0.4,1.1c0,0.5,0.3,1,0.6,1.5c0.1,0.2-0.2,0-0.1,0.2c0.1,0.2,0.1,0.4,0.3,0.6 c-0.1,0.6,0.4,1.4-0.3,1.8C94.2,45.1,94.1,45.3,94.2,45.6"/> <path d="M58.9,1.3c0,0.2,0.2,0.4,0.2,0.6c0.3,0.2,1,0.5,1.6,0.4c0.2-0.2,0.4-0.1,0.8-0.3c0.2-0.1,0.4,0,0.4-0.3s-0.3-0.3-0.6-0.3 C60.9,1.1,59.6,1.1,58.9,1.3"/> <path d="M12.9,85.3c0.3,0.2,0.6,0.4,0.9,0.7c1,0.7,1.8,1.7,2.6,2.4c0.7,0.4,1.4,0.8,1.9,1.4c0.4,0.1,0.6,0.4,0.9,0.5 c0.7,0.6,1.5,1,2.1,1.6c2.3,0.9,4,2.1,6.3,3c0.4,0.3,0.9,0.5,1.3,0.8c1,0.1,2,0.5,2.8,1.1c0.4,0,1,0.2,1.5,0.3 c0.3,0.1,0.6,0,0.8,0.1c0.4,0.1,0.8,0.5,1.3,0.6c0.2-0.1,0.4,0.1,0.5-0.1c1.3,0.4,2.7,0.6,4.1,0.8c0.6,0.1,1.3,0.1,1.9,0.2 c0.4,0.1,0.7,0.2,1.1,0.3c0.3,0.1,0.6,0.1,0.9,0.2c0.5-0.1,0.9,0.1,1.4,0.2c0.7,0.1,1.5-0.2,2.3-0.2c0.4,0,0.7,0,1,0 s0.6,0.2,0.9,0.2c0.2,0,0.3-0.1,0.5-0.2c0.8-0.1,1.6,0,2.2-0.4c0.2,0,0.4,0,0.6,0.1c0.6-0.2,1.2-0.5,1.9-0.4 c1.1-0.5,2.6-0.6,3.5-1.3c0-0.2,0.2-0.2,0.2-0.3c0.6,0,0.9-0.3,1.4-0.4c0.3,0,0.6,0,0.8-0.1c0.4-0.2,0.9-0.4,1.4-0.6 s0.9-0.4,1.3-0.7c0.5-0.1,0.7-0.4,1.2-0.6c0.1-0.3,0.5-0.2,0.5-0.6c1.3-0.6,2.5-1.3,3.6-2.2c1.2-0.6,2-1.5,3.1-2.2 c0.6-0.7,1.4-1.3,2.2-1.9c0.7-0.6,1.3-1.3,2.1-1.9c0-0.2,0.2-0.2,0.1-0.3c0.1,0,0.2-0.1,0.3-0.2H49.1c-0.7,0.3-1.7,0.1-2.6,0.2 c-0.3-0.1-0.6-0.1-1,0c-0.3,0.5-0.7,1-1,1.5C44.3,86.8,44.2,87,44,87c-0.3-0.2-0.5-0.5-0.8-0.7c0.2-0.2,0-0.5,0.2-0.8 c-0.2-0.1-0.3-0.2-0.5-0.3L12.9,85.3z"/> <path d="M70,71.2c-0.1,0.7-0.5,1.1-0.8,1.8c-0.6,0.5-0.9,1.3-1.4,2c-0.4,0.3-0.7,0.6-0.9,1.1c-0.5,0.4-1,0.8-1.3,1.3 c-1,0.8-2.1,1.6-3.1,2.5c-0.5,0.1-0.8,0.4-1.1,0.7h-0.3c-0.3,0.4-0.7,0.7-1.2,0.9c-0.3,0.4-1,0.5-1.3,0.9c-0.2,0-0.2,0.1-0.4,0.1 c-0.8,0.6-1.8,1-2.9,1.3c-0.2,0.2-0.5,0.3-0.8,0.3c-0.1,0.1-0.2,0.1-0.3,0.2c-0.8,0.1-1.4,0.2-2,0.6c-0.6,0-0.6,0.2-1.1,0.2 c-0.3,0.2-0.7,0.3-1.2,0.3c-0.1,0,0.1,0.1-0.1,0.1c-0.3,0-0.5,0.1-0.9,0c0,0-0.1,0-0.1,0.1H76c0.2-0.2,0.3-0.5,0.6-0.6 c0-0.2,0.2-0.3,0.2-0.4c-0.1-0.5,0.1-1,0.4-1.5c0.2-0.2,0.5-0.3,0.7-0.5c-0.1-0.5,0.1-1,0.5-1.4c0.3,0.1,0.4,0.2,0.7,0.3 c0.1-0.1,0.3-0.1,0.5-0.1c0.6-0.9,1.2-1.7,1.5-2.6c0.2-0.1,0.1-0.3,0.3-0.4c-0.1-0.9,0.9-1.4,0.8-2.3c0.3-0.7,0.6-1.4,0.7-2.1 c0.1-0.1,0.2-0.3,0.3-0.4c0-0.7,0.3-1.4,0.5-2.1L70,71.2z M38.3,71.2c0.4,0.2,0.7,0.4,1.1,0.6c0.3,0.2,0.6,0.3,1,0.5 c0.4,0.1,0.9,0.1,1.3,0.4c0.3-0.3,0.4-0.3,0.8-0.5c0.2,0.2,0.8,0.3,1.1,0.3c0.1,0.3,0.5,0.4,0.6,0.7c0.4,0.1,0.7,0.1,1.1,0.1 c0.4,0.3,1,0.1,1.5,0.1c0.1,0,0.3,0.1,0.4,0.1c0.8,0.1,1.6-0.1,2-0.4c0.2,0,0.2,0,0.5,0.1c0.8-0.2,1.8-0.4,2.4-0.6 c1-0.6,2.1-1,3.2-1.1c0.1-0.1,0.2-0.1,0.3-0.2L38.3,71.2z M3.8,71.2c0,0.1,0.1,0.2,0.1,0.3c0,0.3,0.1,0.4,0.1,0.6 c0.2,0.5,0.4,1,0.6,1.6c0.9,1,1.3,2.5,2,3.7c0.2,0,0.2,0.4,0.4,0.3c-0.1,0.2,0.1,0.2,0.3,0.3c0.1,0.2,0.3,0.4,0.3,0.6 c0.8,0.5,1.1,1.4,1.7,2.1c0,0.2-0.1,0.2-0.1,0.3c0.2,0.1,0.2,0.3,0.4,0.5c0.3,0.4,0.8,0.9,1.1,1.3c0.3,0.3,0.5,0.6,0.8,0.9 c0.4,0.5,0.6,0.9,1.1,1.3c0.1,0.1,0.2,0.2,0.3,0.3h29.7h-0.1c-0.7-0.3-1.7-0.2-2.2-0.6c-0.8,0.1-1.2-0.5-1.9-0.4 c-0.6-0.4-1.3-0.4-1.9-0.6c-0.2-0.1-0.3-0.2-0.5-0.3c-0.4-0.2-0.9-0.3-1.3-0.4c-0.1-0.2-0.3-0.2-0.5-0.4c-1.1-0.3-1.9-1-2.9-1.4 c-0.2-0.3-0.7-0.3-0.9-0.7c-0.3,0.1-0.3-0.3-0.6-0.2c0-0.1,0.1-0.1,0-0.2c-1.1-0.6-2-1.4-3.1-2.1c-0.2-0.4-0.8-0.5-0.9-1.1 c-0.4-0.2-0.6-0.7-0.8-1.1c-0.6-0.6-1-1.2-2-1.3c-0.1-0.1-0.2-0.2-0.3-0.3c-0.5-0.9-1.1-1.7-1.9-2.3c-0.4-0.3-0.8-0.4-1.1-0.8 L3.8,71.2z"/> <path d="M0.4,57.2c0.1,0.2,0.2,0.5,0.2,0.7c0.1,0.6,0,1.1,0.1,1.7c0.1,0.7,0.4,1.4,0.4,2.1c0.3,0,0.4,0.2,0.6,0.3 c0.3,0.5,0.5,1.1,0.6,1.7c0.1,0.1,0.2,0.2,0.4,0.3c0,0.3,0,0.3,0.1,0.5c0.6,0.4,0.3,1,0.8,1.5c-0.3,0.3-0.6,0.6-1,0.9 c0.1,1,0.4,1.4,0.6,2.3c0.2,0.1,0.1,0.3,0.3,0.4c0,0.6,0.3,1.1,0.6,1.7h15.7c-0.1-0.1-0.2-0.2-0.2-0.3c0.1-0.2,0-0.3,0.1-0.5 c0.3-0.2,0.5-0.1,0.6-0.4c-0.1-0.9-0.7-1.9-1.1-2.8c-0.1-0.2,0.1-0.3,0.1-0.4c-0.1-0.1-0.2-0.3-0.3-0.4c0.1-0.8-0.5-1.6-0.1-2.6 c-0.2,0.1,0-0.1,0-0.2c0,0-0.1,0-0.1-0.1c0-0.3,0.3-0.8,0.2-1.4c0.1-0.2,0.2-0.3,0.2-0.7c0.2-0.2,0.3-0.4,0.5-0.7 c0.7-0.9,1.5-1.6,2.9-1.8c0.9-0.4,1.7-0.3,2.5-0.2c0.1,0,0.1-0.2,0.2-0.2c-0.1,0.2,0.1,0.2,0.3,0.3c0.9-0.1,1.6,0.3,2.4,0.6 c0.6,0.5,1.1,1,1.6,1.5c0.8,1.6,1.7,3.1,2.8,4.3c0,0.6,0.5,0.7,0.6,1.2c0.1,0,0.1,0.1,0.2,0.1c0.3,0.6,0.7,1,1.2,1.4 c0.2,0.6,0.8,0.9,1.2,1.3c0.9,0.5,1.8,1,2.5,1.6c0.2,0.1,0.4,0.2,0.6,0.3H56c0.9-0.5,1.8-0.9,2.3-1.8c0.4-0.3,0.8-0.7,1.1-1.2 c0.7-0.3,1-0.9,1.5-1.5c0.3-0.6,0.7-1,1.1-1.4c0.1-0.3,0.3-0.5,0.4-0.7c0.3-0.8,0.5-1.5,0.9-2.2s0.5-1.4,0.9-2.2 c0.4-0.4,0.7-0.9,1.2-1c0.2-0.3,0.6-0.5,1.1-0.5c0,0,0-0.1,0.1,0c0,0-0.1,0,0,0.1c0.2,0,0.4-0.1,0.6-0.2c0.6,0.2,1.2,0.2,2,0.3 c0.8,0.3,2,0.2,2.4,1c0.5,0.2,0.9,0.9,1.1,1.5c0.2,1,0.3,1.6,0.3,2.5c-0.4,1.5-0.5,2.5-0.9,3.9c-0.2,0.4-0.9,1.1-0.8,1.6 c-0.1,0-0.2,0-0.3,0.1c0,0.2,0.1,0.3,0,0.5c-0.3,0.3-0.3,0.7-0.5,1.1v0.1h13.7c0-0.1,0-0.1,0-0.2c0.1-0.4,0.1-0.8,0.2-1.2 c0.1-0.4,0.2-0.8,0.3-1.2c0-0.2-0.1-0.6,0.1-0.7c0.1-0.8,0.4-1.7,0.4-2.2c0-0.1,0.1-0.1,0.1,0c0.1,0-0.1-0.1-0.1-0.2s0.2-0.2,0-0.1 c0.1-0.1,0.1-0.2,0.2-0.4c0-0.1-0.1,0-0.1,0c0.4-1.7,0.7-3.4,1.9-4.8c0.5-0.2,0.7-0.8,1.2-0.8c0.4-0.4,0.9-0.7,1.3-1 c0.1-0.3,0.3-0.5,0.4-0.9c0-0.2,0-0.4,0-0.5L0.4,57.2z"/> <path d="M0.6,43.2c-0.2,1.3-0.1,2.7-0.1,4.1c0,0.7-0.2,1.3-0.2,2.1c0,0.3,0,0.5-0.1,0.8c0,0.1,0.1,0.2,0.1,0.3c0,0.8,0,1.4-0.3,2.2 c0.2,0.7,0.2,1.4,0.2,2.2c0,0.5,0.1,1,0.2,1.5c0,0.2,0,0.4,0,0.6c0,0.1,0,0.2,0.1,0.3h89.2c0-0.2-0.1-0.3-0.1-0.6 c-0.4-0.2-0.6-0.4-0.8-0.8c-0.7-0.4-1.5-0.6-2.3-1c-0.2-0.2-0.5-0.3-0.7-0.6c-0.2-0.3-0.4-0.6-0.6-1c-0.4-0.8-0.9-1.5-1.5-2.1 c-0.4-0.9-0.8-1.7-1.2-2.6c-0.2,0-0.2,0.1-0.4,0c-0.6-0.3-1-0.3-1.6-0.6c-0.2-0.5-0.1-0.7-0.1-1.3c0.2-0.3,0.6-0.5,0.8-0.8 c0-0.2-0.1-0.3,0-0.4c-0.3-0.6-0.6-1-0.8-1.7c-0.2-0.2-0.3-0.4-0.5-0.7H66.5l0,0c-0.2,0,0,0.1,0,0.2c1.2,1,2,2.4,3,3.5 c0,0.2,0.1,0.4,0.2,0.7c0.2,0.4,0.3,0.8,0.6,1.1c0,0.3,0.1,0.4,0.3,0.6c0.2,1,0.3,1.8,0.4,3.1c-0.1,0.2-0.1,0.4-0.2,0.7 c-0.1,0.4-0.5,0.6-0.7,1c-0.5,0.4-1.3,0.6-2.1,0.6c-0.2,0.2-0.4,0.3-0.6,0.5c-0.4,0-0.4,0-0.8,0c-1.1,0.7-2.3-0.2-3.3-0.7 c-0.1-0.4-0.5-0.9-0.7-1.4c-0.4-0.4-0.5-1-0.9-1.4c-0.4,0.1-0.4-0.1-0.7-0.2c0-0.3,0.3-0.3,0.3-0.7c-0.5-0.6-0.9-1.1-1.6-1.5 c-0.5-0.6-1.3-0.8-1.8-1.4c-0.3-0.1-0.6-0.3-0.9-0.5c-0.4-0.1-0.6-0.2-0.9-0.4c-0.2,0-0.2,0-0.4,0.1c-0.1-0.4-0.6-0.4-1-0.5 C54.1,46.4,53.6,46,53,46c0,0.1,0,0.1-0.1,0.2c-0.1-0.1-0.2-0.1-0.4-0.1c-1,0.2-1.2-0.2-2.2,0c-0.2,0.3-0.7,0.4-1,0.3 c-0.7,0.4-1.8,0.6-2.3,1.3c-0.2,0-0.2,0.1-0.5,0.1c-0.9,0.8-1.5,2-2.3,3c0.1,0.1-0.1,0.2-0.1,0.4c-0.4,0.4-0.8,0.8-1.4,1.1 c-0.6-0.1-1,0.3-1.5,0.4c-0.4,0-0.7-0.2-1-0.3c-0.5-0.2-1.1-0.1-1.4-0.5c-0.2-0.4-0.4-0.7-0.8-1c-0.1-0.5-0.4-0.8-0.3-1.1 c0-0.1-0.2,0-0.2-0.2c0.1-0.3-0.1-0.5,0.1-0.8c-0.2-0.1-0.1-0.4-0.2-0.6c0.1-1.2,0.3-1.8,0.4-3c0.3-0.8,0.6-1.5,1.1-2.1h-9.8 c-0.2,0.6-0.4,1.3-0.5,2c-0.1,0.4-0.3,0.7-0.3,1.2c-0.1,0.3-0.2,0.4-0.2,0.7c-0.1,0-0.1,0.1-0.2,0.2c0.2,0.2,0,0.5,0.1,0.7 c-0.1,0.2,0,0.5-0.3,0.7c0.1,0.4-0.3,0.9-0.4,1.5c-0.1,0.3-0.3,0.5-0.3,0.7c-0.4,0.5-0.7,1-1.1,1.5c-0.4,0.3-0.7,0.7-1.1,0.8 c-0.1,0.2-0.4,0.2-0.6,0.5c-0.3,0-0.5,0.2-0.8,0.3c-0.9,0.1-1.8-0.2-2.6-0.1c-0.2,0-0.1-0.3-0.3-0.3c-0.5,0-1.1-0.1-1.4-0.5h0.4 c-0.2-0.1-0.4-0.3-0.5-0.5c-0.7-0.1-1-0.8-1.5-1.1c-0.1-0.1,0-0.1,0-0.3c-0.2,0-0.3-0.1-0.4-0.2c-0.4-0.5-0.6-1.3-0.9-1.6 c0-0.3-0.1-0.5-0.3-0.7c0-0.3-0.2-0.5-0.1-0.7c-0.2-0.3-0.3-0.7-0.2-0.9c-0.2-0.3-0.1-0.6-0.1-1s-0.2-0.7-0.1-1.3 c0-0.2,0.2-0.4,0.2-0.6c0.1-0.3,0-0.6,0.1-0.9c0,0,0-0.1-0.1-0.1L0.6,43.2z"/> <path d="M39.4,43.2c0.3-0.4,0.6-0.7,0.9-1c0.1-0.2,0.2-0.3,0.3-0.4c0-0.1-0.1-0.1-0.1-0.2c0.3-0.1,0.4-0.4,0.6-0.6 c0.5-0.8,0-1.5,0.4-2.2c1-0.4,1.8-0.8,2.9-0.8c0,0.2,0.3,0.1,0.4,0.3c0.1,0.1,0.1,0.4,0.4,0.4c0.5-0.1,1-0.2,1.3-0.5 c2.3-0.4,4-1.1,6.7-0.9c0.4,0,1,0.1,1.5,0.2c0.9,0.1,1.8,0.2,2.6,0.4c0.5,0.1,0.9,0.3,1.4,0.3c0.2,0.1,0.2,0.2,0.4,0.3 c0.8,0.2,1.7,0.6,2.4,1c0.4,0.1,0.7,0.4,1.2,0.6c0.4,0.6,1.1,0.9,1.6,1.3c0.2-0.1,0.2,0.1,0.4,0.1c0.2,0.1,0.2-0.2,0.4-0.2 c0,0.2,0.3,0.1,0.4,0.2c0.2,0.2,0.4,0.7,0.4,1.1c0.2,0.2,0.4,0.5,0.7,0.6H80c-0.5-0.8-1-1.6-1.6-2.2c-0.1-0.2-0.2-0.3-0.2-0.5 c-0.1,0-0.2-0.2-0.4-0.2c-1.5-2.1-3.6-3.7-5.4-5.5c-0.3,0-0.4-0.3-0.7-0.4c0-0.2-0.2-0.3-0.3-0.5c-0.2,0-0.4-0.4-0.6-0.3 c-0.1-0.1-0.2-0.3-0.4-0.3c-0.5-0.5-1.2-0.8-1.8-1.3c-0.8-0.2-1.5-0.6-2.1-1c-1-0.3-1.7-0.8-2.5-1.2c-1.1-0.3-2.2-0.8-3.3-1 c-0.3-0.1-0.6-0.2-1-0.3c-0.1-0.1-0.3-0.1-0.5-0.2c-0.5-0.1-1.1-0.1-1.6-0.2c-0.2,0-0.3-0.2-0.5-0.2c-0.1,0-0.2,0.1-0.2,0.1 c-0.1,0-0.1-0.1-0.2-0.1c-0.6-0.1-1.2,0-1.8-0.1c-0.6-0.1-1.5-0.2-2.4-0.2c-0.4,0-0.8,0.2-1.2,0.2c-0.2,0.2-0.3,0.5-0.5,0.8 c-0.6,0.2-1-0.2-1.5-0.4c-0.3,0.2-0.4,0.7-0.8,0.9c-0.2,0-0.2-0.3-0.4-0.4c0.1-0.2,0.5-0.4,0.4-0.6c0-0.2-0.3,0-0.3-0.3 c-0.5,0-1,0.2-1.6,0.3c-1.2,0.4-2.4,0.9-3.7,1.2c-1,0.6-2.2,1.1-3,1.9c-0.2,0-0.2,0.1-0.5,0.1c-0.1,0.2-0.4,0.2-0.5,0.5 c-0.2,0-0.3,0.1-0.5,0.1c0,0.4,0,0.6,0.2,0.9c-0.4,0.2-0.9,0.2-1.4,0.5c-0.1,0.2-0.2,0.4-0.4,0.5c0,0.9,0.8,1.7,0.4,2.5 c-0.3-0.1-0.7-0.4-1.1-0.5c-0.1,0-0.3,0.1-0.4,0.1c-0.2,0-0.5-0.1-0.7-0.1S34.7,36,34.5,36c-0.2,0.1-0.5,0-0.7,0 c-0.2,0.2-0.4,0.4-0.7,0.5c-0.2,0.4-0.4,0.5-0.7,0.8c0,0.2-0.1,0.2-0.2,0.4c-0.8,1-1.4,2.2-2.2,3.3c-0.2,0.7-0.5,1.4-0.8,2.2 L39.4,43.2z M15.7,43.2c-0.2-0.6,0.6-1.4,0.4-2.3c0.2-0.3,0.3-0.7,0.2-1c0.1-0.1,0.1-0.2,0.1-0.3c0.1-0.4,0.3-0.8,0.3-1.2 c0.1-0.1,0.1-0.3,0.3-0.3c0.3-1.5,1.4-2.8,1.6-4.1c0-0.2,0-0.3,0-0.5c0.2-0.6,0.7-1,1-1.5c0.3-0.5,0.4-1.3,1-1.6 c0.4-0.8,0.7-1.6,1.2-2.2c0.1-0.1,0.1-0.1,0.2-0.2c0.1-0.1,0.1-0.1,0.1-0.2c0.1-0.1,0.3-0.2,0.4-0.3c0.2-0.2,0.3-0.5,0.6-0.7 c0.2-0.7,0.9-1.3,1.8-1.6c0.5-0.8,1-1.6,2-1.9c0.4-0.4,0.9-0.8,1.3-1.3c0.2-0.1,0.5-0.3,0.7-0.5c0.7-0.1,0.9-0.5,1.5-0.7 c0-0.2,0.3-0.4,0.5-0.5c0.2-0.2,0.4-0.3,0.6-0.5c0.2,0,0.3-0.1,0.5-0.1c0.5-0.4,1.1-0.7,1.8-0.9c-0.1-0.2,0.1-0.1,0.1-0.2 c0.5-0.1,1.2-0.1,1.6-0.5c0.1-0.3,0.1-0.3,0.2-0.6c0.8-0.1,0.9-1,1.3-1.5c-0.2-0.3-0.3-0.6-0.4-1c0-0.3,0.2-0.4,0.3-0.7 c0.6-0.1,1,0.1,1.5-0.2c0,0,0.3-0.1,0.3-0.2c0.2-0.2,0.8-0.2,1.2-0.4c0.6-0.1,1.1,0.2,1.7,0.3c0.3,0.2,0.7,0.3,1.1,0.4 c0.5,0.5,1.3,0.5,1.9,0.9c0.9,0,1.7-0.4,2.5-0.6c0.5-0.1,1.1-0.2,1.7-0.3c1.7-0.2,3.4-0.4,5.4-0.4c1.2,0.4,3.2,0.3,4.1,0.1 c0.9,0.2,1.9,0.3,2.5,0.7c0.4-0.1,0.8,0.2,1.3,0.1c0.3,0,0.6,0.3,1,0.4c0.2,0,0.4,0,0.6,0c0.3,0.1,0.5,0.3,0.8,0.4 c0,0,0.3,0,0.3-0.2c0.1,0.1,0.2,0.3,0.6,0.2c0.1-0.2-0.1-0.4-0.1-0.7c-0.4-0.2-0.8-0.3-0.9-0.7c-0.6-0.2-1.1-0.6-1.6-0.9 c-0.2,0-0.4-0.2-0.6-0.3L62.1,13c-0.1-0.1,0,0-0.3-0.1c-0.7-0.2-1.8-0.4-2.4-0.6c-1.8-0.2-3.2-0.9-4.8-1.5c-0.3-0.4-0.2-1-0.5-1.3 c0.4-0.5,0.6-1.1,1-1.6C55,7.7,55.2,7.3,55.2,7c-0.1-0.4-0.4-0.6-0.5-1c-0.8,0.2-1.2,1.1-2,1c0-0.4,0.3-0.5,0.5-0.8 C53.1,6,53,5.9,53.1,5.6c-0.2,0-0.2-0.2-0.3-0.3c-0.5-0.5-1.1-0.6-2-0.7c0,0.3-0.2,0.6-0.3,0.8c-0.2,0.2-0.6-0.1-0.9-0.1 c-0.4,0-0.7,0.1-1.2,0.2c-0.7,0-1.3,0.2-1.8,0.3c-0.3-0.4-0.2-1-0.9-1c-0.5,0-1.2,0.7-1.8,0.3C43.8,4.8,44,4.7,44,4.4 c0.5-0.1,1,0,1.3-0.4c0.1-0.2-0.1-0.4,0-0.6s0.5-0.4,0.6-0.8c0.5-0.1,1.1-0.4,1.3,0.2c-0.2,0.3-0.4,0.6-0.4,0.9 c-0.2,1.1,1.3,1.4,2.2,0.9c0.3-0.2,0.5-0.4,0.7-0.8c0-0.2-0.2-0.2-0.1-0.5c0.1-0.7,1.2-0.9,1.6-0.5c0.8,0,1.3-0.8,2.1-1 c0.4,0,0.5,0.1,0.7,0c0.7,0.3,1.3,1.3,2.2,0.9c0.2-0.1,0.5-0.4,0.8-0.5c0.5-0.3,0.9-0.4,1.4-0.5c0-0.1,0.1-0.2,0.1-0.3 c0.1-0.2-0.1-0.2-0.2-0.3c0-0.1,0.2-0.1,0.2-0.4c0-0.2-0.2-0.1-0.2-0.3C56.7,0,54.2,0.1,52.1,0c-0.5,0-1,0-1.5,0c-3,0.1-6,0.4-8.6,1 c-0.2,0-0.2-0.1-0.3-0.1C37.5,1.6,33.6,3,29.9,4.3c0,0.1,0.2,0.1,0.3,0.2c-0.3,0-0.3,0-0.5,0c-1.6,0.4-2.9,1.2-4.3,1.8 c-0.2,0.1-0.4,0.1-0.6,0.3c-0.3-0.1-0.7,0.3-1,0.4c-0.3,0.2-0.5,0.4-0.8,0.6c-0.1,0.1,0.1,0.2,0.1,0.3c-0.2,0.3-0.7,0.4-0.9,0.7 c-0.2,0-0.3-0.1-0.6-0.1c-0.7,0.5-1.5,0.9-2,1.5c-0.2,0-0.3,0.2-0.5,0.2c-0.6,0.7-1.3,1.2-1.9,1.8c-0.8,0.5-1.3,1.2-2,1.7 c0,0.2-0.3,0.2-0.3,0.5c-0.3,0.1-0.4,0.4-0.8,0.6c-0.3,0.4-0.7,0.7-1,1.3c-0.1,0-0.2,0.1-0.3,0.2c-0.6,0.8-1.3,1.4-1.8,2.2 c-0.1,0.1-0.1,0.2-0.3,0.2c-0.2,0.5-0.6,0.8-0.9,1.2S9.3,20.7,8.9,21c0,0-0.1,0.2,0.1,0.2c-0.4,0.2-0.5,0.7-0.8,1.1 c0.2,0.2,0,0.5,0.1,0.8c0.1,0.4,0.4,0.5,0.2,0.9c-0.1,0.1-0.2,0.2-0.4,0.3c-0.3-0.1-0.4-0.2-0.6-0.5c-0.7-0.1-0.7,0.7-1,0.9 c-0.2,0.4-0.5,0.8-0.8,1.1c-0.2,0.9-0.8,1.4-1,2.1C4.7,28,4.6,28,4.5,28c0,0.5-0.3,0.5-0.3,0.9c-0.1,0.1-0.1,0.2-0.3,0.3 c-0.1,0.6-0.3,1-0.5,1.5c-0.2,0.1-0.2,0.5-0.4,0.6v0.3c-0.1,0.1-0.1,0.2-0.2,0.3c-0.1,1-0.5,1.7-0.7,2.6c-0.3,0.6-0.7,1.4-0.6,1.9 c0,0.1-0.2,0-0.2,0.2c0,0.4-0.3,0.9-0.2,1.3c-0.3,1.2-0.8,2.6-0.7,3.7c-0.2,0.3-0.1,0.6-0.3,1v0.1L15.7,43.2z"/> <path d="M480.7,93c0,4.5-0.1,7.2-1.6,8.9c-1.3,1.5-3,2.1-5.1,2.1h-5.5V82.2h5.5c2.1,0,3.9,0.6,5.1,2.1 C480.5,85.8,480.7,88.5,480.7,93 M485.2,93c0-4.8-0.1-8.5-2.3-11.2c-2.1-2.6-4.7-3.8-8.5-3.8h-10.5v29.9h10.5c3.7,0,6.4-1.2,8.5-3.8 C485.1,101.5,485.2,97.8,485.2,93 M455.7,107.9V78h-4.5v21l-13.8-21h-4.2v29.9h4.5v-21l13.8,21H455.7z M425.4,97.9V78.1h-4.5v19.6 c0,4-2.5,6.5-6.2,6.5s-6.2-2.5-6.2-6.5V78.1H404v19.8c0,6.2,4.6,10.3,10.7,10.3S425.4,104,425.4,97.9 M397.9,99.4 c0-2.6-0.8-4.7-2.4-6.1c-1.3-1.2-2.8-1.8-5.5-2.2l-3.6-0.5c-1.6-0.3-2.5-0.7-3.3-1.3c-0.8-0.7-1.1-1.7-1.1-2.8 c0-2.7,1.9-4.7,5.4-4.7c2.6,0,4.7,0.5,6.6,2.3l2.9-2.9c-2.6-2.4-5.3-3.4-9.3-3.4c-6.2,0-10,3.5-10,8.7c0,2.5,0.8,4.4,2.2,5.8 c1.3,1.3,3.2,2,5.6,2.4l3.5,0.5c1.5,0.2,2.5,0.6,3.3,1.3c0.8,0.7,1.2,1.8,1.2,3.1c0,2.9-2.2,4.6-6.2,4.6c-3,0-5.5-0.7-7.7-2.9l-3,3 c2.9,2.9,6.1,3.9,10.6,3.9C393.5,108.2,397.9,104.9,397.9,99.4 M372.6,107.9v-4H358v-9h12.5v-4h-12.4v-8.7h14.6v-4.1h-19.2v29.8 H372.6z M346.4,96.3v-4.6h-10.9v3.9h6.4v1.7c0,1.9-0.4,3.4-1.5,4.7c-1.2,1.4-2.9,2.1-4.9,2.1c-1.8,0-3.3-0.7-4.5-1.8 c-1.5-1.6-1.8-3.4-1.8-9.3s0.3-7.7,1.8-9.3c1.1-1.2,2.6-1.8,4.5-1.8c3.4,0,5.5,1.9,6.3,5.2h4.5c-0.8-5.1-4.5-9.2-10.8-9.2 c-3.3,0-5.8,1.1-7.7,3c-2.9,2.9-3,5.9-3,12.2c0,6.3,0.1,9.2,3,12.2c1.9,1.9,4.5,3,7.7,3s6-1.1,8.2-3.4 C345.7,102.6,346.4,100.3,346.4,96.3 M318,97.9V78.1h-4.5v19.6c0,4-2.5,6.5-6.2,6.5s-6.2-2.5-6.2-6.5V78.1h-4.5v19.8 c0,6.2,4.6,10.3,10.7,10.3S318,104,318,97.9 M284.2,98.1H275l4.7-13.3L284.2,98.1z M292.4,107.9l-11-29.9h-3.7l-11,29.9h4.8l2.1-6 h11.9l2.1,6H292.4z M262.1,107.9V78h-4.5v12.8h-12.1V78H241v29.9h4.5v-13h12.1v13H262.1z M235.3,80.1v-2h-20.1v2h8.9v27.8h2.3V80 L235.3,80.1L235.3,80.1z M208.9,78h-2.3v29.9h2.3V78z M199.1,99.9c0-2.4-1-4.4-2.6-5.8c-1.4-1.2-2.6-1.6-5.3-2.1l-3.5-0.5 c-1.7-0.3-3.2-0.8-4.3-1.7c-1.1-0.9-1.5-2.2-1.5-3.9c0-3.8,2.6-6.2,6.9-6.2c3.5,0,5.5,1.1,7.3,2.8l1.5-1.5c-2.6-2.2-4.9-3.2-8.6-3.2 c-5.8,0-9.3,3.2-9.3,8.2c0,2.4,0.8,4.2,2.4,5.5c1.3,1.1,3.1,1.8,5.3,2.1l3.5,0.5c2.4,0.4,3.3,0.7,4.3,1.6c1.1,1,1.6,2.4,1.6,4.2 c0,3.9-2.9,6.2-7.7,6.2c-3.6,0-5.8-0.8-8.5-3.5l-1.6,1.6c2.7,2.7,5.5,3.9,10,3.9C195.3,108.2,199.1,105,199.1,99.9 M171.9,78h-2.3 v29.9h2.3V78z M164.2,78h-2.4l-8.4,25.9L145,78h-2.4l9.8,29.9h1.9L164.2,78z"/> </svg>