<svg xmlns="http://www.w3.org/2000/svg" viewBox="0 0 9020.08 748.74">
  <defs>
    <style>
      .cls-1{fill:#fff}
    </style>
  </defs>
  <g id="Layer_2" data-name="Layer 2">
    <g id="Layer_1-2" data-name="Layer 1">
      <path d="M2331.48 181v29.28h28.58v13.58h-28.58v29.28h-15v-29.27h-28.58v-13.58h28.58V181ZM2521.57 181v29.28h28.58v13.58h-28.58v29.28h-15v-29.27H2478v-13.58h28.57V181ZM2700.42 237.83H2718l-17.11 39h-10.47Zm5.66-39a10.33 10.33 0 1 1 10.18-10.33 10.21 10.21 0 0 1-10.18 10.29ZM2890.51 237.83h17.54l-17.11 39h-10.47Zm5.66-39a10.33 10.33 0 1 1 10.18-10.33 10.2 10.2 0 0 1-10.18 10.29ZM3094.92 181v29.28h22.44v13.58h-22.44v29.28h-15v-29.27h-28.58v-13.58h28.58V181ZM5365.52 198.79a10.33 10.33 0 1 1 10.19-10.33 10.2 10.2 0 0 1-10.19 10.33Zm0 59.41a10.33 10.33 0 1 1 10.19-10.33 10.2 10.2 0 0 1-10.19 10.33ZM6125.89 258.2a10.33 10.33 0 1 1 10.18-10.33 10.2 10.2 0 0 1-10.18 10.33ZM8216.72 198.79a10.33 10.33 0 1 1 10.09-10.42 10.21 10.21 0 0 1-10.09 10.42Zm.54 59.41a10.33 10.33 0 1 1 10.09-10.42 10.19 10.19 0 0 1-10.09 10.42ZM8407 198.79a10.33 10.33 0 1 1 10.18-10.33 10.2 10.2 0 0 1-10.18 10.33Zm0 59.41a10.33 10.33 0 1 1 10.18-10.33A10.2 10.2 0 0 1 8407 258.2ZM8034.24 181v29.28h28.57v13.58h-28.57v29.28h-15v-29.27h-28.58v-13.58h28.58V181ZM5555.61 198.79a10.33 10.33 0 1 1 10.19-10.33 10.2 10.2 0 0 1-10.19 10.33Zm0 59.41a10.33 10.33 0 1 1 10.19-10.33 10.2 10.2 0 0 1-10.19 10.33ZM5935.8 258.2a10.33 10.33 0 1 1 10.2-10.33 10.2 10.2 0 0 1-10.2 10.33ZM1952.44 157.29c-5 0-9.19 1.53-12.23 4.44s-4.86 7.41-4.87 12.64c0 4.47.45 9.85.89 15.06.43 5 .84 9.81.83 13.6 0 5.92-4.91 7.69-9 8.13l-1.27.14v11.48l1.27.14c4.11.46 9 2.24 9 8.15 0 3.8-.42 8.57-.87 13.61-.46 5.21-.93 10.59-.94 15.06 0 5.23 1.67 9.6 4.84 12.65s7.27 4.47 12.25 4.47h8.38v-13.12h-6a5.55 5.55 0 0 1-3.92-1.12c-.8-.75-1.19-2-1.19-3.81 0-3.33.38-7.76.78-12.46.45-5.36.92-10.91.92-15.68 0-6.5-2.77-11.22-7.93-13.61 5.17-2.39 8-7.09 8-13.6 0-4.77-.44-10.31-.88-15.67-.38-4.7-.74-9.14-.74-12.47 0-1.81.4-3.06 1.2-3.81a5.59 5.59 0 0 1 3.91-1.1h6v-13.13h-8.41ZM2140.67 203.09c0-3.79.43-8.55.87-13.59.46-5.21.94-10.6.94-15.06 0-10.4-6.69-17.13-17.08-17.14h-8.4v13.12h6a5.61 5.61 0 0 1 3.93 1.12c.8.75 1.19 2 1.18 3.81 0 3.33-.37 7.77-.77 12.47-.45 5.36-.92 10.9-.93 15.67 0 6.51 2.78 11.22 7.93 13.62-5.16 2.38-8 7.08-8 13.59 0 4.77.45 10.31.88 15.67.39 4.71.75 9.15.74 12.48 0 1.81-.39 3-1.19 3.8a5.59 5.59 0 0 1-3.91 1.1h-6v13.11h8.39c10.37 0 17.08-6.7 17.1-17.08 0-4.46-.45-9.85-.9-15.06-.43-5-.83-9.81-.83-13.61 0-5.91 4.92-7.68 9-8.13l1.27-.13v-11.47l-1.26-.14c-4.07-.45-8.96-2.24-8.96-8.15ZM6703.6 181v29.28h28.57v13.58h-28.57v29.28h-15v-29.27H6660v-13.58h28.58V181ZM6893.69 181v29.28h28.57v13.58h-28.57v29.28h-15v-29.27h-28.58v-13.58h28.58V181ZM8604.52 181v29.28h28.57v13.58h-28.57v29.28h-15v-29.27h-28.58v-13.58h28.58V181ZM8794.61 181v29.28h28.57v13.58h-28.57v29.28h-15v-29.27H8751v-13.58h28.58V181ZM9004.35 158.71l-68.66 114.44-1.38 2.3h16.15L9018.72 161l1.36-2.29h-15.73zM1.38 273.15 0 275.45h16.15L84.4 161l1.37-2.29H70.04L1.38 273.15zM191.47 273.15l-1.38 2.3h16.16L274.5 161l1.36-2.29h-15.73l-68.66 114.44zM430.56 181v29.28h28.58v13.58h-28.58v29.28h-15v-29.27H387v-13.58h28.57V181ZM650.92 255.98l2.2 1.1v-15.19l-49.35-24.87 48.56-24.15.79-.39v-15.4l-79.92 40 77.72 38.9zM763.29 177.08v15.26l49.48 24.81-48.69 24.21-.79.39v15.33l79.93-39.99-77.73-38.9-2.2-1.11zM1000.84 181v29.28h28.58v13.58h-28.58v29.28h-15v-29.27h-28.57v-13.58h28.57V181ZM1183.51 258.2a10.33 10.33 0 1 1 10.18-10.33 10.21 10.21 0 0 1-10.18 10.33ZM1381 181v29.28h28.58v13.58H1381v29.28h-15v-29.27h-28.58v-13.58H1366V181ZM4034.88 258.2a10.33 10.33 0 1 1 10.18-10.33 10.2 10.2 0 0 1-10.18 10.33ZM4225 258.2a10.33 10.33 0 1 1 10.19-10.33A10.2 10.2 0 0 1 4225 258.2ZM5175.43 198.79a10.33 10.33 0 1 1 10.19-10.33 10.2 10.2 0 0 1-10.19 10.33Zm0 59.41a10.33 10.33 0 1 1 10.19-10.33 10.2 10.2 0 0 1-10.19 10.33ZM6316 258.2a10.33 10.33 0 1 1 10.19-10.33A10.2 10.2 0 0 1 6316 258.2ZM6506.07 258.2a10.33 10.33 0 1 1 10.19-10.33 10.2 10.2 0 0 1-10.19 10.33ZM7076.35 258.2a10.33 10.33 0 1 1 10.18-10.33 10.21 10.21 0 0 1-10.18 10.33ZM7266.44 258.2a10.33 10.33 0 1 1 10.18-10.33 10.2 10.2 0 0 1-10.18 10.33ZM7464 181v29.28h28.57v13.58H7464v29.28h-15v-29.27h-28.58v-13.58H7449V181ZM7844.15 181v29.28h28.57v13.58h-28.57v29.28h-15v-29.27h-28.58v-13.58h28.58V181ZM5753.14 181v29.28h28.57v13.58h-28.57v29.28h-15v-29.27h-28.58v-13.58h28.58V181ZM1563.69 258.2a10.33 10.33 0 1 1 10.19-10.33 10.22 10.22 0 0 1-10.19 10.33ZM1753.78 258.2a10.33 10.33 0 1 1 10.22-10.33 10.2 10.2 0 0 1-10.22 10.33ZM4992.77 181v29.28h28.58v13.58h-28.58v29.28h-15v-29.27h-28.59v-13.58h28.59V181ZM4802.68 181v29.28h28.57v13.58h-28.57v29.28h-15v-29.27h-28.58v-13.58h28.59V181ZM7654.06 181v29.28h28.57v13.58h-28.57v29.28h-15v-29.27h-28.58v-13.58h28.58V181ZM3281.94 181v29.28h28.58v13.58h-28.58v29.28h-15v-29.27h-28.58v-13.58H3267V181ZM3472 181v29.28h28.58v13.58H3472v29.28h-15v-29.27h-28.58v-13.58H3457V181ZM3662.13 181v29.28h28.57v13.58h-28.57v29.28h-15v-29.27h-28.59v-13.58h28.59V181ZM3852.22 181v29.28h28.58v13.58h-28.58v29.28h-15v-29.27h-28.59v-13.58h28.59V181ZM4415.06 258.2a10.33 10.33 0 1 1 10.19-10.33 10.2 10.2 0 0 1-10.19 10.33ZM4612.59 181v29.28h28.57v13.58h-28.57v29.28h-15v-29.27H4569v-13.58h28.58V181ZM2324.06 572.77a10.33 10.33 0 1 1 10.18-10.32 10.2 10.2 0 0 1-10.18 10.32ZM2514.15 572.77a10.33 10.33 0 1 1 10.18-10.32 10.21 10.21 0 0 1-10.18 10.32ZM2711.66 495.58v29.28h28.58v13.59h-28.58v29.28h-15v-29.28h-28.56v-13.59h28.57v-29.28ZM2901.76 495.58v29.28h28.57v13.59h-28.57v29.28h-15v-29.28h-28.58v-13.59h28.58v-29.28ZM3091.85 495.58v29.28h28.58v13.59h-28.58v29.28h-15v-29.28h-28.58v-13.59h28.58v-29.28ZM5373 495.58v29.28h28.57v13.59H5373v29.28h-15v-29.28h-28.58v-13.59H5358v-29.28ZM6125.89 572.77a10.33 10.33 0 1 1 10.18-10.32 10.2 10.2 0 0 1-10.18 10.32ZM8224 495.52l.27 29.27 28.57-.26.12 13.59-28.57.26.27 29.28-15 .14-.27-29.28-28.58.26-.13-13.59 28.58-.26-.26-29.28ZM8414.42 495.58v29.28H8443v13.59h-28.58v29.28h-15v-29.28h-28.59v-13.59h28.59v-29.28ZM8026.81 513.36A10.33 10.33 0 1 1 8037 503a10.2 10.2 0 0 1-10.19 10.36Zm0 59.41a10.33 10.33 0 1 1 10.19-10.32 10.2 10.2 0 0 1-10.19 10.32ZM5514.04 587.73l-1.38 2.3h16.15l68.25-114.45 1.37-2.29h-15.73l-68.66 114.44zM5894.22 587.73l-1.38 2.3H5909l68.25-114.45 1.36-2.29h-15.73l-68.66 114.44zM1951.3 495.58v29.28h28.58v13.59h-28.58v29.28h-15v-29.28h-28.57v-13.59h28.57v-29.28ZM2134 572.77a10.33 10.33 0 1 1 10.19-10.32 10.2 10.2 0 0 1-10.19 10.32ZM6696.16 572.77a10.33 10.33 0 1 1 10.19-10.32 10.2 10.2 0 0 1-10.19 10.32ZM6886.26 572.77a10.33 10.33 0 1 1 10.18-10.32 10.2 10.2 0 0 1-10.18 10.32ZM8604.19 495.52l.26 29.27 28.57-.26.13 13.59-28.57.26.27 29.28-15 .14-.27-29.28-28.58.26-.12-13.59 28.58-.26-.27-29.28ZM8787.17 572.77a10.33 10.33 0 1 1 10.19-10.32 10.2 10.2 0 0 1-10.19 10.32ZM8977.27 572.77a10.33 10.33 0 1 1 10.18-10.32 10.2 10.2 0 0 1-10.18 10.32ZM43 572.77a10.33 10.33 0 1 1 10.18-10.32A10.2 10.2 0 0 1 43 572.77ZM240.47 495.58v29.28h28.58v13.59h-28.58v29.28h-15v-29.28H196.9v-13.59h28.58v-29.28ZM423.14 513.36A10.33 10.33 0 1 1 433.33 503a10.22 10.22 0 0 1-10.19 10.36Zm0 59.41a10.33 10.33 0 1 1 10.19-10.32 10.21 10.21 0 0 1-10.19 10.32ZM613.23 513.36A10.33 10.33 0 1 1 623.41 503a10.2 10.2 0 0 1-10.18 10.36Zm0 59.41a10.33 10.33 0 1 1 10.18-10.32 10.2 10.2 0 0 1-10.18 10.32ZM810.75 495.58v29.28h28.57v13.59h-28.57v29.28h-15v-29.28h-28.57v-13.59h28.58v-29.28ZM989.59 552.4h17.55L990 591.45h-10.45Zm5.66-39a10.33 10.33 0 1 1 10.19-10.4 10.21 10.21 0 0 1-10.19 10.36ZM1179.69 552.4h17.54l-17.12 39.05h-10.47Zm5.65-39a10.33 10.33 0 1 1 10.19-10.4 10.21 10.21 0 0 1-10.19 10.36ZM1369.78 552.4h17.54l-17.12 39.05h-10.47Zm5.66-39a10.33 10.33 0 1 1 10.18-10.4 10.21 10.21 0 0 1-10.18 10.36ZM4034.88 513.36a10.33 10.33 0 1 1 10.18-10.36 10.2 10.2 0 0 1-10.18 10.36Zm0 59.41a10.33 10.33 0 1 1 10.18-10.32 10.2 10.2 0 0 1-10.18 10.32ZM4232.41 495.58v29.28H4261v13.59h-28.57v29.28h-15v-29.28h-28.58v-13.59h28.58v-29.28ZM5182.87 495.58v29.28h28.57v13.59h-28.57v29.28h-15v-29.28h-28.58v-13.59h28.58v-29.28ZM6316 572.77a10.33 10.33 0 1 1 10.19-10.32 10.2 10.2 0 0 1-10.19 10.32ZM6506.07 572.77a10.33 10.33 0 1 1 10.19-10.32 10.2 10.2 0 0 1-10.19 10.32ZM7076.35 572.77a10.33 10.33 0 1 1 10.18-10.32 10.21 10.21 0 0 1-10.18 10.32ZM7226.4 531.66l77.74 38.89 2.2 1.11v-15.19l-49.36-24.87 48.56-24.15.8-.39v-15.4l-77.22 38.64-2.72 1.36zM7416.5 491.66v15.26l49.48 24.81-48.69 24.22-.79.39v15.32l79.93-39.99-77.74-38.91-2.19-1.1zM7836.71 513.36A10.33 10.33 0 1 1 7846.9 503a10.2 10.2 0 0 1-10.19 10.36Zm0 59.41a10.33 10.33 0 1 1 10.19-10.32 10.2 10.2 0 0 1-10.19 10.32ZM5704.13 587.73l-1.38 2.3h16.15l68.26-114.45 1.36-2.29h-15.73l-68.66 114.44zM1559.87 552.4h17.54l-17.11 39.05h-10.47Zm5.66-39a10.33 10.33 0 1 1 10.18-10.4 10.21 10.21 0 0 1-10.18 10.36ZM1761.21 495.58v29.28h28.57v13.59h-28.57v29.28h-15v-29.28h-28.57v-13.59h28.57v-29.28ZM4992.77 495.58v29.28h28.58v13.59h-28.58v29.28h-15v-29.28h-28.59v-13.59h28.59v-29.28ZM4795.25 572.77a10.33 10.33 0 1 1 10.18-10.33 10.2 10.2 0 0 1-10.18 10.33ZM7646.62 513.36a10.33 10.33 0 1 1 10.19-10.36 10.2 10.2 0 0 1-10.19 10.36Zm0 59.41a10.33 10.33 0 1 1 10.19-10.32 10.2 10.2 0 0 1-10.19 10.32ZM3283.08 471.86c-10.37 0-17.08 6.71-17.1 17.09 0 4.46.45 9.85.9 15.06.43 5 .83 9.8.83 13.6 0 5.91-4.92 7.68-9 8.13l-1.27.13v11.48l1.27.14c4.11.46 9 2.25 9 8.16 0 3.8-.43 8.56-.87 13.6-.46 5.21-.94 10.6-.94 15.06 0 5.24 1.66 9.61 4.83 12.66s7.28 4.46 12.25 4.47h8.38v-13.12h-6c-3.68 0-5.11-1.38-5.11-4.92 0-3.33.38-7.76.78-12.46.45-5.36.92-10.91.92-15.68 0-6.51-2.77-11.22-7.92-13.62 5.16-2.38 8-7.09 8-13.59 0-4.77-.44-10.32-.88-15.68-.38-4.7-.74-9.14-.73-12.47 0-3.53 1.43-4.91 5.1-4.91h6v-13.12h-8.41ZM3471.32 517.67c0-3.8.42-8.56.86-13.6.46-5.21.94-10.6.94-15.06 0-5.23-1.66-9.61-4.83-12.66s-7.28-4.47-12.25-4.47h-8.38v13.13h6c3.68 0 5.11 1.38 5.11 4.92 0 3.33-.38 7.77-.78 12.46-.45 5.37-.92 10.91-.92 15.68 0 6.51 2.77 11.22 7.93 13.62-5.17 2.38-8 7.09-8 13.59 0 4.77.44 10.32.88 15.68.38 4.7.74 9.14.73 12.47 0 3.53-1.43 4.91-5.1 4.91h-6v13.12h8.41c10.37 0 17.08-6.7 17.1-17.08 0-4.46-.45-9.85-.9-15.06-.43-5-.83-9.8-.83-13.6 0-5.92 4.92-7.69 9-8.13l1.27-.14v-11.48l-1.27-.14c-4.08-.47-8.98-2.25-8.97-8.16ZM3654.7 513.36a10.33 10.33 0 1 1 10.18-10.36 10.2 10.2 0 0 1-10.18 10.36Zm0 59.41a10.33 10.33 0 1 1 10.18-10.32 10.2 10.2 0 0 1-10.18 10.32ZM3844.79 513.36A10.33 10.33 0 1 1 3855 503a10.2 10.2 0 0 1-10.21 10.36Zm0 59.41a10.33 10.33 0 1 1 10.21-10.32 10.2 10.2 0 0 1-10.21 10.32ZM4422.5 495.58v29.28h28.57v13.59h-28.57v29.28h-15v-29.28h-28.58v-13.59h28.58v-29.28ZM4605.16 572.77a10.33 10.33 0 1 1 10.18-10.33 10.2 10.2 0 0 1-10.18 10.33ZM2331.48 338.3v29.28h28.58v13.58h-28.58v29.28h-15v-29.28h-28.57v-13.58h28.57V338.3ZM2521.57 338.3v29.28h28.58v13.58h-28.58v29.28h-15v-29.28H2478v-13.58h28.57V338.3ZM2704.24 415.48a10.33 10.33 0 1 1 10.19-10.33 10.21 10.21 0 0 1-10.19 10.33ZM2901.76 338.3v29.28h28.57v13.58h-28.57v29.28h-15v-29.28h-28.57v-13.58h28.57V338.3ZM3091.85 338.3v29.28h28.58v13.58h-28.58v29.28h-15v-29.28h-28.57v-13.58h28.57V338.3ZM5373 338.3v29.28h28.57v13.58H5373v29.28h-15v-29.28h-28.58v-13.58H5358V338.3ZM6133.32 338.3v29.28h28.58v13.58h-28.58v29.28h-15v-29.28h-28.59v-13.58h28.59V338.3ZM8216.72 356.07a10.33 10.33 0 1 1 10.09-10.42 10.21 10.21 0 0 1-10.09 10.42Zm.54 59.41a10.33 10.33 0 1 1 10.09-10.42 10.19 10.19 0 0 1-10.09 10.42ZM8407 356.07a10.33 10.33 0 1 1 10.18-10.33 10.2 10.2 0 0 1-10.18 10.33Zm0 59.41a10.33 10.33 0 1 1 10.18-10.33 10.2 10.2 0 0 1-10.18 10.33ZM8042.52 368.53c-4.11-.45-9-2.24-9-8.15 0-3.8.42-8.56.87-13.6.45-5.21.93-10.59.94-15.06 0-10.39-6.69-17.12-17.09-17.13h-8.38v13.12h6c3.68 0 5.11 1.39 5.11 4.92 0 3.33-.38 7.77-.78 12.48-.45 5.36-.92 10.9-.92 15.67 0 6.5 2.77 11.22 7.93 13.61-5.17 2.39-8 7.09-8 13.6 0 4.77.44 10.31.88 15.67.38 4.7.74 9.14.74 12.47 0 1.81-.4 3.06-1.2 3.81a5.59 5.59 0 0 1-3.91 1.1h-6v13.12h8.41c10.38 0 17.09-6.7 17.1-17.07 0-4.47-.45-9.85-.89-15.06-.43-5-.84-9.81-.83-13.61 0-5.92 4.91-7.69 9-8.13l1.27-.14v-11.48ZM5563.05 338.3v29.28h28.57v13.58h-28.57v29.28h-15v-29.28h-28.58v-13.58h28.58V338.3ZM5943.23 338.3v29.28h28.57v13.58h-28.57v29.28h-15v-29.28h-28.59v-13.58h28.59V338.3ZM1943.88 415.48a10.33 10.33 0 1 1 10.18-10.33 10.2 10.2 0 0 1-10.18 10.33ZM2134 415.48a10.33 10.33 0 1 1 10.18-10.33 10.2 10.2 0 0 1-10.18 10.33ZM6696.16 415.48a10.33 10.33 0 1 1 10.19-10.33 10.2 10.2 0 0 1-10.19 10.33ZM6886.26 415.48a10.33 10.33 0 1 1 10.18-10.33 10.2 10.2 0 0 1-10.18 10.33ZM8604.52 338.3v29.28h28.57v13.58h-28.57v29.28h-15v-29.28h-28.58v-13.58h28.58V338.3ZM8794.61 338.3v29.28h28.57v13.58h-28.57v29.28h-15v-29.28H8751v-13.58h28.58V338.3ZM8984.7 338.3v29.28h28.57v13.58h-28.57v29.28h-15v-29.28h-28.58v-13.58h28.58V338.3ZM50.38 338.3v29.28H79v13.58H50.38v29.28h-15v-29.28H6.81v-13.58h28.58V338.3ZM240.47 338.3v29.28h28.58v13.58h-28.58v29.28h-15v-29.28H196.9v-13.58h28.58V338.3ZM430.56 338.3v29.28h28.58v13.58h-28.58v29.28h-15v-29.28H387v-13.58h28.57V338.3ZM613.23 356.07a10.33 10.33 0 1 1 10.19-10.33 10.22 10.22 0 0 1-10.19 10.33Zm0 59.41a10.33 10.33 0 1 1 10.19-10.33 10.21 10.21 0 0 1-10.19 10.33ZM803.32 356.07a10.33 10.33 0 1 1 10.19-10.33 10.2 10.2 0 0 1-10.19 10.33Zm0 59.41a10.33 10.33 0 1 1 10.19-10.33 10.2 10.2 0 0 1-10.19 10.33ZM1000.84 338.3v29.28h28.58v13.58h-28.58v29.28h-15v-29.28h-28.57v-13.58h28.58V338.3ZM1190.93 338.3v29.28h28.58v13.58h-28.58v29.28h-15v-29.28h-28.58v-13.58h28.58V338.3ZM1373.6 415.48a10.33 10.33 0 1 1 10.18-10.33 10.2 10.2 0 0 1-10.18 10.33ZM4042.32 338.3v29.28h28.57v13.58h-28.57v29.28h-15v-29.28h-28.58v-13.58h28.58V338.3ZM4232.41 338.3v29.28H4261v13.58h-28.57v29.28h-15v-29.28h-28.58v-13.58h28.58V338.3ZM5175.43 356.07a10.33 10.33 0 1 1 10.19-10.33 10.2 10.2 0 0 1-10.19 10.33Zm0 59.41a10.33 10.33 0 1 1 10.19-10.33 10.2 10.2 0 0 1-10.19 10.33ZM6323.42 338.3v29.28H6352v13.58h-28.57v29.28h-15v-29.28h-28.58v-13.58h28.58V338.3ZM6506.07 415.48a10.33 10.33 0 1 1 10.19-10.33 10.2 10.2 0 0 1-10.19 10.33ZM7076.35 415.48a10.33 10.33 0 1 1 10.18-10.33 10.2 10.2 0 0 1-10.18 10.33ZM7273.87 338.3v29.28h28.58v13.58h-28.58v29.28h-15v-29.28h-28.59v-13.58h28.59V338.3ZM7464 338.3v29.28h28.57v13.58H7464v29.28h-15v-29.28h-28.58v-13.58H7449V338.3ZM7845.28 314.58c-5 0-9.19 1.53-12.23 4.44s-4.86 7.41-4.87 12.64c0 4.46.45 9.85.9 15.06.43 5 .83 9.81.83 13.6 0 5.91-4.92 7.68-9 8.13l-1.27.14v11.48l1.26.14c4.11.45 9 2.24 9 8.15 0 3.8-.42 8.56-.86 13.61-.46 5.21-.94 10.59-.94 15 0 5.24 1.66 9.61 4.83 12.66s7.28 4.46 12.25 4.47h8.38v-13.12h-6a5.6 5.6 0 0 1-3.92-1.12c-.8-.75-1.19-2-1.19-3.81 0-3.33.38-7.77.78-12.47.45-5.36.92-10.9.93-15.67 0-6.51-2.78-11.22-7.93-13.62 5.16-2.38 8-7.08 8-13.59 0-4.77-.44-10.31-.87-15.67-.39-4.71-.75-9.15-.74-12.47 0-1.81.39-3.06 1.19-3.81a5.59 5.59 0 0 1 3.91-1.1h6v-13.13h-8.41ZM5753.14 338.3v29.28h28.57v13.58h-28.57v29.28h-15v-29.28h-28.58v-13.58h28.58V338.3ZM1563.69 415.48a10.33 10.33 0 1 1 10.18-10.33 10.2 10.2 0 0 1-10.18 10.33ZM1753.78 415.48a10.33 10.33 0 1 1 10.22-10.33 10.2 10.2 0 0 1-10.22 10.33ZM4985.34 356.07a10.33 10.33 0 1 1 10.18-10.33 10.2 10.2 0 0 1-10.18 10.33Zm0 59.41a10.33 10.33 0 1 1 10.18-10.33 10.2 10.2 0 0 1-10.18 10.33ZM4802.68 338.3v29.28h28.57v13.58h-28.57v29.28h-15v-29.28h-28.58v-13.58h28.59V338.3ZM7654.06 338.3v29.28h28.57v13.58h-28.57v29.28h-15v-29.28h-28.58v-13.58h28.58V338.3ZM3281.94 338.3v29.28h28.58v13.58h-28.58v29.28h-15v-29.28h-28.57v-13.58h28.57V338.3ZM3472 338.3v29.28h28.58v13.58H3472v29.28h-15v-29.28h-28.57v-13.58H3457V338.3ZM3654.7 415.48a10.33 10.33 0 1 1 10.18-10.33 10.2 10.2 0 0 1-10.18 10.33ZM3852.22 338.3v29.28h28.58v13.58h-28.58v29.28h-15v-29.28h-28.59v-13.58h28.59V338.3ZM4422.5 338.3v29.28h28.57v13.58h-28.57v29.28h-15v-29.28h-28.58v-13.58h28.58V338.3ZM4612.59 338.3v29.28h28.57v13.58h-28.57v29.28h-15v-29.28H4569v-13.58h28.58V338.3ZM2324.08 100.92a10.33 10.33 0 1 1 10.19-10.33 10.22 10.22 0 0 1-10.19 10.33ZM2514.17 100.92a10.33 10.33 0 1 1 10.18-10.33 10.21 10.21 0 0 1-10.18 10.33ZM2704.26 100.92a10.33 10.33 0 1 1 10.18-10.33 10.21 10.21 0 0 1-10.18 10.33ZM2894.35 100.92a10.33 10.33 0 1 1 10.18-10.33 10.2 10.2 0 0 1-10.18 10.33ZM3084.44 100.92a10.33 10.33 0 1 1 10.18-10.33 10.2 10.2 0 0 1-10.18 10.33ZM5365.51 100.92a10.33 10.33 0 1 1 10.19-10.33 10.2 10.2 0 0 1-10.19 10.33ZM6125.87 100.92a10.33 10.33 0 1 1 10.19-10.33 10.2 10.2 0 0 1-10.19 10.33ZM8217 100.91a10.33 10.33 0 1 1 10-10.42 10.19 10.19 0 0 1-10 10.42ZM8407 100.92a10.33 10.33 0 1 1 10.18-10.33 10.2 10.2 0 0 1-10.18 10.33ZM8026.77 100.92A10.33 10.33 0 1 1 8037 90.59a10.2 10.2 0 0 1-10.23 10.33ZM5555.6 100.92a10.33 10.33 0 1 1 10.19-10.33 10.2 10.2 0 0 1-10.19 10.33ZM5935.78 100.92A10.33 10.33 0 1 1 5946 90.59a10.2 10.2 0 0 1-10.22 10.33ZM1943.9 100.92a10.33 10.33 0 1 1 10.19-10.33 10.22 10.22 0 0 1-10.19 10.33ZM2134 100.92a10.33 10.33 0 1 1 10.18-10.33 10.2 10.2 0 0 1-10.18 10.33ZM6692.31 80.54h17.55l-17.12 39.05h-10.46Zm5.67-39a10.33 10.33 0 1 1 10.18-10.33A10.2 10.2 0 0 1 6698 41.5ZM6882.4 80.54h17.6l-17.12 39.05h-10.46Zm5.67-39a10.33 10.33 0 1 1 10.18-10.33 10.2 10.2 0 0 1-10.18 10.29ZM8593.22 80.54h17.55l-17.12 39.05h-10.48Zm5.66-39a10.33 10.33 0 1 1 10.18-10.33 10.2 10.2 0 0 1-10.18 10.29ZM8783.31 80.54h17.54l-17.11 39.05h-10.48Zm5.66-39a10.33 10.33 0 1 1 10.18-10.33A10.2 10.2 0 0 1 8789 41.5ZM8973.4 80.54h17.54l-17.11 39.05h-10.48Zm5.66-39a10.33 10.33 0 1 1 10.18-10.33 10.2 10.2 0 0 1-10.18 10.29ZM39.18 80.54h17.55l-17.12 39.05H29.14Zm5.66-39A10.33 10.33 0 1 1 55 31.17 10.2 10.2 0 0 1 44.84 41.5ZM229.27 80.54h17.55l-17.12 39.05h-10.47Zm5.66-39a10.33 10.33 0 1 1 10.19-10.33 10.2 10.2 0 0 1-10.19 10.29ZM430.61 23.72V53h28.57v13.58h-28.57v29.29h-15V66.58H387V53h28.57V23.72ZM620.7 23.72V53h28.57v13.58H620.7v29.29h-15V66.58h-28.57V53h28.57V23.72ZM810.79 23.72V53h28.57v13.58h-28.57v29.29h-15V66.58h-28.57V53h28.58V23.72ZM1000.88 23.72V53h28.57v13.58h-28.57v29.29h-15V66.58h-28.57V53h28.58V23.72ZM1191 23.72V53h28.57v13.58H1191v29.29h-15V66.58h-28.6V53h28.6V23.72ZM1381.06 23.72V53h28.57v13.58h-28.57v29.29h-15V66.58h-28.57V53h28.57V23.72ZM4042.32 23.72V53h28.57v13.58h-28.57v29.29h-15V66.58h-28.58V53h28.58V23.72ZM4232.41 23.72V53H4261v13.58h-28.57v29.29h-15V66.58h-28.58V53h28.58V23.72ZM5182.86 23.72V53h28.57v13.58h-28.57v29.29h-15V66.58h-28.58V53h28.58V23.72ZM6323.4 23.72V53h28.6v13.58h-28.6v29.29h-15V66.58h-28.58V53h28.58V23.72ZM6513.49 23.72V53h28.57v13.58h-28.57v29.29h-15V66.58h-28.58V53h28.58V23.72ZM7083.76 23.72V53h28.57v13.58h-28.57v29.29h-15V66.58h-28.58V53h28.58V23.72ZM7273.85 23.72V53h28.57v13.58h-28.57v29.29h-15V66.58h-28.58V53h28.58V23.72ZM7463.94 23.72V53h28.57v13.58h-28.57v29.29h-15V66.58h-28.58V53h28.58V23.72ZM7844.11 23.72V53h28.58v13.58h-28.58v29.29h-15V66.58h-28.59V53h28.59V23.72ZM5753.13 23.72V53h28.57v13.58h-28.57v29.29h-15V66.58h-28.58V53h28.58V23.72ZM1601.41 98.69l2.2 1.11V84.6l-49.35-24.86 48.57-24.16.78-.39v-15.4l-79.92 40 77.72 38.9zM1713.78 19.79v15.27l49.48 24.8-48.69 24.21-.79.39V99.8l79.92-40-77.72-38.9-2.2-1.11zM4945.3 19.79v15.27l49.48 24.8-48.69 24.21-.79.39V99.8l79.93-40-77.73-38.9-2.2-1.11zM4832.94 98.69l2.2 1.11V84.6l-49.35-24.86 48.56-24.16.79-.39v-15.4l-79.93 40 77.73 38.9zM7654 23.72V53h28.58v13.58H7654v29.29h-15V66.58h-28.59V53H7639V23.72ZM3232.95 115.86l-1.38 2.3h16.16l68.25-114.44 1.36-2.3h-15.73l-68.66 114.44zM3423.04 115.86l-1.38 2.3h16.16l68.25-114.44 1.36-2.3h-15.73l-68.66 114.44zM3613.13 115.86l-1.38 2.3h16.16l68.25-114.44 1.36-2.3h-15.73l-68.66 114.44zM3803.22 115.86l-1.38 2.3H3818l68.25-114.44 1.36-2.3h-15.73l-68.66 114.44zM4423.63 0c-10.37 0-17.08 6.7-17.1 17.09 0 4.46.45 9.85.9 15.06.43 5 .83 9.8.83 13.59 0 5.92-4.92 7.69-9 8.13L4398 54v11.49l1.26.14c4.12.46 9 2.24 9 8.16 0 3.8-.43 8.56-.87 13.61s-.94 10.59-.94 15c0 5.23 1.66 9.61 4.83 12.65s7.28 4.47 12.25 4.48h8.38v-13.12h-6c-3.69 0-5.12-1.39-5.11-4.92 0-3.33.37-7.77.77-12.47.45-5.36.92-10.9.93-15.67 0-6.51-2.78-11.22-7.93-13.62 5.16-2.38 8-7.09 8-13.59 0-4.77-.45-10.32-.88-15.68-.39-4.7-.75-9.14-.74-12.47 0-3.53 1.43-4.91 5.1-4.91h6V-.05h-8.42ZM4611.86 45.8c0-3.79.43-8.55.87-13.59.46-5.21.94-10.6.94-15.06 0-5.23-1.66-9.61-4.83-12.66S4601.56 0 4596.59 0h-8.38v13.13h6c3.68 0 5.11 1.38 5.11 4.92 0 3.33-.38 7.76-.78 12.46-.45 5.37-.92 10.91-.93 15.68 0 6.51 2.78 11.22 7.93 13.62-5.16 2.38-8 7.09-8 13.59 0 4.77.45 10.32.88 15.68.39 4.7.75 9.14.74 12.47 0 3.53-1.43 4.91-5.1 4.91h-6v13.12h8.41c10.37 0 17.08-6.7 17.1-17.08 0-4.46-.45-9.85-.9-15.06-.43-5-.83-9.81-.83-13.61 0-5.91 4.92-7.68 9-8.12l1.27-.14V54.09l-1.27-.14c-4.08-.45-8.98-2.23-8.98-8.15ZM434 652.87v29.28h28.58v13.59H434V725h-15v-29.26h-28.6v-13.59H419v-29.28ZM624.05 652.87v29.28h28.58v13.59h-28.58V725h-15v-29.26h-28.56v-13.59h28.57v-29.28ZM802.9 709.69h17.54l-17.11 39h-10.47Zm5.66-39a10.33 10.33 0 1 1 10.18-10.33 10.21 10.21 0 0 1-10.18 10.29ZM993 709.69h17.54l-17.11 39H983Zm5.66-39a10.33 10.33 0 1 1 10.18-10.33 10.21 10.21 0 0 1-10.19 10.29ZM1197.39 652.87v29.28h22.44v13.59h-22.44V725h-15v-29.26h-28.58v-13.59h28.58v-29.28ZM3468 670.65a10.33 10.33 0 1 1 10.19-10.33 10.2 10.2 0 0 1-10.19 10.33Zm0 59.42a10.33 10.33 0 1 1 10.19-10.33 10.2 10.2 0 0 1-10.19 10.33ZM4228.34 730.06a10.33 10.33 0 1 1 10.19-10.33 10.2 10.2 0 0 1-10.19 10.33ZM6319.16 670.65a10.33 10.33 0 1 1 10.09-10.42 10.21 10.21 0 0 1-10.09 10.42Zm.54 59.41a10.33 10.33 0 1 1 10.09-10.42 10.19 10.19 0 0 1-10.09 10.42ZM6509.43 670.65a10.33 10.33 0 1 1 10.18-10.33 10.2 10.2 0 0 1-10.18 10.33Zm0 59.42a10.33 10.33 0 1 1 10.18-10.33 10.2 10.2 0 0 1-10.18 10.33ZM6136.68 652.87v29.28h28.57v13.59h-28.57V725h-15v-29.26h-28.58v-13.59h28.59v-29.28ZM3658.07 670.65a10.33 10.33 0 1 1 10.19-10.33 10.2 10.2 0 0 1-10.19 10.33Zm0 59.42a10.33 10.33 0 1 1 10.19-10.33 10.2 10.2 0 0 1-10.19 10.33ZM4038.25 730.06a10.33 10.33 0 1 1 10.19-10.33 10.2 10.2 0 0 1-10.19 10.33ZM54.92 629.15a17.31 17.31 0 0 0-12.23 4.44c-3.17 3-4.86 7.41-4.87 12.65 0 4.46.46 9.85.9 15.06.43 5 .83 9.8.83 13.6 0 5.91-4.91 7.68-9 8.12l-1.27.14v11.48l1.27.14c4.11.46 9 2.24 9 8.16 0 3.8-.43 8.56-.87 13.6-.46 5.21-.93 10.6-.94 15.06 0 5.23 1.66 9.61 4.83 12.65s7.28 4.47 12.25 4.48h8.38v-13.12h-6a5.63 5.63 0 0 1-3.93-1.11 5 5 0 0 1-1.18-3.81c0-3.33.38-7.77.77-12.47.45-5.36.92-10.9.93-15.67 0-6.51-2.77-11.22-7.93-13.62 5.16-2.38 8-7.09 8-13.59 0-4.77-.45-10.32-.88-15.68-.38-4.7-.75-9.14-.74-12.47a5 5 0 0 1 1.19-3.81 5.59 5.59 0 0 1 3.91-1.1h6v-13.13h-8.42ZM243.16 675c0-3.79.42-8.55.87-13.59.46-5.21.93-10.6.94-15.06 0-10.4-6.69-17.12-17.09-17.14h-8.38v13.13h6a5.58 5.58 0 0 1 3.93 1.11 5.08 5.08 0 0 1 1.18 3.81c0 3.33-.38 7.77-.78 12.47-.45 5.36-.92 10.9-.92 15.67 0 6.51 2.77 11.22 7.93 13.62-5.17 2.38-8 7.09-8 13.59 0 4.77.44 10.32.88 15.68.38 4.7.74 9.14.74 12.47a5.08 5.08 0 0 1-1.2 3.81 5.57 5.57 0 0 1-3.91 1.1h-6v13.12h8.41c10.38 0 17.09-6.7 17.1-17.08 0-4.46-.45-9.85-.89-15.06-.43-5-.84-9.81-.83-13.61 0-5.91 4.91-7.68 9-8.12l1.27-.14V683.3l-1.27-.14c-4.09-.51-8.99-2.29-8.98-8.16ZM4806.05 652.87v29.28h28.57v13.59h-28.57V725h-15v-29.26h-28.58v-13.59h28.58v-29.28ZM4996.14 652.87v29.28h28.57v13.59h-28.57V725h-15v-29.26h-28.58v-13.59h28.58v-29.28ZM6707 652.87v29.28h28.57v13.59H6707V725h-15v-29.26h-28.59v-13.59H6692v-29.28ZM6897 652.87v29.28h28.57v13.59H6897V725h-15v-29.26h-28.59v-13.59H6882v-29.28ZM7106.78 630.58l-68.65 114.44-1.39 2.3h16.16l68.25-114.45 1.36-2.29h-15.73zM7228.27 745.02l-1.38 2.3h16.16l68.25-114.45 1.36-2.29h-15.73l-68.66 114.44zM7418.36 745.02l-1.38 2.3h16.16l68.25-114.45 1.36-2.29h-15.73l-68.66 114.44zM7657.45 652.87v29.28H7686v13.59h-28.58V725h-15v-29.26h-28.58v-13.59h28.58v-29.28ZM7877.81 727.84l2.2 1.11v-15.2l-49.35-24.86 48.56-24.15.79-.39v-15.41l-79.92 40 77.72 38.9zM7990.18 648.94v15.27l49.47 24.8-48.68 24.22-.79.39v15.33l79.92-40-77.72-38.9-2.2-1.11zM8227.72 652.87v29.28h28.58v13.59h-28.58V725h-15v-29.26h-28.57v-13.59h28.57v-29.28ZM8410.39 730.06a10.33 10.33 0 1 1 10.19-10.33 10.2 10.2 0 0 1-10.19 10.33ZM8607.9 652.87v29.28h28.58v13.59h-28.58V725h-15v-29.26h-28.57v-13.59h28.57v-29.28ZM2137.35 730.06a10.33 10.33 0 1 1 10.18-10.33 10.2 10.2 0 0 1-10.18 10.33ZM2327.44 730.06a10.33 10.33 0 1 1 10.19-10.33 10.2 10.2 0 0 1-10.19 10.33ZM3277.89 670.65a10.33 10.33 0 1 1 10.19-10.33 10.2 10.2 0 0 1-10.19 10.33Zm0 59.42a10.33 10.33 0 1 1 10.19-10.33 10.2 10.2 0 0 1-10.19 10.33ZM4418.43 730.06a10.33 10.33 0 1 1 10.19-10.33 10.2 10.2 0 0 1-10.19 10.33ZM4608.52 730.06a10.33 10.33 0 1 1 10.19-10.33 10.2 10.2 0 0 1-10.19 10.33ZM5178.8 730.06a10.33 10.33 0 1 1 10.2-10.33 10.2 10.2 0 0 1-10.2 10.33ZM5368.89 730.06a10.33 10.33 0 1 1 10.18-10.33 10.2 10.2 0 0 1-10.18 10.33ZM5566.41 652.87v29.28H5595v13.59h-28.57V725h-15v-29.26h-28.58v-13.59h28.58v-29.28ZM5946.59 652.87v29.28h28.57v13.59h-28.57V725h-15v-29.26H5903v-13.59h28.59v-29.28ZM3855.6 652.87v29.28h28.57v13.59h-28.57V725h-15v-29.26H3812v-13.59h28.58v-29.28ZM8790.57 730.06a10.33 10.33 0 1 1 10.19-10.33 10.21 10.21 0 0 1-10.19 10.33ZM8980.66 730.06a10.33 10.33 0 1 1 10.18-10.33 10.2 10.2 0 0 1-10.18 10.33ZM3095.24 652.87v29.28h28.57v13.59h-28.57V725h-15v-29.26h-28.58v-13.59h28.58v-29.28ZM2905.15 652.87v29.28h28.57v13.59h-28.57V725h-15v-29.26h-28.58v-13.59h28.58v-29.28ZM5756.5 652.87v29.28h28.57v13.59h-28.57V725h-15v-29.26h-28.58v-13.59h28.58v-29.28ZM1384.41 652.87v29.28H1413v13.59h-28.58V725h-15v-29.26h-28.57v-13.59h28.57v-29.28ZM1574.51 652.87v29.28h28.57v13.59h-28.57V725h-15v-29.26h-28.57v-13.59h28.57v-29.28ZM1764.6 652.87v29.28h28.58v13.59h-28.58V725h-15v-29.26H1721v-13.59h28.59v-29.28ZM1954.7 652.87v29.28h28.57v13.59h-28.57V725h-15v-29.26h-28.58v-13.59h28.58v-29.28ZM2517.53 730.06a10.33 10.33 0 1 1 10.19-10.33 10.2 10.2 0 0 1-10.19 10.33ZM2715.06 652.87v29.28h28.57v13.59h-28.57V725h-15v-29.26h-28.58v-13.59h28.58v-29.28Z" class="cls-1"/>
    </g>
  </g>
</svg>