<?xml version="1.0" encoding="UTF-8"?>
<svg xmlns="http://www.w3.org/2000/svg" id="Layer_1" viewBox="0 0 119.37 99.49"><defs><style>.cls-1{fill:#fff;stroke-width:0px;}</style></defs><path class="cls-1" d="m111.07,0H8.14C3.69,0,.08,3.61.08,8.06v57.93c0,4.45,3.61,8.06,8.06,8.06h102.93c4.45,0,8.06-3.61,8.06-8.06V8.06c0-4.45-3.61-8.06-8.06-8.06ZM1.05,22.88h2.3l.33,11.47,2.83.17L1.05,62.72V22.88Zm7.09,50.2c-3.5,0-6.41-2.56-6.98-5.9h.02s6.5-33.57,6.5-33.57l-3.05-.18-.34-11.52H1.05v-1.79L14.28,4.67l17.26,17.22-24.51.59,1.79,9.45h13.36l3.28,1.81-2.13.16,6.8,39.19H8.14Zm22.97,0l-6.64-38.3,2.36-.18v-.11s57.04,31.49,57.04,31.49c-7.64-6.42-12.51-16.04-12.51-26.78,0-6.75,1.93-13.06,5.26-18.41l-43.73,1.06L14.22,3.23,1.05,18.62v-10.56C1.05,4.15,4.23.98,8.14.98h102.93c3.27,0,6.02,2.23,6.84,5.24-3.72-1.31-7.61-1.98-11.6-1.98-12.52,0-23.52,6.63-29.7,16.56h.55s0-.02,0-.02c.21,0,.4,0,.61,0-3.44,5.31-5.45,11.64-5.45,18.43,0,12.23,6.49,22.97,16.21,28.96,0,0,0,0-.01,0l-4.66-2.18c3.95,3.32,8.65,5.78,13.79,7.1H31.11Zm76.7-2.48l-3.25-2.12-12.28-1.67,11.11.22c-3.1-2.26-7.84-6.15-7.84-6.15l-11.9-2.88,10.5,1.09-5.27-5.74-12.47-7.33,10.98,4.82c-10.49-16.51-6.82-25.07-6.82-25.07-.73,9.53,3.4,15.19,3.4,15.19l5.4-10.49c-2.28,7.1-4.55,11.89-4.55,11.89,1.09,4.04,4.77,8.76,4.77,8.76l7.31-11.22-6.17,13.11c3.09,4.65,7.52,7.85,7.52,7.85l5.58-11.92-4.18,13.44,9.58,7.69-1.41.51Zm10.35-4.61c0,3.1-2,5.73-4.77,6.69.61-7.11,2.83-51.83-35.61-51.91,6.06-9.36,16.58-15.56,28.53-15.56,4,0,7.92.69,11.64,2.05l.18.07c.02.24.04.49.04.73v57.93Z"/><path class="cls-1" d="m112.89,80.75c0-1.79,1.47-3.24,3.24-3.24s3.24,1.46,3.24,3.24-1.45,3.24-3.24,3.24-3.24-1.46-3.24-3.24Zm3.24-2.81c-1.53,0-2.72,1.25-2.72,2.81s1.18,2.81,2.72,2.81,2.72-1.24,2.72-2.81-1.17-2.81-2.72-2.81Zm-.75,4.78h-.43v-3.95h1.43c.68,0,1.21.35,1.21,1.09,0,.62-.34,1.05-.94,1.1l1.11,1.76h-.54l-1.05-1.76h-.8v1.76Zm0-2.14h.89c.52,0,.88-.11.88-.72,0-.51-.39-.71-.88-.71h-.89v1.43Z"/><path class="cls-1" d="m3.13,94.63H0v-15.23h3.54l4.54,9.25,4.57-9.25h3.54v15.23h-3.13v-9.5l-4.98,9.96-4.96-9.96v9.5Z"/><path class="cls-1" d="m22.27,81.06c0,.89-.69,1.58-1.6,1.58s-1.62-.69-1.62-1.6.69-1.62,1.62-1.62,1.6.69,1.6,1.64Zm-.16,13.56h-2.9v-10.57h2.9v10.57Z"/><path class="cls-1" d="m24.99,94.63v-15.23h2.9v15.23h-2.9Z"/><path class="cls-1" d="m33.66,94.97c0,1.6-.32,2.67-1,3.38-.71.75-1.76,1.14-3.11,1.14-.16,0-.46,0-.78-.02v-2.65h.43c.98,0,1.55-.69,1.55-1.85v-10.91h2.9v10.91Zm.16-13.91c0,.89-.69,1.58-1.6,1.58s-1.62-.69-1.62-1.6.69-1.62,1.62-1.62,1.6.69,1.6,1.64Z"/><path class="cls-1" d="m36.61,94.88l-.73-.75,1.19-1.16c-.84-1.05-1.21-2.15-1.21-3.61,0-3.29,2.37-5.66,5.66-5.66,1.48,0,2.65.39,3.84,1.26l1.26-1.21.69.75-1.21,1.19c.89,1.21,1.28,2.33,1.28,3.72,0,3.17-2.49,5.59-5.75,5.59-1.44,0-2.67-.41-3.79-1.28l-1.21,1.16Zm6.76-8.04c-.57-.39-1.07-.55-1.76-.55-1.76,0-2.92,1.23-2.92,3.11,0,.64.11,1.05.41,1.62l4.27-4.18Zm-3.56,4.98c.57.41,1.16.59,1.83.59,1.69,0,2.88-1.26,2.88-3.06,0-.71-.11-1.19-.46-1.76l-4.25,4.22Z"/><path class="cls-1" d="m52.64,94.63h-2.9v-8.13h-1.16v-2.44h1.16v-.59c0-2.83,1.39-4.16,4.29-4.06v2.67c-1,.11-1.39.5-1.39,1.39v.59h1.39v2.44h-1.39v8.13Z"/><path class="cls-1" d="m62.67,84.06h3.08l-5.96,15.39h-3.11l1.99-5.07-3.7-10.32h3.08l2.15,6.28,2.47-6.28Z"/><path class="cls-1" d="m70.07,84.06v1.55c.3-.78.5-1.1.94-1.42.46-.32,1.07-.5,1.71-.5.07,0,.18,0,.34.02v2.97c-.23-.02-.46-.05-.62-.05-.8,0-1.53.37-1.94.96-.34.48-.43.94-.43,1.94v5.09h-2.9v-10.57h2.9Z"/><path class="cls-1" d="m78.2,91.52c0,.5.18.64.82.69h.5v2.42h-2.31c-1.42-.05-1.94-.62-1.92-2.01v-6.16h-1.21v-2.44h1.21v-2.83h2.9v2.83h1.32v2.44h-1.32v5.07Z"/><path class="cls-1" d="m89.71,84.06h2.9v10.57h-2.9v-1.46c-.98,1.26-2.12,1.83-3.68,1.83-2.97,0-5.09-2.31-5.09-5.53s2.24-5.78,5.32-5.78c1.44,0,2.42.5,3.45,1.71v-1.35Zm-5.66,5.37c0,1.85,1.21,3.24,2.79,3.24s2.92-1.51,2.92-3.33-1.19-3.2-2.9-3.2-2.81,1.35-2.81,3.29Zm5.02-8.59c0,1.12-.94,2.03-2.1,2.03s-2.12-.91-2.12-2.08.94-2.08,2.12-2.08,2.1.91,2.1,2.12Zm-3.15-.05c0,.57.46,1.03,1.05,1.03.55,0,1.03-.46,1.03-1,0-.59-.46-1.05-1.03-1.05s-1.05.46-1.05,1.03Z"/><path class="cls-1" d="m98.36,84.06v1.55c.3-.78.5-1.1.94-1.42.46-.32,1.07-.5,1.71-.5.07,0,.18,0,.34.02v2.97c-.23-.02-.46-.05-.62-.05-.8,0-1.53.37-1.94.96-.34.48-.43.94-.43,1.94v5.09h-2.9v-10.57h2.9Z"/><path class="cls-1" d="m105.83,84.06v1.3c.78-1.21,1.55-1.67,2.88-1.67,1,0,1.96.37,2.6.98.69.69.94,1.53.94,3.27v6.69h-2.9v-6.55c0-.59-.07-.94-.25-1.23-.27-.43-.82-.71-1.39-.71-1.12,0-1.87.85-1.87,2.08v6.42h-2.9v-10.57h2.9Z"/></svg>