<?xml version="1.0" encoding="UTF-8"?> <svg xmlns="http://www.w3.org/2000/svg" xmlns:xlink="http://www.w3.org/1999/xlink" width="657" height="657" viewBox="0 0 657 657"><defs><filter id="Rectangle_354" x="0" y="0" width="657" height="657" filterUnits="userSpaceOnUse"><feOffset dy="6"></feOffset><feGaussianBlur stdDeviation="6" result="blur"></feGaussianBlur><feFlood flood-opacity="0.161"></feFlood><feComposite operator="in" in2="blur"></feComposite><feComposite in="SourceGraphic"></feComposite></filter><clipPath id="clip-path"><rect id="Rectangle_336" data-name="Rectangle 336" width="321.857" height="219.503" fill="none"></rect></clipPath></defs><g id="Group_628" data-name="Group 628" transform="translate(-2103 -525.001)"><g transform="matrix(1, 0, 0, 1, 2103, 525)" filter="url(#Rectangle_354)"><rect id="Rectangle_354-2" data-name="Rectangle 354" width="621" height="621" transform="translate(18 12)" fill="#fab487"></rect></g><g id="Group_601" data-name="Group 601" transform="translate(2550.847 675.572) rotate(90)"><path id="Path_85" data-name="Path 85" d="M0,99.486l148.679,72.945V144L58.366,99.383l90.314-44.04v-28.8Z" transform="translate(0 13.595)" fill="#161615"></path><g id="Group_591" data-name="Group 591"><g id="Group_590" data-name="Group 590" clip-path="url(#clip-path)"><path id="Path_86" data-name="Path 86" d="M235.382,118.554c-18.979.274-21.456,11.552-21.456,19.529,0,7.151,1.1,14.3,1.924,21.73s1.927,15.129,1.927,22.006c0,27.782-17.055,37.684-40.985,37.684h-7.977V199.974h4.953c13.754-.275,18.979-7.977,18.979-21.731a131.538,131.538,0,0,0-1.65-17.329,144.228,144.228,0,0,1-1.651-20.08c-.275-19.254,7.977-27.782,21.731-31.083v-.55c-13.754-3.3-22.006-11.552-21.731-30.806a143.684,143.684,0,0,1,1.651-19.8,131.56,131.56,0,0,0,1.65-17.331c0-13.479-4.951-21.179-18.979-21.456h-4.953V0h7.977c24.48,0,40.985,11,40.985,36.86,0,7.151-1.1,14.578-1.927,22.28-.824,7.427-1.924,14.853-1.924,22,0,8.8,2.477,19.256,21.456,19.531Z" transform="translate(86.477 -0.001)" fill="#161615"></path><path id="Path_87" data-name="Path 87" d="M174.56,60.341a24.869,24.869,0,1,1-24.869-24.869A24.87,24.87,0,0,1,174.56,60.341" transform="translate(63.941 18.171)" fill="#161615"></path><path id="Path_88" data-name="Path 88" d="M174.56,118.349A24.869,24.869,0,1,1,149.691,93.48a24.87,24.87,0,0,1,24.869,24.869" transform="translate(63.941 47.886)" fill="#161615"></path></g></g></g></g></svg> 