<?xml version="1.0" encoding="UTF-8"?> <svg xmlns="http://www.w3.org/2000/svg" xmlns:xlink="http://www.w3.org/1999/xlink" width="621" height="621" viewBox="0 0 621 621"><defs><clipPath id="clip-Ting_er_ikke_alltid_svart_hvitt"><rect width="621" height="621"></rect></clipPath></defs><g id="Ting_er_ikke_alltid_svart_hvitt" data-name="Ting er ikke alltid svart hvitt" clip-path="url(#clip-Ting_er_ikke_alltid_svart_hvitt)"><rect width="621" height="621" fill="#fff"></rect><path id="Path_235" data-name="Path 235" d="M176.614,504.671h10.273v4.02H171.63V478.308h4.984Z" transform="translate(35 9)" fill="#fff"></path><rect id="Rectangle_386" data-name="Rectangle 386" width="621" height="621" fill="#1c1c1c"></rect><path id="Path_279" data-name="Path 279" d="M50.075,18.25V22.9h-9.25V53h-5.7V22.9h-9.3V18.25Zm8.65,3.55a3.587,3.587,0,0,1-3.65-3.65,3.587,3.587,0,0,1,3.65-3.65,3.472,3.472,0,0,1,2.55,1.05,3.744,3.744,0,0,1,0,5.2A3.472,3.472,0,0,1,58.725,21.8Zm2.8,3.65V53h-5.7V25.45Zm21.4-.45a12.354,12.354,0,0,1,5.825,1.35,9.6,9.6,0,0,1,4.025,4,13.158,13.158,0,0,1,1.45,6.4V53h-5.65V37.6a8,8,0,0,0-1.85-5.675,6.584,6.584,0,0,0-5.05-1.975A6.665,6.665,0,0,0,76.6,31.925,7.929,7.929,0,0,0,74.725,37.6V53h-5.7V25.45h5.7V28.6A9.435,9.435,0,0,1,78.3,25.95,11.428,11.428,0,0,1,82.925,25Zm29.65,0a12.217,12.217,0,0,1,5.675,1.275,10.9,10.9,0,0,1,3.875,3.175v-4h5.75v28a14.077,14.077,0,0,1-1.6,6.775A11.561,11.561,0,0,1,121.65,64.9a14.522,14.522,0,0,1-7.225,1.7,15.678,15.678,0,0,1-9.3-2.625,9.686,9.686,0,0,1-4.2-7.125h5.65a6.133,6.133,0,0,0,2.775,3.475,9.4,9.4,0,0,0,5.075,1.325A7.588,7.588,0,0,0,120,59.55a8.2,8.2,0,0,0,2.125-6.1v-4.6a11.842,11.842,0,0,1-9.55,4.6A12.329,12.329,0,0,1,106,51.625a12.88,12.88,0,0,1-4.7-5.1A15.689,15.689,0,0,1,99.575,39.1a15.247,15.247,0,0,1,1.725-7.35A12.568,12.568,0,0,1,112.575,25Zm9.55,14.2a9.976,9.976,0,0,0-1.175-4.95,8.248,8.248,0,0,0-3.075-3.2,8.045,8.045,0,0,0-4.1-1.1,8.189,8.189,0,0,0-4.1,1.075,8.107,8.107,0,0,0-3.075,3.15,9.835,9.835,0,0,0-1.175,4.925,10.263,10.263,0,0,0,1.175,5,8.29,8.29,0,0,0,3.1,3.275,7.951,7.951,0,0,0,4.075,1.125,8.045,8.045,0,0,0,4.1-1.1,8.207,8.207,0,0,0,3.075-3.225A10.119,10.119,0,0,0,122.125,39.2Zm51.5-.65a17.821,17.821,0,0,1-.2,2.8h-21.05a7.645,7.645,0,0,0,2.45,5.3,7.734,7.734,0,0,0,5.4,2,6.67,6.67,0,0,0,6.5-3.85h6.15a12.41,12.41,0,0,1-4.525,6.225,13.277,13.277,0,0,1-8.125,2.425,14.07,14.07,0,0,1-7.075-1.775,12.629,12.629,0,0,1-4.9-5,15.253,15.253,0,0,1-1.775-7.475,15.611,15.611,0,0,1,1.725-7.475,12.131,12.131,0,0,1,4.85-4.975A14.434,14.434,0,0,1,160.225,25a14.031,14.031,0,0,1,6.95,1.7,12.012,12.012,0,0,1,4.75,4.775A14.381,14.381,0,0,1,173.625,38.55Zm-5.95-1.8a6.487,6.487,0,0,0-2.25-5.05,8.044,8.044,0,0,0-5.45-1.9,7.321,7.321,0,0,0-5.05,1.875,7.836,7.836,0,0,0-2.5,5.075Zm17.25-7.3a8.952,8.952,0,0,1,3.325-3.275A9.835,9.835,0,0,1,193.175,25v5.9h-1.45a6.942,6.942,0,0,0-5.075,1.7q-1.725,1.7-1.725,5.9V53h-5.7V25.45h5.7Zm29.4-7.65a3.587,3.587,0,0,1-3.65-3.65,3.587,3.587,0,0,1,3.65-3.65,3.472,3.472,0,0,1,2.55,1.05,3.744,3.744,0,0,1,0,5.2A3.472,3.472,0,0,1,214.325,21.8Zm2.8,3.65V53h-5.7V25.45Zm18.4,13.8L248.225,53h-7.7l-10.2-11.85V53h-5.7V16h5.7V37.5l10-12.05h7.9Zm27.7,0L275.925,53h-7.7l-10.2-11.85V53h-5.7V16h5.7V37.5l10-12.05h7.9Zm42.05-.7a17.821,17.821,0,0,1-.2,2.8h-21.05a7.645,7.645,0,0,0,2.45,5.3,7.734,7.734,0,0,0,5.4,2,6.67,6.67,0,0,0,6.5-3.85h6.15A12.41,12.41,0,0,1,300,51.025a13.277,13.277,0,0,1-8.125,2.425,14.07,14.07,0,0,1-7.075-1.775,12.629,12.629,0,0,1-4.9-5,15.253,15.253,0,0,1-1.775-7.475,15.611,15.611,0,0,1,1.725-7.475,12.131,12.131,0,0,1,4.85-4.975A14.434,14.434,0,0,1,291.875,25a14.031,14.031,0,0,1,6.95,1.7,12.012,12.012,0,0,1,4.75,4.775A14.381,14.381,0,0,1,305.275,38.55Zm-5.95-1.8a6.486,6.486,0,0,0-2.25-5.05,8.044,8.044,0,0,0-5.45-1.9,7.321,7.321,0,0,0-5.05,1.875,7.836,7.836,0,0,0-2.5,5.075Zm22.65,2.35a15.247,15.247,0,0,1,1.725-7.35A12.568,12.568,0,0,1,334.975,25a12.027,12.027,0,0,1,5.675,1.275,11.516,11.516,0,0,1,3.875,3.175v-4h5.75V53h-5.75V48.9a11.32,11.32,0,0,1-3.95,3.25,12.783,12.783,0,0,1-12.2-.525,12.943,12.943,0,0,1-4.675-5.1A15.689,15.689,0,0,1,321.975,39.1Zm22.55.1a9.976,9.976,0,0,0-1.175-4.95,8.248,8.248,0,0,0-3.075-3.2,8.045,8.045,0,0,0-4.1-1.1,8.189,8.189,0,0,0-4.1,1.075A8.107,8.107,0,0,0,329,34.175a9.835,9.835,0,0,0-1.175,4.925,10.263,10.263,0,0,0,1.175,5,8.29,8.29,0,0,0,3.1,3.275,7.951,7.951,0,0,0,4.075,1.125,8.045,8.045,0,0,0,4.1-1.1,8.207,8.207,0,0,0,3.075-3.225A10.119,10.119,0,0,0,344.525,39.2ZM363.475,16V53h-5.7V16Zm13.2,0V53h-5.7V16Zm14.15,14.1V45.35a2.927,2.927,0,0,0,.725,2.225,3.6,3.6,0,0,0,2.475.675h3.5V53h-4.5a8.674,8.674,0,0,1-5.9-1.8q-2.05-1.8-2.05-5.85V30.1h-3.25V25.45h3.25V18.6h5.75v6.85h6.7V30.1Zm14.85-8.3a3.587,3.587,0,0,1-3.65-3.65,3.587,3.587,0,0,1,3.65-3.65,3.472,3.472,0,0,1,2.55,1.05,3.744,3.744,0,0,1,0,5.2A3.472,3.472,0,0,1,405.675,21.8Zm2.8,3.65V53h-5.7V25.45Zm5.6,13.65a15.247,15.247,0,0,1,1.725-7.35A12.57,12.57,0,0,1,427.125,25a12.92,12.92,0,0,1,5.325,1.175,10.9,10.9,0,0,1,4.175,3.125V16h5.75V53h-5.75V48.85a10.672,10.672,0,0,1-3.875,3.3,12.023,12.023,0,0,1-5.675,1.3,12.33,12.33,0,0,1-6.575-1.825,12.88,12.88,0,0,1-4.7-5.1A15.689,15.689,0,0,1,414.075,39.1Zm22.55.1a9.976,9.976,0,0,0-1.175-4.95,8.248,8.248,0,0,0-3.075-3.2,8.045,8.045,0,0,0-4.1-1.1,8.189,8.189,0,0,0-4.1,1.075,8.107,8.107,0,0,0-3.075,3.15,9.835,9.835,0,0,0-1.175,4.925,10.263,10.263,0,0,0,1.175,5,8.29,8.29,0,0,0,3.1,3.275,7.951,7.951,0,0,0,4.075,1.125,8.045,8.045,0,0,0,4.1-1.1,8.207,8.207,0,0,0,3.075-3.225A10.119,10.119,0,0,0,436.625,39.2Z" transform="translate(76 134)" fill="#fab486"></path><path id="Path_280" data-name="Path 280" d="M148.24,35.52,146.02,45.9h7.92v6h-9.18L142.36,63h-6.54l2.4-11.1H126.46L124.06,63h-6.54l2.4-11.1h-9.3v-6h10.56l2.22-10.38h-9.24v-6h10.5L127,18.6h6.54L131.2,29.52h11.76L145.3,18.6h6.54L149.5,29.52h7.98v6Zm-6.54,0H129.94L127.72,45.9h11.76Zm17.88,5.04q0-10.38,3.51-16.23t12.09-5.85q8.58,0,12.09,5.85t3.51,16.23q0,10.5-3.51,16.41t-12.09,5.91q-8.58,0-12.09-5.91T159.58,40.56Zm24.48,0a45.492,45.492,0,0,0-.63-8.22,11.041,11.041,0,0,0-2.55-5.49,8.692,8.692,0,0,0-11.4,0,11.041,11.041,0,0,0-2.55,5.49,45.492,45.492,0,0,0-.63,8.22,50.093,50.093,0,0,0,.6,8.46,10.586,10.586,0,0,0,2.55,5.52,8.867,8.867,0,0,0,11.46,0,10.586,10.586,0,0,0,2.55-5.52A50.091,50.091,0,0,0,184.06,40.56Zm8.88,0q0-10.38,3.51-16.23t12.09-5.85q8.58,0,12.09,5.85t3.51,16.23q0,10.5-3.51,16.41t-12.09,5.91q-8.58,0-12.09-5.91T192.94,40.56Zm24.48,0a45.492,45.492,0,0,0-.63-8.22,11.041,11.041,0,0,0-2.55-5.49,8.692,8.692,0,0,0-11.4,0,11.041,11.041,0,0,0-2.55,5.49,45.492,45.492,0,0,0-.63,8.22,50.093,50.093,0,0,0,.6,8.46,10.586,10.586,0,0,0,2.55,5.52,8.867,8.867,0,0,0,11.46,0,10.586,10.586,0,0,0,2.55-5.52A50.091,50.091,0,0,0,217.42,40.56Zm8.88,0q0-10.38,3.51-16.23t12.09-5.85q8.58,0,12.09,5.85t3.51,16.23q0,10.5-3.51,16.41T241.9,62.88q-8.58,0-12.09-5.91T226.3,40.56Zm24.48,0a45.492,45.492,0,0,0-.63-8.22,11.041,11.041,0,0,0-2.55-5.49,8.692,8.692,0,0,0-11.4,0,11.041,11.041,0,0,0-2.55,5.49,45.492,45.492,0,0,0-.63,8.22,50.093,50.093,0,0,0,.6,8.46,10.586,10.586,0,0,0,2.55,5.52,8.867,8.867,0,0,0,11.46,0,10.586,10.586,0,0,0,2.55-5.52A50.091,50.091,0,0,0,250.78,40.56Zm8.88,0q0-10.38,3.51-16.23t12.09-5.85q8.58,0,12.09,5.85t3.51,16.23q0,10.5-3.51,16.41t-12.09,5.91q-8.58,0-12.09-5.91T259.66,40.56Zm24.48,0a45.494,45.494,0,0,0-.63-8.22,11.041,11.041,0,0,0-2.55-5.49,8.692,8.692,0,0,0-11.4,0,11.041,11.041,0,0,0-2.55,5.49,45.491,45.491,0,0,0-.63,8.22,50.093,50.093,0,0,0,.6,8.46,10.586,10.586,0,0,0,2.55,5.52,8.867,8.867,0,0,0,11.46,0,10.586,10.586,0,0,0,2.55-5.52A50.093,50.093,0,0,0,284.14,40.56Zm8.88,0q0-10.38,3.51-16.23t12.09-5.85q8.58,0,12.09,5.85t3.51,16.23q0,10.5-3.51,16.41t-12.09,5.91q-8.58,0-12.09-5.91T293.02,40.56Zm24.48,0a45.494,45.494,0,0,0-.63-8.22,11.041,11.041,0,0,0-2.55-5.49,8.692,8.692,0,0,0-11.4,0,11.041,11.041,0,0,0-2.55,5.49,45.491,45.491,0,0,0-.63,8.22,50.093,50.093,0,0,0,.6,8.46,10.586,10.586,0,0,0,2.55,5.52,8.867,8.867,0,0,0,11.46,0,10.586,10.586,0,0,0,2.55-5.52A50.093,50.093,0,0,0,317.5,40.56Zm8.88,0q0-10.38,3.51-16.23t12.09-5.85q8.58,0,12.09,5.85t3.51,16.23q0,10.5-3.51,16.41t-12.09,5.91q-8.58,0-12.09-5.91T326.38,40.56Zm24.48,0a45.494,45.494,0,0,0-.63-8.22,11.041,11.041,0,0,0-2.55-5.49,8.692,8.692,0,0,0-11.4,0,11.041,11.041,0,0,0-2.55,5.49,45.491,45.491,0,0,0-.63,8.22,50.093,50.093,0,0,0,.6,8.46,10.586,10.586,0,0,0,2.55,5.52,8.867,8.867,0,0,0,11.46,0,10.586,10.586,0,0,0,2.55-5.52A50.093,50.093,0,0,0,350.86,40.56Z" transform="translate(76 268)" fill="#fff"></path><path id="Path_281" data-name="Path 281" d="M149.32,35.52,147.1,45.9h7.92v6h-9.18L143.44,63H136.9l2.4-11.1H127.54L125.14,63H118.6L121,51.9h-9.3v-6h10.56l2.22-10.38h-9.24v-6h10.5l2.34-10.92h6.54l-2.34,10.92h11.76l2.34-10.92h6.54l-2.34,10.92h7.98v6Zm-6.54,0H131.02L128.8,45.9h11.76ZM193.3,21.3v5.58H175.6v12.3h13.8v5.58H175.6V63h-6.84V21.3Zm33,0v5.58H208.6v12.3h13.8v5.58H208.6V63h-6.84V21.3Zm33,0v5.58H241.6v12.3h13.8v5.58H241.6V63h-6.84V21.3Zm33,0v5.58H274.6v12.3h13.8v5.58H274.6V63h-6.84V21.3Zm33,0v5.58H307.6v12.3h13.8v5.58H307.6V63h-6.84V21.3Zm33,0v5.58H340.6v12.3h13.8v5.58H340.6V63h-6.84V21.3Z" transform="translate(76 382)" fill="#fff"></path></g></svg> 